<?xml version="1.0" encoding="utf-8"?>
<!-- Generator: Adobe Illustrator 16.0.0, SVG Export Plug-In . SVG Version: 6.00 Build 0)  -->
<!DOCTYPE svg PUBLIC "-//W3C//DTD SVG 1.1//EN" "http://www.w3.org/Graphics/SVG/1.1/DTD/svg11.dtd">
<svg version="1.1" id="Layer_1" xmlns="http://www.w3.org/2000/svg" xmlns:xlink="http://www.w3.org/1999/xlink" x="0px" y="0px"
	 width="512px" height="512px" viewBox="0 0 512 512" enable-background="new 0 0 512 512" xml:space="preserve">
<g>
	<path fill-rule="evenodd" clip-rule="evenodd" d="M171.294,132.679c0.141,26.85,0.281,53.698,0.418,80.547
		c0.014,2.722,0.002,5.443,1.698,8.831c4.056-3.882,7.911-8.004,12.201-11.607c19.449-16.339,41.708-18.838,65.299-12.039
		c29.051,8.372,45.911,28.845,52.975,57.343c7.843,31.653,5.524,62.336-13.096,90.291c-11.386,17.089-27.636,26.559-47.976,29.211
		c-2.197,0.284-4.269,1.531-6.399,2.333c-2.832,0-5.662,0-8.494,0c-3.34-0.812-6.64-1.899-10.026-2.392
		c-15.688-2.286-29.934-7.409-40.471-20.022c-1.924-2.302-3.583-4.828-5.363-7.25c-0.638,0.205-1.274,0.408-1.912,0.612
		c0,7.318,0,14.635,0,21.876c-12.069,0-23.02,0-34.337,0c-0.123-2.798-0.313-5.107-0.314-7.417
		c-0.016-74.905-0.018-149.812,0.003-224.715c0-1.867,0.263-3.733,0.404-5.601C147.7,132.679,159.497,132.679,171.294,132.679z
		 M169.694,285.163c2.189,10.236,3.377,20.823,6.788,30.635c6.08,17.49,18.54,28.826,37.385,31.038
		c20.9,2.455,38.894-3.645,48.338-23.65c12.447-26.374,12.325-53.22-2.881-78.778c-17.035-28.633-61.146-26.828-77.64-1.275
		C173.493,255.82,171.119,270.032,169.694,285.163z"/>
	<path fill-rule="evenodd" clip-rule="evenodd" d="M131.656,132.679c-15.387,27.003-30.829,53.977-46.146,81.019
		c-12.576,22.206-24.866,44.574-37.532,66.729C32.119,308.171,16.005,335.77,0,363.432c0-76.769,0-153.535,0-230.752
		C43.885,132.679,87.77,132.679,131.656,132.679z"/>
	<path fill-rule="evenodd" clip-rule="evenodd" d="M407.708,377.588c-8.785-2.167-17.798-3.677-26.311-6.624
		c-27.712-9.594-44.035-29.452-50.93-57.709c-6.868-28.153-3.743-55.188,10.505-80.164c16.69-29.256,48.957-40.622,81.994-37.733
		c15.373,1.344,29.901,5.572,42.615,14.69c15.305,10.974,23.641,26.037,26.065,45.772c-11.568,0-22.75,0.113-33.919-0.159
		c-1.239-0.03-3.199-2.076-3.517-3.481c-4.976-22.019-24.205-29.375-41.779-28.81c-25.361,0.819-42.263,16.045-46.582,42.885
		c-2.786,17.315-2.34,34.437,3.607,51.432c11.408,32.594,48.88,37.759,70.759,20.234c7.844-6.282,10.967-15.479,13.875-24.742
		c0.608-1.938,2.878-4.699,4.475-4.762c10.793-0.421,21.609-0.219,32.481-0.219c-4.254,35.756-29.312,62.853-65.514,67.021
		c-3.16,0.365-6.224,1.559-9.332,2.367C413.37,377.588,410.539,377.588,407.708,377.588z"/>
</g>
</svg>
