<?xml version="1.0" encoding="utf-8"?>
<!-- Generator: Adobe Illustrator 16.0.0, SVG Export Plug-In . SVG Version: 6.00 Build 0)  -->
<!DOCTYPE svg PUBLIC "-//W3C//DTD SVG 1.1//EN" "http://www.w3.org/Graphics/SVG/1.1/DTD/svg11.dtd">
<svg version="1.1" id="Layer_1" xmlns="http://www.w3.org/2000/svg" xmlns:xlink="http://www.w3.org/1999/xlink" x="0px" y="0px"
	 width="512px" height="512px" viewBox="0 0 512 512" enable-background="new 0 0 512 512" xml:space="preserve">
<path fill-rule="evenodd" clip-rule="evenodd" d="M380.024,444.469c-9.659,0-18.538-0.114-27.409,0.066
	c-2.9,0.059-3.686-1.403-4.469-3.732c-3.781-11.263-7.783-22.448-11.558-33.712c-0.871-2.599-2.003-3.717-4.999-3.712
	c-48.006,0.111-96.012,0.099-144.017,0.031c-2.866-0.008-4.019,0.931-4.95,3.738c-3.682,11.106-7.904,22.034-11.614,33.132
	c-1.018,3.044-2.206,4.372-5.6,4.275c-8.643-0.251-17.298-0.085-26.508-0.085c5.851-16.641,11.487-32.602,17.074-48.581
	c20.381-58.295,40.736-116.598,61.127-174.888c3.196-9.136,6.472-18.244,9.824-27.323c1.034-2.801,0.983-4.813-1.532-7.075
	c-20.966-18.857-23.243-51.289-2.623-73.074c17.584-18.579,46.108-21.156,66.966-5.587c25.646,19.144,27.914,55.246,4.856,77.6
	c-3.061,2.969-3.394,5.265-2.047,9.088c17.975,51.027,35.767,102.12,53.638,153.183c10.591,30.263,21.241,60.506,31.86,90.762
	C378.656,440.312,379.219,442.063,380.024,444.469z M325.282,375.674c-2.457-7.196-4.629-13.986-7.184-20.627
	c-0.438-1.14-2.506-2.348-3.823-2.351c-36.343-0.127-72.684-0.13-109.026,0.003c-1.48,0.008-3.809,1.229-4.29,2.454
	c-2.592,6.604-4.724,13.388-7.155,20.521C237.677,375.674,281.097,375.674,325.282,375.674z M307.454,324.849
	c-2.533-7.362-4.79-14.265-7.371-21.043c-0.37-0.974-2.293-1.925-3.503-1.929c-24.592-0.112-49.187-0.112-73.78-0.012
	c-1.267,0.005-3.307,0.79-3.669,1.722c-2.676,6.899-5.019,13.932-7.585,21.262C243.79,324.849,275.277,324.849,307.454,324.849z
	 M229.366,273.975c20.37,0,39.745,0,60.228,0c-2.699-7.714-5.133-14.878-7.799-21.951c-0.265-0.703-1.946-1.225-2.974-1.232
	c-12.787-0.083-25.575-0.109-38.361,0.033c-1.203,0.013-3.088,0.997-3.476,1.99C234.344,259.583,232.021,266.474,229.366,273.975z
	 M247.327,222.646c8.427,0,16.09,0,24.358,0c-2.751-7.885-5.302-15.198-7.938-22.759c-3.273,0.802-7.422-2.406-9.293,2.63
	C252.048,208.994,249.833,215.539,247.327,222.646z"/>
<path fill-rule="evenodd" clip-rule="evenodd" d="M397.558,230.045c-7.269-2.766-14.234-5.415-21.657-8.24
	c13.677-22.645,21.719-46.517,21.73-72.952c0.012-26.507-7.736-50.511-21.793-73.224c7.359-2.847,14.433-5.583,21.467-8.305
	C428.817,112.744,431.903,178.407,397.558,230.045z"/>
<path fill-rule="evenodd" clip-rule="evenodd" d="M121.027,67.095c7.518,2.88,14.465,5.542,21.904,8.393
	c-28.873,48.776-28.979,97.379,0.07,146.419c-7.316,2.775-14.482,5.492-21.958,8.326C88.649,175.822,88.617,121.765,121.027,67.095z
	"/>
<path fill-rule="evenodd" clip-rule="evenodd" d="M171.113,86.028c7.768,2.919,15.339,5.764,23.615,8.874
	c-21.306,35.767-21.376,71.493,0.018,107.562c-7.411,2.798-14.452,5.585-21.615,8.008c-0.966,0.328-3.135-0.827-3.765-1.881
	c-13.472-22.577-19.458-46.845-16.281-73.166C155.237,117.602,161.21,101.227,171.113,86.028z"/>
<path fill-rule="evenodd" clip-rule="evenodd" d="M347.813,211.408c-7.88-3.014-15.557-5.951-23.457-8.973
	c21.139-36.015,21.231-71.445-0.023-107.471c7.83-2.983,15.508-5.909,23.188-8.835C370.873,118.937,375.18,169.789,347.813,211.408z
	"/>
</svg>
