<?xml version="1.0" encoding="utf-8"?>
<!-- Generator: Adobe Illustrator 16.0.0, SVG Export Plug-In . SVG Version: 6.00 Build 0)  -->
<!DOCTYPE svg PUBLIC "-//W3C//DTD SVG 1.1//EN" "http://www.w3.org/Graphics/SVG/1.1/DTD/svg11.dtd">
<svg version="1.1" xmlns="http://www.w3.org/2000/svg" xmlns:xlink="http://www.w3.org/1999/xlink" x="0px" y="0px" width="612px"
	 height="612px" viewBox="0 0.25 612 612" enable-background="new 0 0.25 612 612" xml:space="preserve">
<g id="Layer_1" display="none">
	<path display="inline" fill="#231F20" d="M581.561,137.618c0,1.987-0.631,3.781-1.842,5.429c-1.26,1.599-2.57,2.424-4.071,2.424
		c-12.07,1.163-22.007,5.04-29.664,11.682c-7.708,6.592-15.609,19.243-23.801,37.856L397.127,476.82
		c-0.824,2.618-3.102,3.927-6.883,3.927c-2.957,0-5.235-1.309-6.883-3.927l-70.14-146.673L232.566,476.82
		c-1.648,2.618-3.926,3.927-6.883,3.927c-3.587,0-5.962-1.309-7.126-3.927L95.683,195.008
		c-7.658-17.498-15.753-29.713-24.284-36.645c-8.482-6.932-20.358-11.246-35.53-12.893c-1.308,0-2.568-0.679-3.684-2.084
		c-1.164-1.358-1.745-2.957-1.745-4.75c0-4.605,1.309-6.883,3.926-6.883c10.955,0,22.395,0.485,34.367,1.454
		c11.1,1.018,21.57,1.502,31.36,1.502c9.986,0,21.764-0.485,35.336-1.502c14.203-0.969,26.805-1.454,37.76-1.454
		c2.618,0,3.926,2.278,3.926,6.883c0,4.556-0.824,6.835-2.423,6.835c-10.955,0.824-19.583,3.635-25.884,8.337
		c-6.301,4.75-9.452,10.954-9.452,18.661c0,3.926,1.309,8.821,3.927,14.688L244.83,416.473l57.632-108.865l-53.706-112.599
		c-9.646-20.067-17.596-33.057-23.799-38.874c-6.205-5.768-15.608-9.355-28.211-10.664c-1.164,0-2.229-0.679-3.295-2.084
		c-1.067-1.358-1.6-2.957-1.6-4.75c0-4.605,1.115-6.883,3.441-6.883c10.955,0,20.989,0.485,30.15,1.454
		c8.821,1.018,18.225,1.502,28.21,1.502c9.791,0,20.164-0.485,31.118-1.502c11.294-0.969,22.394-1.454,33.349-1.454
		c2.617,0,3.927,2.278,3.927,6.883c0,4.556-0.776,6.835-2.423,6.835c-21.91,1.502-32.864,7.706-32.864,18.662
		c0,4.895,2.52,12.505,7.609,22.782l35.53,72.125l35.335-65.969c4.896-9.306,7.367-17.159,7.367-23.557
		c0-15.026-10.953-23.024-32.862-24.042c-1.988,0-2.957-2.279-2.957-6.835c0-1.647,0.484-3.199,1.454-4.653
		c1.019-1.502,1.987-2.229,2.957-2.229c7.853,0,17.497,0.485,28.938,1.454c10.953,1.018,19.97,1.502,26.998,1.502
		c5.04,0,12.506-0.437,22.297-1.26c12.409-1.115,22.831-1.696,31.167-1.696c1.939,0,2.908,1.939,2.908,5.865
		c0,5.235-1.793,7.853-5.381,7.853c-12.748,1.309-23.023,4.847-30.779,10.566c-7.755,5.72-17.449,18.709-29.033,38.971
		l-47.114,87.103l63.787,129.953l94.181-218.994c3.247-7.998,4.896-15.365,4.896-22.055c0-16.044-10.955-24.526-32.864-25.544
		c-1.988,0-2.957-2.279-2.957-6.835c0-4.605,1.454-6.883,4.411-6.883c7.998,0,17.497,0.485,28.452,1.454
		c10.13,1.018,18.662,1.502,25.497,1.502c7.222,0,15.559-0.485,25.01-1.502c9.841-0.969,18.662-1.454,26.514-1.454
		C580.398,131.753,581.561,133.692,581.561,137.618z"/>
</g>
<g id="Layer_2">
	<circle fill="none" stroke="#231F20" stroke-width="130" stroke-miterlimit="10" cx="322" cy="294.25" r="175"/>
	<circle fill="none" stroke="#231F20" stroke-width="4" stroke-miterlimit="10" cx="322" cy="295.25" r="89.5"/>
</g>
</svg>
