<?xml version="1.0" encoding="utf-8"?>
<!-- Generator: Adobe Illustrator 15.0.0, SVG Export Plug-In . SVG Version: 6.00 Build 0)  -->
<!DOCTYPE svg PUBLIC "-//W3C//DTD SVG 1.1//EN" "http://www.w3.org/Graphics/SVG/1.1/DTD/svg11.dtd">
<svg version="1.1" id="Layer_1" xmlns="http://www.w3.org/2000/svg" xmlns:xlink="http://www.w3.org/1999/xlink" x="0px" y="0px"
	 width="512px" height="512px" viewBox="0 0 512 512" enable-background="new 0 0 512 512" xml:space="preserve">
<path d="M409.79,406.813c-53.332-0.209-81.748-26.291-101.496-72.25l-5.649-12.541l-48.685-111
	c-16.146-39.292-56.211-65.835-101.417-65.835c-61.167,0-110.791,49.625-110.791,110.835c0,61.208,49.623,110.833,110.791,110.833
	c42.669,0,79.771-24.125,98.29-59.5l19.688,45.416c-27.956,34.084-70.438,55.791-117.977,55.791
	c-84.254,0-152.543-68.25-152.543-152.541c0-84.251,68.289-152.585,152.541-152.585c63.582,0,114.918,33.959,141,94.125
	c1.978,4.668,27.58,64.542,49.914,115.5c13.833,31.541,25.629,52.459,63.876,53.752c37.584,1.291,63.378-21.584,63.378-50.504
	c0-28.25-19.668-35.041-52.875-46.082c-59.69-19.667-90.502-39.417-90.502-86.75c0-46.168,31.416-76.959,82.456-76.959
	c33.249,0,57.253,14.793,73.88,44.293l-32.628,16.666c-12.294-17.207-25.854-24-43.086-24c-23.955,0-41.062,16.668-41.062,38.833
	c0,31.46,28.146,36.21,67.502,49.126c52.979,17.249,77.604,36.958,77.604,86.168C512.001,369.271,467.664,406.896,409.79,406.813z"
	/>
</svg>
