<?xml version="1.0" encoding="utf-8"?>
<!-- Generator: Adobe Illustrator 15.0.0, SVG Export Plug-In . SVG Version: 6.00 Build 0)  -->
<!DOCTYPE svg PUBLIC "-//W3C//DTD SVG 1.1//EN" "http://www.w3.org/Graphics/SVG/1.1/DTD/svg11.dtd">
<svg version="1.1" id="Layer_1" xmlns="http://www.w3.org/2000/svg" xmlns:xlink="http://www.w3.org/1999/xlink" x="0px" y="0px"
	 width="512px" height="512px" viewBox="0 0 512 512" enable-background="new 0 0 512 512" xml:space="preserve">
<path d="M426.671,0H85.344C38.406,0,0,38.404,0,85.342v341.313C0,473.625,38.408,512,85.344,512H426.67
	c46.937,0,85.33-38.375,85.33-85.345V85.343C512,38.404,473.608,0,426.671,0z M371.342,371.531
	c-39.999-0.157-61.312-19.721-76.124-54.189l-4.236-9.404l-36.513-83.25c-12.11-29.469-42.159-49.375-76.063-49.375
	c-45.875,0-83.095,37.219-83.095,83.125c0,45.905,37.221,83.125,83.095,83.125c32,0,59.829-18.094,73.717-44.625L266.89,331
	c-20.969,25.563-52.829,41.844-88.484,41.844c-63.188,0-114.406-51.187-114.406-114.404c0-63.188,51.219-114.438,114.406-114.438
	c47.687,0,86.187,25.469,105.75,70.594c1.483,3.5,20.688,48.406,37.438,86.625c10.375,23.656,19.219,39.345,47.906,40.313
	c28.188,0.969,47.531-16.188,47.531-37.876c0-21.188-14.751-26.281-39.657-34.563C332.609,254.342,309.5,239.53,309.5,204.03
	c0-34.626,23.563-57.72,61.842-57.72c24.937,0,42.938,11.094,55.408,33.221l-24.47,12.499
	c-9.221-12.906-19.393-18.001-32.313-18.001c-17.969,0-30.797,12.501-30.797,29.126c0,23.595,21.108,27.157,50.627,36.844
	C429.529,252.936,448,267.717,448,304.624C447.998,343.374,414.747,371.594,371.342,371.531z"/>
</svg>
