<?xml version="1.0" encoding="utf-8"?>
<!-- Generator: Adobe Illustrator 16.0.0, SVG Export Plug-In . SVG Version: 6.00 Build 0)  -->
<!DOCTYPE svg PUBLIC "-//W3C//DTD SVG 1.1//EN" "http://www.w3.org/Graphics/SVG/1.1/DTD/svg11.dtd">
<svg version="1.1" id="Layer_1" xmlns="http://www.w3.org/2000/svg" xmlns:xlink="http://www.w3.org/1999/xlink" x="0px" y="0px"
	 width="64px" height="64px" viewBox="0 0 64 64" enable-background="new 0 0 64 64" xml:space="preserve">
<g>
	<path d="M31.943,0c8.988,0,16.57,3.085,22.742,9.257C60.893,15.467,64,23.048,64,32c0,8.991-3.049,16.477-9.145,22.456
		C48.379,60.818,40.742,64,31.943,64c-8.649,0-16.153-3.145-22.514-9.43C3.144,48.284,0,40.762,0,32
		c0-8.761,3.144-16.342,9.429-22.742C15.601,3.085,23.104,0,31.943,0z M32.057,5.772c-7.276,0-13.428,2.553-18.457,7.657
		c-5.22,5.334-7.829,11.525-7.829,18.572c0,7.086,2.59,13.22,7.77,18.397c5.181,5.183,11.352,7.771,18.514,7.771
		c7.123,0,13.334-2.607,18.629-7.828c5.029-4.838,7.543-10.951,7.543-18.343c0-7.276-2.553-13.465-7.656-18.571
		C45.467,8.324,39.295,5.772,32.057,5.772z M40.629,24.057v13.085h-3.656v15.541h-9.943V37.143h-3.656V24.057
		c0-0.572,0.2-1.057,0.599-1.457c0.401-0.399,0.887-0.6,1.457-0.6h13.144c0.532,0,1.01,0.2,1.428,0.6
		C40.418,23,40.629,23.486,40.629,24.057z M27.542,15.829c0-3.008,1.485-4.514,4.458-4.514s4.457,1.504,4.457,4.514
		c0,2.971-1.486,4.457-4.457,4.457S27.542,18.8,27.542,15.829z"/>
</g>
</svg>
