<?xml version="1.0" encoding="utf-8"?>
<!-- Generator: Adobe Illustrator 16.0.0, SVG Export Plug-In . SVG Version: 6.00 Build 0)  -->
<!DOCTYPE svg PUBLIC "-//W3C//DTD SVG 1.1//EN" "http://www.w3.org/Graphics/SVG/1.1/DTD/svg11.dtd">
<svg version="1.1" id="Layer_1" xmlns="http://www.w3.org/2000/svg" xmlns:xlink="http://www.w3.org/1999/xlink" x="0px" y="0px"
	 width="64px" height="64px" viewBox="0 0 64 64" enable-background="new 0 0 64 64" xml:space="preserve">
<g>
	<path d="M31.941,0c8.99,0,16.572,3.085,22.744,9.256C60.893,15.428,64,23.009,64,32c0,8.992-3.048,16.477-9.145,22.458
		C48.38,60.82,40.741,64,31.941,64c-8.686,0-16.189-3.162-22.512-9.484C3.144,48.229,0,40.725,0,32
		c0-8.762,3.144-16.343,9.429-22.743C15.6,3.086,23.104,0,31.941,0z M7.2,23.372C6.248,26,5.771,28.877,5.771,32.001
		c0,7.086,2.59,13.22,7.77,18.399c5.219,5.145,11.391,7.716,18.514,7.716c7.201,0,13.409-2.608,18.631-7.829
		c1.866-1.79,3.332-3.657,4.397-5.602l-12.056-5.371c-0.422,2.02-1.439,3.666-3.057,4.941c-1.623,1.276-3.535,2.012-5.744,2.2v4.915
		h-3.715v-4.915c-3.542-0.036-6.782-1.312-9.714-3.827l4.4-4.457c2.094,1.942,4.476,2.913,7.143,2.913
		c1.104,0,2.048-0.246,2.83-0.743c0.78-0.494,1.172-1.312,1.172-2.457c0-0.801-0.286-1.447-0.858-1.943L32.4,34.627l-3.771-1.715
		l-5.086-2.229L7.2,23.372z M32.057,5.714c-7.276,0-13.428,2.571-18.457,7.714c-1.258,1.258-2.439,2.687-3.543,4.287L22.286,23.2
		c0.533-1.676,1.542-3.019,3.029-4.028c1.484-1.009,3.218-1.571,5.201-1.686v-4.915h3.715v4.915c2.934,0.153,5.6,1.143,8,2.971
		l-4.172,4.286c-1.793-1.257-3.619-1.885-5.486-1.885c-0.991,0-1.877,0.191-2.656,0.571c-0.781,0.381-1.172,1.029-1.172,1.943
		c0,0.267,0.095,0.533,0.285,0.8l4.057,1.83l2.801,1.257l5.143,2.285l16.397,7.313c0.535-2.248,0.802-4.532,0.802-6.856
		c0-7.353-2.553-13.543-7.656-18.573C45.505,8.285,39.331,5.714,32.057,5.714z"/>
</g>
</svg>
