<?xml version="1.0" encoding="utf-8"?>
<!-- Generator: Adobe Illustrator 16.0.0, SVG Export Plug-In . SVG Version: 6.00 Build 0)  -->
<!DOCTYPE svg PUBLIC "-//W3C//DTD SVG 1.1//EN" "http://www.w3.org/Graphics/SVG/1.1/DTD/svg11.dtd">
<svg version="1.1" id="Layer_1" xmlns="http://www.w3.org/2000/svg" xmlns:xlink="http://www.w3.org/1999/xlink" x="0px" y="0px"
	 width="64px" height="64px" viewBox="0 0 64 64" enable-background="new 0 0 64 64" xml:space="preserve">
<g>
	<path d="M31.943,0c8.951,0,16.531,3.105,22.742,9.315C60.893,15.487,64,23.048,64,32c0,8.954-3.049,16.457-9.145,22.514
		C48.418,60.838,40.779,64,31.943,64c-8.649,0-16.153-3.143-22.514-9.43C3.144,48.286,0,40.764,0,32.001
		c0-8.723,3.144-16.285,9.429-22.685C15.638,3.105,23.143,0,31.943,0z M32.057,5.772c-7.276,0-13.428,2.572-18.457,7.715
		C8.38,18.783,5.771,24.954,5.771,32c0,7.125,2.59,13.257,7.77,18.4c5.181,5.182,11.352,7.771,18.514,7.771
		c7.123,0,13.334-2.608,18.629-7.828c5.029-4.876,7.543-10.989,7.543-18.343c0-7.313-2.553-13.485-7.656-18.513
		C45.504,8.342,39.332,5.772,32.057,5.772z M52.914,32.572l0.629,0.285v9.028l-0.572,0.284L45.2,45.484L44.857,45.6l-0.4-0.113
		l-16.743-6.914l-0.571-0.229l-8.286,3.429l-8.171-3.543V30l7.657-3.201l-0.057-0.057v-9.029l8.686-3.828l19.6,8.114v7.943
		L52.914,32.572z M43.828,43.084V37.43h-0.057V37.2l-14.687-6v5.83l14.687,6.058V43.03L43.828,43.084z M44.799,35.657l5.145-2.114
		l-4.743-2l-5.029,2.114L44.799,35.657z M51.543,40.572V35.03l-5.715,2.399v5.601L51.543,40.572z"/>
</g>
</svg>
