<?xml version="1.0" encoding="utf-8"?>
<!-- Generator: Adobe Illustrator 16.0.0, SVG Export Plug-In . SVG Version: 6.00 Build 0)  -->
<!DOCTYPE svg PUBLIC "-//W3C//DTD SVG 1.1//EN" "http://www.w3.org/Graphics/SVG/1.1/DTD/svg11.dtd">
<svg version="1.1" id="Layer_1" xmlns="http://www.w3.org/2000/svg" xmlns:xlink="http://www.w3.org/1999/xlink" x="0px" y="0px"
	 width="64px" height="64px" viewBox="0 0 64 64" enable-background="new 0 0 64 64" xml:space="preserve">
<path d="M31.942,0c8.951,0,16.572,3.125,22.857,9.372c3.008,3.009,5.295,6.448,6.855,10.314C63.217,23.553,64,27.658,64,32
	c0,4.38-0.773,8.486-2.314,12.312c-1.543,3.828-3.82,7.211-6.828,10.145c-3.123,3.084-6.666,5.447-10.629,7.086
	C40.268,63.18,36.172,64,31.944,64c-4.229,0-8.276-0.809-12.144-2.43c-3.866-1.617-7.333-3.961-10.4-7.027S4,48.02,2.4,44.172
	S0,36.268,0,32c0-4.229,0.809-8.295,2.428-12.2C4.047,15.896,6.4,12.4,9.485,9.314C15.581,3.106,23.065,0,31.942,0z M32.057,5.772
	c-7.313,0-13.467,2.553-18.458,7.657c-2.515,2.553-4.448,5.419-5.8,8.6c-1.354,3.181-2.029,6.505-2.029,9.972
	c0,3.429,0.675,6.733,2.029,9.913c1.353,3.184,3.285,6.021,5.8,8.516c2.514,2.496,5.351,4.4,8.515,5.715
	c3.161,1.314,6.476,1.973,9.943,1.973c3.427,0,6.75-0.666,9.972-2c3.221-1.334,6.121-3.258,8.715-5.771
	c4.988-4.875,7.482-10.99,7.482-18.343c0-3.543-0.646-6.895-1.941-10.057c-1.293-3.162-3.182-5.98-5.654-8.458
	C45.484,8.344,39.295,5.772,32.057,5.772z M31.657,26.688l-4.287,2.229c-0.458-0.951-1.019-1.619-1.685-2
	c-0.667-0.38-1.286-0.571-1.858-0.571c-2.856,0-4.286,1.885-4.286,5.657c0,1.714,0.362,3.083,1.085,4.113
	c0.724,1.029,1.791,1.545,3.201,1.545c1.867,0,3.181-0.916,3.943-2.744l3.942,2c-0.838,1.562-2,2.791-3.485,3.686
	c-1.484,0.896-3.124,1.344-4.915,1.344c-2.857,0-5.163-0.875-6.915-2.629c-1.752-1.752-2.628-4.189-2.628-7.313
	c0-3.048,0.886-5.466,2.657-7.257c1.771-1.79,4.009-2.686,6.715-2.686C27.104,22.059,29.942,23.602,31.657,26.688z M50.113,26.688
	l-4.229,2.229c-0.457-0.951-1.021-1.619-1.688-2c-0.668-0.38-1.307-0.571-1.912-0.571c-2.857,0-4.287,1.885-4.287,5.657
	c0,1.714,0.361,3.083,1.086,4.113c0.723,1.029,1.789,1.545,3.201,1.545c1.863,0,3.18-0.916,3.939-2.744l4,2
	c-0.875,1.562-2.057,2.791-3.541,3.686c-1.486,0.896-3.104,1.344-4.855,1.344c-2.896,0-5.209-0.875-6.941-2.629
	c-1.736-1.752-2.602-4.189-2.602-7.313c0-3.048,0.885-5.466,2.657-7.257c1.771-1.79,4.01-2.686,6.713-2.686
	C45.617,22.059,48.438,23.602,50.113,26.688z"/>
</svg>
