<?xml version="1.0" encoding="utf-8"?>
<!-- Generator: Adobe Illustrator 16.0.0, SVG Export Plug-In . SVG Version: 6.00 Build 0)  -->
<!DOCTYPE svg PUBLIC "-//W3C//DTD SVG 1.1//EN" "http://www.w3.org/Graphics/SVG/1.1/DTD/svg11.dtd">
<svg version="1.1" id="Layer_1" xmlns="http://www.w3.org/2000/svg" xmlns:xlink="http://www.w3.org/1999/xlink" x="0px" y="0px"
	 width="64px" height="64px" viewBox="0 0 64 64" enable-background="new 0 0 64 64" xml:space="preserve">
<g>
	<path d="M31.943,0c8.951,0,16.531,3.105,22.742,9.315C60.893,15.487,64,23.048,64,32c0,8.954-3.049,16.457-9.145,22.514
		C48.418,60.838,40.779,64,31.943,64c-8.649,0-16.153-3.143-22.514-9.43C3.144,48.286,0,40.764,0,32.001
		c0-8.723,3.144-16.285,9.429-22.685C15.638,3.105,23.143,0,31.943,0z M32.057,5.772c-7.276,0-13.428,2.572-18.457,7.715
		C8.38,18.783,5.771,24.954,5.771,32c0,7.125,2.59,13.257,7.77,18.4c5.181,5.182,11.352,7.771,18.514,7.771
		c7.123,0,13.334-2.608,18.629-7.828c5.029-4.876,7.543-10.989,7.543-18.343c0-7.313-2.553-13.485-7.656-18.513
		C45.504,8.342,39.332,5.772,32.057,5.772z M45.086,22.857c0.494,0,0.914,0.171,1.256,0.513c0.344,0.343,0.516,0.763,0.516,1.258
		V48.17c0,0.495-0.172,0.914-0.516,1.256C46,49.77,45.58,49.941,45.086,49.941H27.657c-0.496,0-0.914-0.17-1.258-0.516
		c-0.344-0.343-0.514-0.761-0.514-1.256v-6.973h-6.971c-0.497,0-0.915-0.17-1.258-0.514c-0.342-0.342-0.514-0.761-0.514-1.258
		v-23.54c0-0.458,0.151-0.848,0.458-1.171c0.303-0.323,0.685-0.523,1.142-0.6h0.171h17.428c0.494,0,0.914,0.171,1.259,0.514
		c0.342,0.342,0.514,0.763,0.514,1.258v6.972h6.973V22.857z M20.628,37.714h5.257V24.628c0-0.457,0.151-0.847,0.458-1.171
		c0.304-0.322,0.667-0.523,1.085-0.6h0.229h6.972v-5.2h-14V37.714z M43.371,26.342h-14V46.4h14V26.342z"/>
</g>
</svg>
