<?xml version="1.0" encoding="utf-8"?>
<!-- Generator: Adobe Illustrator 16.0.0, SVG Export Plug-In . SVG Version: 6.00 Build 0)  -->
<!DOCTYPE svg PUBLIC "-//W3C//DTD SVG 1.1//EN" "http://www.w3.org/Graphics/SVG/1.1/DTD/svg11.dtd">
<svg version="1.1" xmlns="http://www.w3.org/2000/svg" xmlns:xlink="http://www.w3.org/1999/xlink" x="0px" y="0px" width="64px"
	 height="64px" viewBox="0 0 64 64" enable-background="new 0 0 64 64" xml:space="preserve">
<g id="Layer_1">
	<path d="M31.942,0c8.951,0,16.572,3.125,22.857,9.372c3.008,3.009,5.295,6.448,6.855,10.314C63.217,23.553,64,27.658,64,32
		c0,4.38-0.773,8.486-2.314,12.312c-1.543,3.828-3.82,7.211-6.828,10.145c-3.123,3.084-6.666,5.447-10.629,7.086
		C40.268,63.18,36.172,64,31.944,64c-4.229,0-8.276-0.809-12.144-2.43c-3.866-1.617-7.333-3.961-10.4-7.027S4,48.02,2.4,44.172
		S0,36.268,0,32c0-4.229,0.809-8.295,2.428-12.2C4.047,15.896,6.4,12.4,9.485,9.314C15.581,3.106,23.065,0,31.942,0z M32.057,5.772
		c-7.313,0-13.467,2.553-18.458,7.657c-2.515,2.553-4.448,5.419-5.8,8.6c-1.354,3.181-2.029,6.505-2.029,9.972
		c0,3.429,0.675,6.733,2.029,9.913c1.353,3.184,3.285,6.021,5.8,8.516c2.514,2.496,5.351,4.4,8.515,5.715
		c3.161,1.314,6.476,1.973,9.943,1.973c3.427,0,6.75-0.666,9.972-2c3.221-1.334,6.121-3.258,8.715-5.771
		c4.988-4.875,7.482-10.99,7.482-18.343c0-3.543-0.646-6.895-1.941-10.057c-1.293-3.162-3.182-5.98-5.654-8.458
		C45.484,8.344,39.295,5.772,32.057,5.772z"/>
</g>
<g id="Layer_2">
	<path d="M47.363,22.61l-7.87,4.09c-0.837-1.746-1.869-2.972-3.091-3.671c-1.225-0.695-2.359-1.046-3.411-1.046
		c-5.239,0-7.863,3.458-7.863,10.381c0,3.147,0.663,5.66,1.989,7.548c1.33,1.89,3.287,2.836,5.874,2.836
		c3.427,0,5.839-1.682,7.238-5.036l7.236,3.67c-1.538,2.868-3.67,5.122-6.398,6.765c-2.724,1.646-5.73,2.466-9.018,2.466
		c-5.245,0-9.476-1.606-12.691-4.824c-3.215-3.216-4.823-7.689-4.823-13.421c0-5.595,1.625-10.033,4.875-13.32
		c3.251-3.284,7.359-4.929,12.325-4.929C39.007,14.114,44.216,16.946,47.363,22.61z"/>
</g>
</svg>
