<?xml version="1.0" encoding="utf-8"?>
<!-- Generator: Adobe Illustrator 16.0.0, SVG Export Plug-In . SVG Version: 6.00 Build 0)  -->
<!DOCTYPE svg PUBLIC "-//W3C//DTD SVG 1.1//EN" "http://www.w3.org/Graphics/SVG/1.1/DTD/svg11.dtd">
<svg version="1.1" id="Layer_1" xmlns="http://www.w3.org/2000/svg" xmlns:xlink="http://www.w3.org/1999/xlink" x="0px" y="0px"
	 width="64px" height="64px" viewBox="0 0 64 64" enable-background="new 0 0 64 64" xml:space="preserve">
<g>
	<path d="M31.944,0c8.953,0,16.533,3.105,22.744,9.314C60.895,15.486,64,23.046,64,32s-3.049,16.457-9.145,22.514
		C48.418,60.838,40.78,64,31.943,64c-8.649,0-16.153-3.143-22.514-9.43C3.144,48.286,0,40.762,0,32.001
		c0-8.724,3.144-16.285,9.429-22.685C15.64,3.105,23.145,0,31.944,0z M32.061,5.771c-7.275,0-13.43,2.57-18.458,7.715
		C8.382,18.783,5.773,24.954,5.773,32c0,7.125,2.59,13.257,7.77,18.4c5.181,5.182,11.352,7.771,18.516,7.771
		c7.124,0,13.333-2.608,18.627-7.828c5.027-4.876,7.543-10.989,7.543-18.343c0-7.312-2.555-13.484-7.656-18.514
		C45.504,8.342,39.334,5.771,32.061,5.771z M44.118,24.456v5.485H20.86v-5.485H44.118z M44.118,34.743v5.481H20.86v-5.481H44.118z"
		/>
</g>
</svg>
