<?xml version="1.0" encoding="utf-8"?>
<!-- Generator: Adobe Illustrator 16.0.0, SVG Export Plug-In . SVG Version: 6.00 Build 0)  -->
<!DOCTYPE svg PUBLIC "-//W3C//DTD SVG 1.1//EN" "http://www.w3.org/Graphics/SVG/1.1/DTD/svg11.dtd">
<svg version="1.1" id="Layer_1" xmlns="http://www.w3.org/2000/svg" xmlns:xlink="http://www.w3.org/1999/xlink" x="0px" y="0px"
	 width="612px" height="612px" viewBox="0 0.25 612 612" enable-background="new 0 0.25 612 612" xml:space="preserve">
<path d="M430.5,123.801l-226.985,76.413l-1.558,235.747c-7.447-0.917-15.615-0.699-24.177,0.863
	c-34.619,6.359-62.65,31.921-62.65,57.113c0,25.141,28.008,40.434,62.65,34.123c34.547-6.338,62.56-31.893,62.56-57.061
	c0-0.917-0.304-1.731-0.376-2.648V270.069l152.481-51.42V369.52c-7.578-0.989-15.862-0.792-24.626,0.792
	c-34.614,6.355-62.654,31.92-62.654,57.108c0,25.14,28.012,40.433,62.654,34.127c33.805-6.185,61.146-30.811,62.332-55.457h0.301
	L430.5,123.801z"/>
</svg>
