<?xml version="1.0" encoding="utf-8"?>
<!-- Generator: Adobe Illustrator 16.0.0, SVG Export Plug-In . SVG Version: 6.00 Build 0)  -->
<!DOCTYPE svg PUBLIC "-//W3C//DTD SVG 1.1//EN" "http://www.w3.org/Graphics/SVG/1.1/DTD/svg11.dtd">
<svg version="1.1" xmlns="http://www.w3.org/2000/svg" xmlns:xlink="http://www.w3.org/1999/xlink" x="0px" y="0px" width="512px"
	 height="512px" viewBox="0 0 512 512" enable-background="new 0 0 512 512" xml:space="preserve">
<g id="Layer_2" display="none">
	<rect x="-13.5" y="-35.5" display="inline" fill="#FF0000" width="556" height="598"/>
</g>
<g id="Layer_1" display="none">
	<path display="inline" fill="none" d="M253.921,466.562c-69.508,0-139.018-0.03-208.525,0.089
		c-3.439,0.006-4.449-0.429-4.444-4.244c0.133-138.841,0.127-277.679,0.021-416.519c-0.002-3.422,0.905-4.013,4.113-4.011
		c139.193,0.087,278.387,0.085,417.579,0.009c3.1-0.002,4.172,0.419,4.167,3.956c-0.115,139.016-0.112,278.033-0.003,417.048
		c0.003,3.287-0.81,3.753-3.854,3.749C393.29,466.539,323.606,466.562,253.921,466.562z M249.069,360.014
		c0.017,11.514,1.8,22.479,7.906,32.51c7.74,12.709,13.247,14.983,27.146,9.931c16.873-6.134,30.763-17.065,44.327-28.418
		c3.696-3.095,7.206-6.142,12.629-5.226c6.409,1.084,12.574,3.043,18.825,4.707c2.153,0.572,2.772,2.06,3.631,3.981
		c1.651,3.698,0.625,7.735,2.126,11.364c3.613,8.738,13.856,13.549,22.745,10.635c7.937-2.604,14.014-12.38,12.44-20.014
		c-2.131-10.346-10.786-17.168-20.622-15.433c-4.269,0.755-5.772-1.489-6.54-4.306c-1.846-6.764-3.168-13.672-4.616-20.539
		c-0.498-2.357,0.13-4.367,1.784-6.333c4.404-5.233,8.726-10.558,12.772-16.069c8.368-11.394,16.314-23.031,20.556-36.775
		c2.659-8.619,1.322-14.274-5.479-19.732c-15.353-12.322-33.026-13.878-51.552-10.604c-13.348,2.36-25.67,7.597-37.114,14.79
		c-3.282,2.062-5.103,1.554-6.365-1.978c-1.226-3.419-3.576-6.032-6.13-8.523c-4.433-4.323-8.704-8.812-13.212-13.052
		c-2.582-2.43-2.578-4.508,0.261-6.442c2.626-1.788,4.142-7.397,8.811-2.842c3.543,3.459,7.28,6.763,10.482,10.519
		c3.188,3.739,5.348,3.486,8.775,0.024c25.63-25.879,51.479-51.541,77.226-77.303c23.873-23.886,47.694-47.822,71.57-71.707
		c2.144-2.143,3.997-3.778,0.86-6.861c-13.877-13.638-27.605-27.429-41.282-41.269c-2.299-2.328-3.808-2.232-6.038,0.081
		c-7.729,8.016-15.617,15.875-23.481,23.758c-25.467,25.524-50.95,51.032-76.427,76.548c-16.608,16.635-33.159,33.328-49.87,49.86
		c-3.009,2.976-3.584,5.134-0.091,8.09c3.229,2.733,5.884,6.146,9.1,8.896c4.248,3.633,1.986,6.097-0.783,9.147
		c-3.08,3.396-5.264,3.498-8.575,0.075c-11.189-11.569-22.651-22.876-34.085-34.207c-5.459-5.411-11.965-6.958-19.473-5.092
		c-8.76,2.178-16.022,6.793-21.419,13.806c-9.765,12.69-13.274,26.548,1.534,39.723c10.553,9.39,19.938,20.081,30.213,29.801
		c3.919,3.708,2.063,5.744-0.602,8.572c-2.859,3.035-5.378,4.373-8.714,0.596c-2.922-3.309-6.362-6.162-9.244-9.503
		c-2.689-3.117-4.648-3.21-7.625-0.146c-10.967,11.286-22.188,22.326-33.311,33.462c-38.612,38.656-77.186,77.353-115.9,115.907
		c-3.263,3.25-3.445,5.104-0.029,8.413c12.828,12.431,25.33,25.196,37.966,37.824c5.163,5.159,5.167,5.136,10.308-0.031
		c27.059-27.198,53.846-54.674,81.293-81.47c14.653-14.306,28.521-29.417,44.078-42.822c8.932-7.694,16.502-16.821,24.343-25.633
		c1.877-2.108,0.812-3.425-0.683-4.908c-3.643-3.612-7.168-7.347-10.91-10.853c-3.032-2.84-3.489-5.217-0.22-8.385
		c5.003-4.854,4.947-4.924,10.073-0.123c6.036,5.65,10.805,12.729,18.354,16.683c6.195,3.243,6.089,3.085,2.507,9.442
		C255.011,327.307,249.468,342.911,249.069,360.014z"/>
</g>
<g id="Layer_3">
	<path d="M250.362,380.55c0.471-20.175,7.01-38.583,16.806-55.976c4.226-7.499,4.352-7.312-2.957-11.139
		c-8.904-4.663-14.53-13.013-21.65-19.68c-6.047-5.663-5.981-5.579-11.883,0.146c-3.857,3.737-3.318,6.541,0.259,9.891
		c4.413,4.136,8.573,8.541,12.87,12.803c1.765,1.75,3.019,3.303,0.805,5.79c-9.25,10.395-18.18,21.161-28.716,30.237
		c-18.351,15.813-34.711,33.642-51.997,50.516c-32.379,31.609-63.977,64.02-95.897,96.105c-6.063,6.095-6.069,6.123-12.159,0.037
		c-14.906-14.897-29.654-29.957-44.787-44.62c-4.031-3.905-3.814-6.09,0.035-9.924c45.67-45.482,91.173-91.129,136.722-136.73
		c13.12-13.136,26.358-26.159,39.296-39.473c3.511-3.613,5.821-3.505,8.995,0.173c3.398,3.94,7.457,7.307,10.903,11.21
		c3.936,4.456,6.906,2.878,10.281-0.703c3.143-3.336,5.333-5.738,0.708-10.112c-12.122-11.467-23.192-24.078-35.641-35.155
		c-17.469-15.542-13.328-31.889-1.81-46.859c6.366-8.272,14.934-13.717,25.267-16.286c8.856-2.202,16.531-0.375,22.971,6.006
		c13.488,13.367,27.008,26.705,40.208,40.353c3.907,4.038,6.482,3.917,10.115-0.089c3.269-3.6,5.936-6.505,0.924-10.791
		c-3.793-3.244-6.924-7.27-10.734-10.494c-4.12-3.487-3.441-6.033,0.107-9.543c19.713-19.501,39.237-39.195,58.83-58.817
		c30.053-30.1,60.115-60.19,90.156-90.3c9.276-9.298,18.584-18.57,27.699-28.026c2.632-2.727,4.411-2.84,7.123-0.096
		c16.134,16.326,32.329,32.594,48.698,48.683c3.7,3.637,1.513,5.566-1.015,8.094c-28.165,28.175-56.266,56.411-84.428,84.589
		c-30.372,30.39-60.864,60.663-91.099,91.19c-4.045,4.084-6.592,4.382-10.353-0.028c-3.777-4.431-8.186-8.328-12.365-12.409
		c-5.508-5.374-7.296,1.244-10.394,3.353c-3.349,2.281-3.354,4.733-0.308,7.6c5.317,5.002,10.356,10.297,15.586,15.396
		c3.012,2.938,5.785,6.021,7.23,10.054c1.491,4.164,3.637,4.766,7.509,2.333c13.501-8.484,28.038-14.663,43.782-17.447
		c21.853-3.863,42.702-2.027,60.812,12.509c8.022,6.438,9.6,13.109,6.463,23.277c-5.002,16.213-14.377,29.942-24.248,43.382
		c-4.775,6.502-9.872,12.782-15.067,18.956c-1.951,2.319-2.692,4.689-2.104,7.471c1.708,8.101,3.27,16.25,5.445,24.229
		c0.905,3.322,2.68,5.97,7.715,5.079c11.604-2.047,21.813,6.001,24.327,18.205c1.854,9.006-5.314,20.538-14.676,23.609
		c-10.485,3.438-22.568-2.237-26.831-12.544c-1.771-4.282-0.56-9.044-2.508-13.407c-1.012-2.269-1.743-4.021-4.283-4.696
		c-7.374-1.963-14.646-4.274-22.207-5.553c-6.397-1.081-10.537,2.514-14.897,6.164c-16.002,13.393-32.387,26.288-52.291,33.523
		c-16.394,5.962-22.89,3.277-32.021-11.715C252.485,407.065,250.379,394.132,250.362,380.55z"/>
</g>
</svg>
