<?xml version="1.0" encoding="utf-8"?>
<!-- Generator: Adobe Illustrator 16.0.0, SVG Export Plug-In . SVG Version: 6.00 Build 0)  -->
<!DOCTYPE svg PUBLIC "-//W3C//DTD SVG 1.1//EN" "http://www.w3.org/Graphics/SVG/1.1/DTD/svg11.dtd">
<svg version="1.1" xmlns="http://www.w3.org/2000/svg" xmlns:xlink="http://www.w3.org/1999/xlink" x="0px" y="0px" width="64px"
	 height="64px" viewBox="0 0 64 64" enable-background="new 0 0 64 64" xml:space="preserve">
<g id="Layer_1">
	<path fill="#231F20" d="M2.149,11.13v42.781c0,1.028,0.38,1.911,1.141,2.649c0.759,0.736,1.653,1.106,2.682,1.106h52.773
		c1.027,0,1.91-0.37,2.648-1.106c0.737-0.738,1.106-1.621,1.106-2.649V11.13c0-1.028-0.369-1.912-1.106-2.648
		c-0.738-0.738-1.621-1.107-2.648-1.107H5.972c-1.029,0-1.923,0.369-2.682,1.107C2.53,9.218,2.149,10.102,2.149,11.13z
		 M7.179,12.404h50.292v40.234H7.179V12.404z"/>
</g>
<g id="Layer_2">
	<rect x="46.664" y="19.867" fill="#231F20" width="7.1" height="7.097"/>
	<rect x="46.664" y="29.117" fill="#231F20" width="7.1" height="7.098"/>
	<rect x="37.61" y="19.867" fill="#231F20" width="7.101" height="7.097"/>
	<rect x="37.61" y="29.117" fill="#231F20" width="7.101" height="7.098"/>
	<rect x="37.61" y="38.369" fill="#231F20" width="7.101" height="7.098"/>
	<rect x="28.559" y="19.867" fill="#231F20" width="7.099" height="7.097"/>
	<rect x="28.559" y="29.117" fill="#231F20" width="7.099" height="7.098"/>
	<rect x="28.559" y="38.369" fill="#231F20" width="7.099" height="7.098"/>
	<rect x="19.506" y="29.117" fill="#231F20" width="7.099" height="7.098"/>
	<rect x="19.506" y="38.369" fill="#231F20" width="7.099" height="7.098"/>
	<rect x="10.455" y="29.117" fill="#231F20" width="7.098" height="7.098"/>
	<rect x="10.455" y="38.369" fill="#231F20" width="7.098" height="7.098"/>
</g>
</svg>
