<?xml version="1.0" encoding="utf-8"?>
<!-- Generator: Adobe Illustrator 15.0.0, SVG Export Plug-In . SVG Version: 6.00 Build 0)  -->
<!DOCTYPE svg PUBLIC "-//W3C//DTD SVG 1.1//EN" "http://www.w3.org/Graphics/SVG/1.1/DTD/svg11.dtd">
<svg version="1.1" id="Layer_1" xmlns="http://www.w3.org/2000/svg" xmlns:xlink="http://www.w3.org/1999/xlink" x="0px" y="0px"
	 width="512px" height="512px" viewBox="0 0 512 512" enable-background="new 0 0 512 512" xml:space="preserve">
<path d="M426.686,0H85.344C38.407,0,0.001,38.403,0.001,85.34v341.314C0.001,473.623,38.407,512,85.344,512h341.342
	C473.625,512,512,473.623,512,426.654V85.341C512,38.403,473.623,0,426.686,0z M35.979,327.119c-0.145,1.037-0.893,1.76-1.81,1.76
	c-0.947,0-1.699-0.727-1.82-1.771l-3.318-24.781l3.318-25.213c0.122-1.047,0.873-1.777,1.82-1.777c0.914,0,1.67,0.73,1.81,1.771
	l3.937,25.219L35.979,327.119z M62.8,342.203c-0.156,1.078-0.934,1.83-1.883,1.83c-0.968,0-1.764-0.771-1.89-1.842l-4.463-39.865
	c0,0,4.463-40.758,4.463-40.77c0.131-1.059,0.929-1.83,1.89-1.83c0.957,0,1.732,0.746,1.89,1.83l5.07,40.77L62.8,342.203z
	 M89.43,350.422c-0.123,1.492-1.271,2.615-2.662,2.615c-1.406,0-2.559-1.123-2.667-2.615l-4.001-48.08l4.001-49.695
	c0.114-1.5,1.26-2.624,2.667-2.624c1.391,0,2.539,1.124,2.662,2.612l4.549,49.707L89.43,350.422z M115.507,350.824
	c-0.119,1.705-1.429,2.998-3.045,2.998c-1.64,0-2.942-1.293-3.052-3.006l-3.771-48.477l3.771-46.1
	c0.104-1.713,1.412-3.007,3.052-3.007c1.622,0,2.931,1.283,3.045,2.987l4.288,46.12L115.507,350.824z M141.595,350.838v-0.014
	c-0.107,1.895-1.615,3.395-3.438,3.395c-1.831,0-3.339-1.492-3.431-3.387l-3.556-48.473l3.556-75.003
	c0.088-1.905,1.6-3.404,3.431-3.404c1.822,0,3.33,1.5,3.438,3.404l4.018,75.003L141.595,350.838z M167.677,350.527
	c-0.096,2.121-1.781,3.789-3.822,3.789c-2.059,0-3.738-1.668-3.821-3.771l-3.324-48.17c0,0,3.317-92.157,3.317-92.163
	c0.09-2.122,1.771-3.786,3.828-3.786c2.042,0,3.721,1.661,3.822,3.786l3.751,92.163L167.677,350.527z M194.298,349.746v0.006
	c-0.083,2.551-2.096,4.559-4.596,4.559c-2.504,0-4.523-2.008-4.593-4.547l-2.865-47.377l2.86-103.22
	c0.067-2.567,2.09-4.575,4.598-4.575c2.495,0,4.518,2.014,4.596,4.575l3.22,103.222L194.298,349.746z M220.932,349.041v-0.037
	c-0.069,3.008-2.421,5.352-5.371,5.352c-2.958,0-5.321-2.352-5.379-5.318l-2.402-46.631l2.402-96.913
	c0.059-3.005,2.427-5.354,5.379-5.354c2.949,0,5.302,2.35,5.371,5.346l2.694,96.923L220.932,349.041z M248.137,348.084v-0.055
	c-0.048,3.387-2.802,6.135-6.146,6.135c-3.353,0-6.105-2.748-6.149-6.084l-2.524-45.65l2.519-125.783
	c0.05-3.383,2.804-6.135,6.155-6.135c3.346,0,6.099,2.752,6.146,6.125l2.739,125.792L248.137,348.084z M427.137,354.572
	c-0.996,0-154.629-0.076-154.771-0.094c-3.336-0.336-5.984-3.184-6.029-6.598V170.667c0.041-3.256,1.162-4.936,5.377-6.566
	c10.84-4.192,23.119-6.672,35.715-6.672c51.475,0,93.674,39.477,98.117,89.797c6.646-2.787,13.945-4.335,21.598-4.335
	c30.832,0,55.828,25.006,55.828,55.844C482.971,329.574,457.969,354.572,427.137,354.572z"/>
</svg>
