<?xml version="1.0" encoding="utf-8"?>
<!-- Generator: Adobe Illustrator 16.2.1, SVG Export Plug-In . SVG Version: 6.00 Build 0)  -->
<!DOCTYPE svg PUBLIC "-//W3C//DTD SVG 1.1 Tiny//EN" "http://www.w3.org/Graphics/SVG/1.1/DTD/svg11-tiny.dtd">
<svg version="1.1" baseProfile="tiny" id="Layer_1" xmlns="http://www.w3.org/2000/svg" xmlns:xlink="http://www.w3.org/1999/xlink"
	 x="0px" y="0px" width="50px" height="50px" viewBox="0 0 50 50" xml:space="preserve">
<path d="M24.052,7.859l-7.939,9.51c0,0,6.986-1.459,6.626,0.337s-8.181,10.119-5.667,8.969c2.514-1.149,5.679,0.211,4.314,3.803
	s-3.23,8.473-1.865,7.252s4.599-1.206,4.599-1.206L24.408,42H27l0.354-5.638c0,0,3.327-0.204,5.46,1.796
	c2.299,2.155-5.676-8.334-3.88-10.13s2.388-2.764,4.239-1.221c1.293,1.077-7.4-7.543-5.245-8.836s3.781-1.365,4.67-1.365
	C33.675,16.606,24.052,7.859,24.052,7.859z"/>
<g>
</g>
<g>
</g>
<g>
</g>
<g>
</g>
<g>
</g>
<g>
</g>
<g>
</g>
<g>
</g>
<g>
</g>
<g>
</g>
<g>
</g>
<g>
</g>
<g>
</g>
<g>
</g>
<g>
</g>
</svg>
