<?xml version="1.0" encoding="UTF-8" standalone="no"?>
<svg
   xmlns:dc="http://purl.org/dc/elements/1.1/"
   xmlns:cc="http://creativecommons.org/ns#"
   xmlns:rdf="http://www.w3.org/1999/02/22-rdf-syntax-ns#"
   xmlns:svg="http://www.w3.org/2000/svg"
   xmlns="http://www.w3.org/2000/svg"
   xmlns:sodipodi="http://sodipodi.sourceforge.net/DTD/sodipodi-0.dtd"
   xmlns:inkscape="http://www.inkscape.org/namespaces/inkscape"
   viewBox="0 -256 1850 1850"
   id="svg3013"
   version="1.1"
   inkscape:version="0.48.3.1 r9886"
   width="100%"
   height="100%"
   sodipodi:docname="barcode_font_awesome.svg">
  <metadata
     id="metadata3023">
    <rdf:RDF>
      <cc:Work
         rdf:about="">
        <dc:format>image/svg+xml</dc:format>
        <dc:type
           rdf:resource="http://purl.org/dc/dcmitype/StillImage" />
      </cc:Work>
    </rdf:RDF>
  </metadata>
  <defs
     id="defs3021" />
  <sodipodi:namedview
     pagecolor="#ffffff"
     bordercolor="#666666"
     borderopacity="1"
     objecttolerance="10"
     gridtolerance="10"
     guidetolerance="10"
     inkscape:pageopacity="0"
     inkscape:pageshadow="2"
     inkscape:window-width="640"
     inkscape:window-height="480"
     id="namedview3019"
     showgrid="false"
     inkscape:zoom="0.13169643"
     inkscape:cx="896"
     inkscape:cy="896"
     inkscape:window-x="0"
     inkscape:window-y="25"
     inkscape:window-maximized="0"
     inkscape:current-layer="svg3013" />
  <g
     transform="matrix(1,0,0,-1,37.966102,1313.0508)"
     id="g3015">
    <path
       d="M 672,1408 V -128 h -64 v 1536 h 64 z m 736,0 V -128 h -64 v 1536 h 64 z m 160,0 V -128 h -64 v 1536 h 64 z m -992,0 V -128 h -64 v 1536 h 64 z m 704,0 V -128 h -256 v 1536 h 256 z m -384,0 V -128 H 768 v 1536 h 128 z m -448,0 V -128 H 320 v 1536 h 128 z m 1344,0 V -128 h -128 v 1536 h 128 z m -1536,0 V -128 H 0 v 1536 h 256 z"
       id="path3017"
       inkscape:connector-curvature="0"
       style="fill:currentColor" />
  </g>
</svg>
