<?xml version="1.0" encoding="utf-8"?>

<!DOCTYPE svg PUBLIC "-//W3C//DTD SVG 1.1//EN" "http://www.w3.org/Graphics/SVG/1.1/DTD/svg11.dtd" [
	<!ENTITY ns_extend "http://ns.adobe.com/Extensibility/1.0/">
	<!ENTITY ns_ai "http://ns.adobe.com/AdobeIllustrator/10.0/">
	<!ENTITY ns_graphs "http://ns.adobe.com/Graphs/1.0/">
	<!ENTITY ns_vars "http://ns.adobe.com/Variables/1.0/">
	<!ENTITY ns_imrep "http://ns.adobe.com/ImageReplacement/1.0/">
	<!ENTITY ns_sfw "http://ns.adobe.com/SaveForWeb/1.0/">
	<!ENTITY ns_custom "http://ns.adobe.com/GenericCustomNamespace/1.0/">
	<!ENTITY ns_adobe_xpath "http://ns.adobe.com/XPath/1.0/">
]>
<svg version="1.1" id="Layer_1" xmlns:x="&ns_extend;" xmlns:i="&ns_ai;" xmlns:graph="&ns_graphs;"
	 xmlns="http://www.w3.org/2000/svg" xmlns:xlink="http://www.w3.org/1999/xlink" x="0px" y="0px" width="1024px" height="1024px"
	 viewBox="0 0 1024 1024" enable-background="new 0 0 1024 1024" xml:space="preserve">
	<g i:extraneous="self">
		<g>
			<path 
				fill="#231F20" 
				d="M0 56v549q0 23 16.5 39.5t39.5 16.5h36v-69q0 -28 19.5 -47.5t47.5 -19.5h15q28 0 48 19.5t20 47.5v69h58v-69q0 -28 19.5 -47.5t47.5 -19.5h16q28 0 47.5 19.5t19.5 47.5v69h58v-69q0 -28 20 -47.5t48 -19.5h15q28 0 47.5 19.5t19.5 47.5v69h36q23 0 39.5 -16.5 t16.5 -39.5v-549q0 -23 -16.5 -39.5t-39.5 -16.5h-638q-23 0 -39.5 16.5t-16.5 39.5zM75 75h600v398h-600v-398zM129 592v128q0 12 9 21t21 9h15q13 0 21.5 -9t8.5 -21v-128q0 -12 -8.5 -20.5t-21.5 -8.5h-15q-12 0 -21 8.5t-9 20.5zM177 158q0 36 20 58.5t43.5 39t43.5 32 t20 36.5q0 20 -11.5 29t-28.5 9q-11 0 -20.5 -4.5t-16.5 -11.5q-4 -4 -7 -8t-6 -9l-34 23q7 14 20 27q11 11 27.5 19t40.5 8q35 0 61 -20.5t26 -58.5q0 -21 -9 -36.5t-23 -28t-30 -22.5t-30 -20t-23.5 -21t-9.5 -25h92v34h42v-73h-185q-1 6 -1.5 12t-0.5 11zM338 592v128 q0 12 8.5 21t20.5 9h16q12 0 21 -9t9 -21v-128q0 -12 -9 -20.5t-21 -8.5h-16q-12 0 -20.5 8.5t-8.5 20.5zM397 330v71h187v-34l-117 -232h-51l107 212q3 8 6 11l3 4v1q-3 0 -5 -1h-13h-75v-32h-42zM546 592v128q0 12 8.5 21t21.5 9h15q12 0 21 -9t9 -21v-128q0 -12 -9 -20.5 t-21 -8.5h-15q-13 0 -21.5 8.5t-8.5 20.5z"/>

		</g>
	</g>

</svg>

