<?xml version="1.0" encoding="utf-8"?>

<!DOCTYPE svg PUBLIC "-//W3C//DTD SVG 1.1//EN" "http://www.w3.org/Graphics/SVG/1.1/DTD/svg11.dtd" [
	<!ENTITY ns_extend "http://ns.adobe.com/Extensibility/1.0/">
	<!ENTITY ns_ai "http://ns.adobe.com/AdobeIllustrator/10.0/">
	<!ENTITY ns_graphs "http://ns.adobe.com/Graphs/1.0/">
	<!ENTITY ns_vars "http://ns.adobe.com/Variables/1.0/">
	<!ENTITY ns_imrep "http://ns.adobe.com/ImageReplacement/1.0/">
	<!ENTITY ns_sfw "http://ns.adobe.com/SaveForWeb/1.0/">
	<!ENTITY ns_custom "http://ns.adobe.com/GenericCustomNamespace/1.0/">
	<!ENTITY ns_adobe_xpath "http://ns.adobe.com/XPath/1.0/">
]>
<svg version="1.1" id="Layer_1" xmlns:x="&ns_extend;" xmlns:i="&ns_ai;" xmlns:graph="&ns_graphs;"
	 xmlns="http://www.w3.org/2000/svg" xmlns:xlink="http://www.w3.org/1999/xlink" x="0px" y="0px" width="1024px" height="1024px"
	 viewBox="0 0 1024 1024" enable-background="new 0 0 1024 1024" xml:space="preserve">
	<g i:extraneous="self">
		<g>
			<path 
				fill="#231F20" 
				d="M0 56v638q0 23 16.5 39.5t39.5 16.5h788q23 0 39.5 -16.5t16.5 -39.5v-638q0 -23 -16.5 -39.5t-39.5 -16.5h-788q-23 0 -39.5 16.5t-16.5 39.5zM75 78h750v56h-750v-56zM75 559h750v113h-467l-7 -45h-276v-68zM130 655h154v45h-154v-45zM272 346q0 -37 14 -69.5t38 -56.5 t56.5 -38t69.5 -14t69.5 14t56.5 38t38 56.5t14 69.5t-14 69.5t-38 56.5t-56.5 38t-69.5 14t-69.5 -14t-56.5 -38t-38 -56.5t-14 -69.5zM328 346q0 25 9.5 47.5t26 39t39 26t47.5 9.5t47.5 -9.5t39 -26t26 -39t9.5 -47.5t-9.5 -47.5t-26 -39t-39 -26t-47.5 -9.5t-47.5 9.5 t-39 26t-26 39t-9.5 47.5zM363 346q0 -8 6 -14t14 -6q9 0 15 6t6 14q0 20 13.5 33t32.5 13v1q9 0 15 6t6 14q0 9 -6 15t-15 6q-36 0 -61.5 -26t-25.5 -62z"/>

		</g>
	</g>

</svg>

