<?xml version="1.0" encoding="utf-8"?>

<!DOCTYPE svg PUBLIC "-//W3C//DTD SVG 1.1//EN" "http://www.w3.org/Graphics/SVG/1.1/DTD/svg11.dtd" [
	<!ENTITY ns_extend "http://ns.adobe.com/Extensibility/1.0/">
	<!ENTITY ns_ai "http://ns.adobe.com/AdobeIllustrator/10.0/">
	<!ENTITY ns_graphs "http://ns.adobe.com/Graphs/1.0/">
	<!ENTITY ns_vars "http://ns.adobe.com/Variables/1.0/">
	<!ENTITY ns_imrep "http://ns.adobe.com/ImageReplacement/1.0/">
	<!ENTITY ns_sfw "http://ns.adobe.com/SaveForWeb/1.0/">
	<!ENTITY ns_custom "http://ns.adobe.com/GenericCustomNamespace/1.0/">
	<!ENTITY ns_adobe_xpath "http://ns.adobe.com/XPath/1.0/">
]>
<svg version="1.1" id="Layer_1" xmlns:x="&ns_extend;" xmlns:i="&ns_ai;" xmlns:graph="&ns_graphs;"
	 xmlns="http://www.w3.org/2000/svg" xmlns:xlink="http://www.w3.org/1999/xlink" x="0px" y="0px" width="1024px" height="1024px"
	 viewBox="0 0 1024 1024" enable-background="new 0 0 1024 1024" xml:space="preserve">
	<g i:extraneous="self">
		<g>
			<path 
				fill="#231F20" 
				d="M0 320v111q0 7 7 9q19 5 39.5 8t40.5 5q4 0 8 0.5t9 1.5q5 14 10.5 27.5t12.5 27.5q-12 17 -26.5 36.5t-30.5 37.5q-5 5 0 12q19 23 40 44t44 40q5 5 12 0q11 -11 22.5 -20t23.5 -17q7 -5 14 -10.5t14 -10.5q26 14 55 23q3 28 6 51.5t8 45.5q2 8 9 8h111q9 0 9 -8 q4 -19 6.5 -38t5.5 -39l3 -20q14 -5 27.5 -10t26.5 -13q7 5 13 9.5t12 9.5q13 10 26 19t25 20q6 6 12 -1l11 -11q5 -5 11 -10q15 -14 30 -29.5t29 -32.5q4 -6 0 -12q-13 -15 -26 -32.5t-30 -40.5q15 -29 24 -58q12 -3 24.5 -4.5t25.5 -3.5q11 -2 23.5 -3.5t23.5 -3.5 q7 -2 7 -9v-111q0 -7 -7 -9q-18 -5 -38 -7.5t-40 -4.5q-5 -1 -9.5 -1.5t-9.5 -1.5q-5 -14 -10.5 -27.5t-12.5 -27.5q12 -17 26.5 -36.5t30.5 -37.5q5 -5 0 -12q-38 -47 -84 -84q-5 -5 -12 0q-11 11 -22.5 20t-23.5 17q-7 5 -14 10.5t-14 10.5q-26 -14 -55 -23 q-2 -23 -5.5 -48t-9.5 -49q-2 -8 -9 -8h-111q-7 0 -9 8q-3 19 -5.5 38t-5.5 39l-3 20q-14 5 -27.5 10t-26.5 13q-6 -5 -12.5 -9.5t-12.5 -9.5q-26 -18 -51 -39q-6 -6 -12 1q-5 5 -11 10.5t-11 10.5q-15 14 -30 29.5t-29 32.5q-5 6 0 12q15 18 29 37t27 36q-15 29 -24 58 q-12 3 -24.5 4.5t-24.5 3.5t-24.5 3.5t-23.5 3.5q-7 2 -7 9zM261 375q0 -24 9 -44.5t24.5 -35.5t36 -24t43.5 -9t43.5 9t35.5 24t24 35.5t9 44.5q0 23 -9 43.5t-24 35.5t-35.5 24t-43.5 9t-43.5 -9t-36 -24t-24.5 -35.5t-9 -43.5z"/>

		</g>
	</g>

</svg>

