<?xml version="1.0" encoding="utf-8"?>

<!DOCTYPE svg PUBLIC "-//W3C//DTD SVG 1.1//EN" "http://www.w3.org/Graphics/SVG/1.1/DTD/svg11.dtd" [
	<!ENTITY ns_extend "http://ns.adobe.com/Extensibility/1.0/">
	<!ENTITY ns_ai "http://ns.adobe.com/AdobeIllustrator/10.0/">
	<!ENTITY ns_graphs "http://ns.adobe.com/Graphs/1.0/">
	<!ENTITY ns_vars "http://ns.adobe.com/Variables/1.0/">
	<!ENTITY ns_imrep "http://ns.adobe.com/ImageReplacement/1.0/">
	<!ENTITY ns_sfw "http://ns.adobe.com/SaveForWeb/1.0/">
	<!ENTITY ns_custom "http://ns.adobe.com/GenericCustomNamespace/1.0/">
	<!ENTITY ns_adobe_xpath "http://ns.adobe.com/XPath/1.0/">
]>
<svg version="1.1" id="Layer_1" xmlns:x="&ns_extend;" xmlns:i="&ns_ai;" xmlns:graph="&ns_graphs;"
	 xmlns="http://www.w3.org/2000/svg" xmlns:xlink="http://www.w3.org/1999/xlink" x="0px" y="0px" width="1024px" height="1024px"
	 viewBox="0 0 1024 1024" enable-background="new 0 0 1024 1024" xml:space="preserve">
	<g i:extraneous="self">
		<g>
			<path 
				fill="#231F20" 
				d="M0 391v84q0 6 5 6q14 4 29.5 6t30.5 4q4 0 7 0.5t7 0.5q6 21 17 42q-9 14 -20 28t-23 28q-5 5 0 9q14 17 30 33.5t33 30.5q6 4 9 -1q8 -8 17 -14.5t18 -13.5l21 -15q21 11 42 17q2 21 4.5 39t6.5 35q0 5 6 5h84q7 0 7 -6q2 -14 4.5 -28.5t4.5 -29.5l2 -15q20 -6 41 -17 q8 7 19 14q10 8 19.5 15t18.5 15q6 4 9 -1q5 -4 9 -8l8 -8l22 -22q12 -12 23 -25q3 -5 0 -9q-10 -11 -20 -24.5t-23 -30.5q6 -11 10.5 -22t8.5 -22q8 -2 17.5 -3t19.5 -3l18 -2q9 -1 17 -3q6 -2 6 -7v-84q0 -5 -5 -7q-14 -3 -29.5 -5t-30.5 -4q-4 0 -14 -2q-6 -20 -17 -41 q9 -14 20 -28t23 -28q4 -5 0 -9q-14 -17 -30 -33.5t-33 -30.5q-6 -4 -9 1q-8 7 -17 14t-18 13q-5 5 -10.5 8.5t-10.5 7.5q-21 -11 -42 -17q-2 -17 -4 -36.5t-7 -37.5q-2 -5 -7 -5h-84q-6 0 -6 5q-3 14 -5 29l-4 30l-2 15q-20 6 -41 17q-5 -4 -9.5 -7t-9.5 -7 q-10 -8 -19.5 -15t-18.5 -15q-6 -4 -9 1q-5 4 -8 8l-9 8q-11 11 -22.5 22t-22.5 25q-4 4 0 8q12 14 22.5 28.5t19.5 27.5q-10 20 -18 44q-8 2 -17.5 3t-19.5 3l-18 2q-9 1 -18 3q-5 2 -5 7zM197 432q0 -35 25 -60t60 -25t60 25t25 60t-25 60t-60 25t-60 -25t-25 -60z M524 188q-2 6 4 8q11 4 21 8t21 8q1 5 1.5 9t2.5 9t3.5 8.5t3.5 8.5q-7 10 -13 19.5t-12 19.5q-3 5 2 8l62 56q4 4 9 1q9 -7 17.5 -14t17.5 -15q18 7 35 8q5 11 10.5 21t10.5 19q3 5 8 3l80 -25q5 -2 5 -8q-2 -11 -4 -21.5t-4 -21.5q8 -6 14 -13t11 -15q12 1 23 1.5t22 0.5 q5 0 7 -5l18 -83q2 -5 -4 -7q-11 -5 -21 -8.5t-21 -7.5q-1 -5 -1.5 -9t-2.5 -9t-3.5 -8.5t-3.5 -7.5q7 -10 13.5 -19.5t11.5 -19.5q2 -5 -2 -8l-62 -57q-4 -4 -9 0q-8 7 -17 14t-17 14q-20 -7 -37 -8q-5 -11 -10 -21t-10 -19q-3 -5 -8 -3l-80 25q-5 2 -5 8q2 11 3.5 22 t3.5 22q-14 12 -24 27q-12 -2 -23.5 -2.5t-22.5 0.5q-5 0 -7 5zM560 607q0 5 5 7q10 2 20 4.5t20 4.5q2 4 3 8t3 8t4.5 7t4.5 7q-5 10 -9 19.5t-8 18.5q-2 4 2 8l64 42q5 3 8 -1q8 -7 14.5 -14.5t13.5 -15.5q16 3 33 3q12 18 24 33q3 3 8 2l69 -34q5 -3 3 -8 q-2 -10 -5.5 -19t-6.5 -19q10 -13 18 -29q11 -1 21.5 -1.5t20.5 -2.5q5 -2 5 -6l5 -77q0 -4 -5 -6q-10 -2 -19.5 -4.5t-20.5 -4.5q-2 -4 -3 -7.5t-3 -7.5q-3 -7 -8 -14q5 -10 9 -19.5t8 -18.5q2 -5 -3 -8l-63 -42q-5 -3 -8 1q-13 12 -28 30q-8 -2 -16.5 -3t-17.5 0 q-6 -9 -12 -17.5t-12 -16.5q-3 -3 -8 -1l-69 34q-5 2 -3 7q3 10 6 19.5t7 19.5q-6 6 -10.5 13t-8.5 15q-11 1 -21.5 1.5t-20.5 2.5q-5 0 -5 6zM658 203q-7 -22 3.5 -42.5t33.5 -27.5q22 -8 42.5 2.5t27.5 33.5q8 22 -2.5 42.5t-33.5 28.5q-22 7 -42.5 -3.5t-28.5 -33.5z M681 564q7 -20 26 -30q20 -9 40 -2.5t29 25.5q10 20 3 40t-26 29q-19 10 -39 3t-30 -26t-3 -39z"/>

		</g>
	</g>

</svg>

