<?xml version="1.0" encoding="utf-8"?>

<!DOCTYPE svg PUBLIC "-//W3C//DTD SVG 1.1//EN" "http://www.w3.org/Graphics/SVG/1.1/DTD/svg11.dtd" [
	<!ENTITY ns_extend "http://ns.adobe.com/Extensibility/1.0/">
	<!ENTITY ns_ai "http://ns.adobe.com/AdobeIllustrator/10.0/">
	<!ENTITY ns_graphs "http://ns.adobe.com/Graphs/1.0/">
	<!ENTITY ns_vars "http://ns.adobe.com/Variables/1.0/">
	<!ENTITY ns_imrep "http://ns.adobe.com/ImageReplacement/1.0/">
	<!ENTITY ns_sfw "http://ns.adobe.com/SaveForWeb/1.0/">
	<!ENTITY ns_custom "http://ns.adobe.com/GenericCustomNamespace/1.0/">
	<!ENTITY ns_adobe_xpath "http://ns.adobe.com/XPath/1.0/">
]>
<svg version="1.1" id="Layer_1" xmlns:x="&ns_extend;" xmlns:i="&ns_ai;" xmlns:graph="&ns_graphs;"
	 xmlns="http://www.w3.org/2000/svg" xmlns:xlink="http://www.w3.org/1999/xlink" x="0px" y="0px" width="1024px" height="1024px"
	 viewBox="0 0 1024 1024" enable-background="new 0 0 1024 1024" xml:space="preserve">
	<g i:extraneous="self">
		<g>
			<path 
				fill="#231F20" 
				d="M0 56v587v32v19q0 23 16.5 39.5t39.5 16.5h19h750h19q23 0 39.5 -16.5t16.5 -39.5v-19v-30v-589q0 -23 -16.5 -39.5t-39.5 -16.5h-788q-23 0 -39.5 16.5t-16.5 39.5zM75 75h750v416q-15 -15 -28 -24q-29 -21 -61 -46t-64 -49q-19 -14 -36.5 -28t-32.5 -25q-3 -2 -6 -4.5 t-7 -5.5q-14 -11 -29.5 -22.5t-33.5 -22t-37.5 -17t-40.5 -6.5q-20 0 -39.5 6.5t-37 17t-33.5 22t-29 22.5q-4 3 -7 5.5t-6 4.5q-15 11 -32.5 25t-36.5 28q-32 24 -64 49t-61 46q-13 9 -28 24v-416zM75 643q0 -14 6 -30t16.5 -32t23 -30t26.5 -24q23 -17 49 -37l52 -38 q26 -20 50 -39t44 -34l22 -17q14 -11 28.5 -21t29 -17.5t27.5 -7.5h1h1q13 0 27.5 7.5t29 17.5t28.5 21l22 17q20 15 44 34t50 39l52 38q26 20 49 37q13 10 26 24t23.5 30t16.5 32t6 30v32h-750v-32z"/>

		</g>
	</g>

</svg>

