<?xml version="1.0" encoding="utf-8"?>

<!DOCTYPE svg PUBLIC "-//W3C//DTD SVG 1.1//EN" "http://www.w3.org/Graphics/SVG/1.1/DTD/svg11.dtd" [
	<!ENTITY ns_extend "http://ns.adobe.com/Extensibility/1.0/">
	<!ENTITY ns_ai "http://ns.adobe.com/AdobeIllustrator/10.0/">
	<!ENTITY ns_graphs "http://ns.adobe.com/Graphs/1.0/">
	<!ENTITY ns_vars "http://ns.adobe.com/Variables/1.0/">
	<!ENTITY ns_imrep "http://ns.adobe.com/ImageReplacement/1.0/">
	<!ENTITY ns_sfw "http://ns.adobe.com/SaveForWeb/1.0/">
	<!ENTITY ns_custom "http://ns.adobe.com/GenericCustomNamespace/1.0/">
	<!ENTITY ns_adobe_xpath "http://ns.adobe.com/XPath/1.0/">
]>
<svg version="1.1" id="Layer_1" xmlns:x="&ns_extend;" xmlns:i="&ns_ai;" xmlns:graph="&ns_graphs;"
	 xmlns="http://www.w3.org/2000/svg" xmlns:xlink="http://www.w3.org/1999/xlink" x="0px" y="0px" width="1024px" height="1024px"
	 viewBox="0 0 1024 1024" enable-background="new 0 0 1024 1024" xml:space="preserve">
	<g i:extraneous="self">
		<g>
			<path 
				fill="#231F20" 
				d="M0 214q0 58 30.5 119.5t82.5 111.5q-11 -75 0.5 -120.5t30.5 -71.5q22 -30 53 -44q-24 105 -14 204q4 42 15.5 87.5t34 90t58.5 85.5t89 74q-23 -49 -22 -90t11 -71q11 -35 34 -64q16 -19 30.5 -37.5t25 -42.5t16.5 -56.5t6 -78.5q-9 20 -27 32t-41 12q-32 0 -53.5 -22 t-21.5 -53q0 -16 5.5 -30t17 -25t30 -17t44.5 -6q44 4 77 31q13 12 25.5 29.5t20.5 43t10 60t-5 80.5h-1q52 -50 82.5 -111.5t30.5 -119.5q0 -54 -26.5 -94t-72.5 -66.5t-107 -40t-131 -13.5t-131.5 13.5t-107.5 40t-72.5 66.5t-26.5 94z"/>

		</g>
	</g>

</svg>

