<?xml version="1.0" encoding="utf-8"?>

<!DOCTYPE svg PUBLIC "-//W3C//DTD SVG 1.1//EN" "http://www.w3.org/Graphics/SVG/1.1/DTD/svg11.dtd" [
	<!ENTITY ns_extend "http://ns.adobe.com/Extensibility/1.0/">
	<!ENTITY ns_ai "http://ns.adobe.com/AdobeIllustrator/10.0/">
	<!ENTITY ns_graphs "http://ns.adobe.com/Graphs/1.0/">
	<!ENTITY ns_vars "http://ns.adobe.com/Variables/1.0/">
	<!ENTITY ns_imrep "http://ns.adobe.com/ImageReplacement/1.0/">
	<!ENTITY ns_sfw "http://ns.adobe.com/SaveForWeb/1.0/">
	<!ENTITY ns_custom "http://ns.adobe.com/GenericCustomNamespace/1.0/">
	<!ENTITY ns_adobe_xpath "http://ns.adobe.com/XPath/1.0/">
]>
<svg version="1.1" id="Layer_1" xmlns:x="&ns_extend;" xmlns:i="&ns_ai;" xmlns:graph="&ns_graphs;"
	 xmlns="http://www.w3.org/2000/svg" xmlns:xlink="http://www.w3.org/1999/xlink" x="0px" y="0px" width="1024px" height="1024px"
	 viewBox="0 0 1024 1024" enable-background="new 0 0 1024 1024" xml:space="preserve">
	<g i:extraneous="self">
		<g>
			<path 
				fill="#231F20" 
				d="M0 281v188q0 8 5.5 13.5t13.5 5.5h258q-27 0 -51 10t-42 28t-28.5 42t-10.5 51t10.5 51t28.5 41.5t42 28t51 10.5q29 0 55 -11.5t43 -33.5l75 -97l75 97q17 22 43 33.5t55 11.5q27 0 51 -10.5t42 -28t28.5 -41.5t10.5 -51t-10.5 -51t-28.5 -42t-42 -28t-51 -10h258 q8 0 13.5 -5.5t5.5 -13.5v-188q0 -8 -5.5 -13t-13.5 -5h-56v-207q0 -23 -16.5 -39.5t-39.5 -16.5h-638q-23 0 -39.5 16.5t-16.5 39.5v207h-56q-8 0 -13.5 5t-5.5 13zM220 619q0 -23 17 -39.5t40 -16.5h113l-73 94q-5 5 -15 11.5t-25 6.5q-23 0 -40 -16.5t-17 -39.5zM356 105 q0 -15 11 -26t27 -11h112q16 0 27 11t11 26v383h-188v-383zM509 563h114q23 0 40 16.5t17 39.5t-17 39.5t-40 16.5q-15 0 -25 -6.5t-15 -11.5z"/>

		</g>
	</g>

</svg>

