<?xml version="1.0" encoding="utf-8"?>

<!DOCTYPE svg PUBLIC "-//W3C//DTD SVG 1.1//EN" "http://www.w3.org/Graphics/SVG/1.1/DTD/svg11.dtd" [
	<!ENTITY ns_extend "http://ns.adobe.com/Extensibility/1.0/">
	<!ENTITY ns_ai "http://ns.adobe.com/AdobeIllustrator/10.0/">
	<!ENTITY ns_graphs "http://ns.adobe.com/Graphs/1.0/">
	<!ENTITY ns_vars "http://ns.adobe.com/Variables/1.0/">
	<!ENTITY ns_imrep "http://ns.adobe.com/ImageReplacement/1.0/">
	<!ENTITY ns_sfw "http://ns.adobe.com/SaveForWeb/1.0/">
	<!ENTITY ns_custom "http://ns.adobe.com/GenericCustomNamespace/1.0/">
	<!ENTITY ns_adobe_xpath "http://ns.adobe.com/XPath/1.0/">
]>
<svg version="1.1" id="Layer_1" xmlns:x="&ns_extend;" xmlns:i="&ns_ai;" xmlns:graph="&ns_graphs;"
	 xmlns="http://www.w3.org/2000/svg" xmlns:xlink="http://www.w3.org/1999/xlink" x="0px" y="0px" width="1024px" height="1024px"
	 viewBox="0 0 1024 1024" enable-background="new 0 0 1024 1024" xml:space="preserve">
	<g i:extraneous="self">
		<g>
			<path 
				fill="#231F20" 
				d="M0 94v562q0 19 7.5 36.5t20 30t29.5 20t37 7.5h562q39 0 66.5 -27.5t27.5 -66.5v-562q0 -20 -7.5 -37t-20 -29.5t-30 -20t-36.5 -7.5h-562q-39 0 -66.5 27.5t-27.5 66.5zM94 321q0 -44 11 -82.5t41.5 -67t85.5 -45t143 -16.5t142.5 16.5t85.5 45t42 67t11 82.5 q0 73 -46 127q4 16 5 36t-1.5 39t-7.5 36t-12 29h-14q-42 -2 -74 -22t-63 -37l-7 1q-8 0 -18.5 1t-22 1.5t-20.5 0.5q-18 0 -35 -1t-33 -3q-31 17 -63 37t-74 22h-14q-8 -12 -12.5 -29t-7 -36t-1.5 -39t5 -36q-46 -54 -46 -127zM183 289q15 60 84 67q13 2 27 1.5t30 -1.5 q7 0 25.5 -1t25.5 -1t25.5 1t25.5 1q16 1 30 1.5t26 -1.5q70 -7 85 -67q8 -33 -3 -61.5t-24 -41.5q-20 -20 -66 -32t-99 -12t-99 12t-66 32q-13 13 -24 41.5t-3 61.5zM242 265q0 -23 11 -39t27 -16t27 16t11 39t-11 38.5t-27 15.5t-27 -15.5t-11 -38.5zM432 265 q0 -23 11 -39t27 -16t27 16t11 39t-11 38.5t-27 15.5t-27 -15.5t-11 -38.5z"/>

		</g>
	</g>

</svg>

