<?xml version="1.0" encoding="utf-8"?>

<!DOCTYPE svg PUBLIC "-//W3C//DTD SVG 1.1//EN" "http://www.w3.org/Graphics/SVG/1.1/DTD/svg11.dtd" [
	<!ENTITY ns_extend "http://ns.adobe.com/Extensibility/1.0/">
	<!ENTITY ns_ai "http://ns.adobe.com/AdobeIllustrator/10.0/">
	<!ENTITY ns_graphs "http://ns.adobe.com/Graphs/1.0/">
	<!ENTITY ns_vars "http://ns.adobe.com/Variables/1.0/">
	<!ENTITY ns_imrep "http://ns.adobe.com/ImageReplacement/1.0/">
	<!ENTITY ns_sfw "http://ns.adobe.com/SaveForWeb/1.0/">
	<!ENTITY ns_custom "http://ns.adobe.com/GenericCustomNamespace/1.0/">
	<!ENTITY ns_adobe_xpath "http://ns.adobe.com/XPath/1.0/">
]>
<svg version="1.1" id="Layer_1" xmlns:x="&ns_extend;" xmlns:i="&ns_ai;" xmlns:graph="&ns_graphs;"
	 xmlns="http://www.w3.org/2000/svg" xmlns:xlink="http://www.w3.org/1999/xlink" x="0px" y="0px" width="1024px" height="1024px"
	 viewBox="0 0 1024 1024" enable-background="new 0 0 1024 1024" xml:space="preserve">
	<g i:extraneous="self">
		<g>
			<path fill="#231F20" d="M0 338v75q0 8 5.5 13t13.5 5h80q9 41 29 77.5t48.5 65t65 48.5t77.5 29v80q0 19 19 19h75q8 0 13 -5.5t5 -13.5v-80q41 -9 77.5 -29t65 -48.5t48.5 -65t29 -77.5h80q8 0 13.5 -5t5.5 -13v-75q0 -19 -19 -19h-80q-9 -41 -29 -77.5t-48.5 -65t-65 -48.5t-77.5 -29v-80 q0 -8 -5 -13.5t-13 -5.5h-75q-19 0 -19 19v80q-41 9 -77.5 29t-65 48.5t-48.5 65t-29 77.5h-80q-19 0 -19 19zM178 319q14 -52 51.5 -89.5t89.5 -51.5v85q0 8 5.5 13t13.5 5h75q8 0 13 -5t5 -13v-85q52 14 89.5 51.5t51.5 89.5h-84q-19 0 -19 19v75q0 8 5.5 13t13.5 5h84 q-14 52 -51.5 89.5t-89.5 51.5v-84q0 -8 -5 -13.5t-13 -5.5h-75q-19 0 -19 19v84q-52 -14 -89.5 -51.5t-51.5 -89.5h85q8 0 13 -5t5 -13v-75q0 -8 -5 -13.5t-13 -5.5h-85z"/>

		</g>
	</g>

</svg>

