<?xml version="1.0" encoding="utf-8"?>

<!DOCTYPE svg PUBLIC "-//W3C//DTD SVG 1.1//EN" "http://www.w3.org/Graphics/SVG/1.1/DTD/svg11.dtd" [
	<!ENTITY ns_extend "http://ns.adobe.com/Extensibility/1.0/">
	<!ENTITY ns_ai "http://ns.adobe.com/AdobeIllustrator/10.0/">
	<!ENTITY ns_graphs "http://ns.adobe.com/Graphs/1.0/">
	<!ENTITY ns_vars "http://ns.adobe.com/Variables/1.0/">
	<!ENTITY ns_imrep "http://ns.adobe.com/ImageReplacement/1.0/">
	<!ENTITY ns_sfw "http://ns.adobe.com/SaveForWeb/1.0/">
	<!ENTITY ns_custom "http://ns.adobe.com/GenericCustomNamespace/1.0/">
	<!ENTITY ns_adobe_xpath "http://ns.adobe.com/XPath/1.0/">
]>
<svg version="1.1" id="Layer_1" xmlns:x="&ns_extend;" xmlns:i="&ns_ai;" xmlns:graph="&ns_graphs;"
	 xmlns="http://www.w3.org/2000/svg" xmlns:xlink="http://www.w3.org/1999/xlink" x="0px" y="0px" width="1024px" height="1024px"
	 viewBox="0 0 1024 1024" enable-background="new 0 0 1024 1024" xml:space="preserve">
	<g i:extraneous="self">
		<g>
			<path 
				fill="#231F20" 
				d="M0 375q0 78 29.5 146t80.5 119t119 80.5t146 29.5t146 -29.5t119 -80.5t80.5 -119t29.5 -146t-29.5 -146t-80.5 -119t-119 -80.5t-146 -29.5t-146 29.5t-119 80.5t-80.5 119t-29.5 146zM269 418q0 -14 14 -14h40v-192h-37q-5 0 -9.5 -4.5t-4.5 -9.5v-66q0 -5 4.5 -9.5 t9.5 -4.5h189q5 0 9.5 4.5t4.5 9.5v66q0 5 -4.5 9.5t-9.5 4.5h-36v271q0 6 -4.5 10t-9.5 4h-142q-14 0 -14 -14v-65zM322 555q0 -6 4.5 -10.5t10.5 -4.5h88q5 0 9.5 4.5t4.5 10.5v77q0 6 -4.5 10t-9.5 4h-88q-6 0 -10.5 -4t-4.5 -10v-77z"/>

		</g>
	</g>

</svg>

