<?xml version="1.0" encoding="utf-8"?>

<!DOCTYPE svg PUBLIC "-//W3C//DTD SVG 1.1//EN" "http://www.w3.org/Graphics/SVG/1.1/DTD/svg11.dtd" [
	<!ENTITY ns_extend "http://ns.adobe.com/Extensibility/1.0/">
	<!ENTITY ns_ai "http://ns.adobe.com/AdobeIllustrator/10.0/">
	<!ENTITY ns_graphs "http://ns.adobe.com/Graphs/1.0/">
	<!ENTITY ns_vars "http://ns.adobe.com/Variables/1.0/">
	<!ENTITY ns_imrep "http://ns.adobe.com/ImageReplacement/1.0/">
	<!ENTITY ns_sfw "http://ns.adobe.com/SaveForWeb/1.0/">
	<!ENTITY ns_custom "http://ns.adobe.com/GenericCustomNamespace/1.0/">
	<!ENTITY ns_adobe_xpath "http://ns.adobe.com/XPath/1.0/">
]>
<svg version="1.1" id="Layer_1" xmlns:x="&ns_extend;" xmlns:i="&ns_ai;" xmlns:graph="&ns_graphs;"
	 xmlns="http://www.w3.org/2000/svg" xmlns:xlink="http://www.w3.org/1999/xlink" x="0px" y="0px" width="1024px" height="1024px"
	 viewBox="0 0 1024 1024" enable-background="new 0 0 1024 1024" xml:space="preserve">
	<g i:extraneous="self">
		<g>
			<path 
				fill="#231F20" 
				d="M0 0l9 41q6 2 15.5 4.5t22.5 5.5q20 5 34.5 9.5t24.5 9.5q14 19 20 50l14 67l28 131l6 31q11 58 20 87t9 31l15 76l8 31l11 66l4 24v19q-22 11 -72 14q-7 0 -11.5 0.5t-8.5 0.5l10 51l159 -7q15 -1 24 -1h13q17 0 43.5 1t64.5 3q20 2 33.5 3t18.5 1q-1 -5 -1.5 -9.5 t-1.5 -9.5q-2 -5 -4 -11l-3 -14q-24 -8 -54 -15q-32 -8 -51 -15q-6 -16 -12 -43q-3 -12 -4.5 -22t-2.5 -18q-11 -49 -19.5 -86t-13.5 -63l-31 -152l-19 -77l-21 -115l-7 -22v-5q0 -3 1 -8q17 -4 31.5 -6.5t28.5 -4.5q2 0 10.5 -1t22.5 -3q-1 -9 -1.5 -16t-1.5 -13 q-1 -3 -2 -8t-3 -11q-4 0 -7 -0.5t-5 -0.5q-9 -1 -14 -1h-7h-5q-4 0 -9 2q-4 0 -22 2t-51 6l-99 1q-30 0 -88 -6q-19 -2 -31 -3t-18 -1z"/>

		</g>
	</g>

</svg>

