<?xml version="1.0" encoding="utf-8"?>
<!-- Generator: Adobe Illustrator 16.0.0, SVG Export Plug-In . SVG Version: 6.00 Build 0)  -->
<!DOCTYPE svg PUBLIC "-//W3C//DTD SVG 1.1//EN" "http://www.w3.org/Graphics/SVG/1.1/DTD/svg11.dtd" [
	<!ENTITY ns_extend "http://ns.adobe.com/Extensibility/1.0/">
	<!ENTITY ns_ai "http://ns.adobe.com/AdobeIllustrator/10.0/">
	<!ENTITY ns_graphs "http://ns.adobe.com/Graphs/1.0/">
	<!ENTITY ns_vars "http://ns.adobe.com/Variables/1.0/">
	<!ENTITY ns_imrep "http://ns.adobe.com/ImageReplacement/1.0/">
	<!ENTITY ns_sfw "http://ns.adobe.com/SaveForWeb/1.0/">
	<!ENTITY ns_custom "http://ns.adobe.com/GenericCustomNamespace/1.0/">
	<!ENTITY ns_adobe_xpath "http://ns.adobe.com/XPath/1.0/">
]>
<svg version="1.1" id="Layer_1" xmlns:x="&ns_extend;" xmlns:i="&ns_ai;" xmlns:graph="&ns_graphs;"
	 xmlns="http://www.w3.org/2000/svg" xmlns:xlink="http://www.w3.org/1999/xlink" x="0px" y="0px" width="512px" height="512px"
	 viewBox="0 0 512 512" enable-background="new 0 0 512 512" xml:space="preserve">
	<g i:extraneous="self">
		<g>
			<path fill="#231F20" d="M430.408,336.086c-9.21,20.416-13.624,29.515-25.476,47.544c-16.535,25.191-39.851,56.531-68.743,56.809
				c-25.681,0.235-32.269-16.714-67.109-16.521c-34.836,0.193-42.115,16.813-67.79,16.577
				c-28.889-0.262-50.987-28.574-67.529-53.743c-46.259-70.411-51.094-153.03-22.565-196.95
				c20.275-31.213,52.257-49.479,82.338-49.479c30.625,0,49.876,16.785,75.184,16.785c24.569,0,39.534-16.812,74.931-16.812
				c26.761,0,55.112,14.57,75.315,39.75C352.768,216.313,363.525,310.811,430.408,336.086L430.408,336.086z"/>
			<path fill="#231F20" d="M316.79,112.153c12.861-16.508,22.631-39.81,19.089-63.634c-21.013,1.453-45.587,14.82-59.938,32.241
				c-13.021,15.816-23.774,39.271-19.592,62.078C279.29,143.54,303.022,129.844,316.79,112.153L316.79,112.153z"/>
		</g>
	</g>

</svg>
