<?xml version="1.0" encoding="utf-8"?>

<!DOCTYPE svg PUBLIC "-//W3C//DTD SVG 1.1//EN" "http://www.w3.org/Graphics/SVG/1.1/DTD/svg11.dtd" [
	<!ENTITY ns_extend "http://ns.adobe.com/Extensibility/1.0/">
	<!ENTITY ns_ai "http://ns.adobe.com/AdobeIllustrator/10.0/">
	<!ENTITY ns_graphs "http://ns.adobe.com/Graphs/1.0/">
	<!ENTITY ns_vars "http://ns.adobe.com/Variables/1.0/">
	<!ENTITY ns_imrep "http://ns.adobe.com/ImageReplacement/1.0/">
	<!ENTITY ns_sfw "http://ns.adobe.com/SaveForWeb/1.0/">
	<!ENTITY ns_custom "http://ns.adobe.com/GenericCustomNamespace/1.0/">
	<!ENTITY ns_adobe_xpath "http://ns.adobe.com/XPath/1.0/">
]>
<svg version="1.1" id="Layer_1" xmlns:x="&ns_extend;" xmlns:i="&ns_ai;" xmlns:graph="&ns_graphs;"
	 xmlns="http://www.w3.org/2000/svg" xmlns:xlink="http://www.w3.org/1999/xlink" x="0px" y="0px" width="1024px" height="1024px"
	 viewBox="0 0 1024 1024" enable-background="new 0 0 1024 1024" xml:space="preserve">
	<g i:extraneous="self">
		<g>
			<path 
				fill="#231F20" 
				d="M3 78q9 25 25.5 41.5t33.5 30.5q14 11 24 20.5t13 20.5q1 2 0 5t-5 11q-2 6 -5 13.5t-5 16.5q-12 75 6.5 139t56.5 114.5t91 86.5t111 56q38 14 83.5 16.5t95.5 3.5q28 0 59.5 1t60.5 5.5t53.5 13.5t39.5 25q10 10 18.5 19.5t18 16.5t20.5 11.5t27 4.5q23 0 33 -21 q62 -121 32 -283q-42 -228 -272 -347q-110 -57 -220 -57q-36 0 -72.5 6t-71.5 19q-11 4 -21.5 9.5t-21.5 10.5q-13 8 -26.5 14.5t-22.5 7.5q-5 -1 -11.5 -8t-13 -16.5t-12.5 -19t-10 -15.5q-6 -11 -12 -20t-11 -16q-11 -14 -29 -14h-2q-28 2 -39 17.5t-14 23.5q-13 18 -5 37 zM188.5 253.5q1.5 -15.5 13.5 -26.5q10 -9 24 -9q18 0 28 13q42 48 85.5 82t90.5 54.5t99.5 29t114.5 6.5q15 -2 26.5 9.5t12.5 26.5q0 16 -10.5 27.5t-26.5 11.5q-69 3 -130 -7t-116 -34t-104.5 -63t-97.5 -94q-11 -11 -9.5 -26.5z"/>

		</g>
	</g>

</svg>

