<?xml version="1.0" encoding="utf-8"?>

<!DOCTYPE svg PUBLIC "-//W3C//DTD SVG 1.1//EN" "http://www.w3.org/Graphics/SVG/1.1/DTD/svg11.dtd" [
	<!ENTITY ns_extend "http://ns.adobe.com/Extensibility/1.0/">
	<!ENTITY ns_ai "http://ns.adobe.com/AdobeIllustrator/10.0/">
	<!ENTITY ns_graphs "http://ns.adobe.com/Graphs/1.0/">
	<!ENTITY ns_vars "http://ns.adobe.com/Variables/1.0/">
	<!ENTITY ns_imrep "http://ns.adobe.com/ImageReplacement/1.0/">
	<!ENTITY ns_sfw "http://ns.adobe.com/SaveForWeb/1.0/">
	<!ENTITY ns_custom "http://ns.adobe.com/GenericCustomNamespace/1.0/">
	<!ENTITY ns_adobe_xpath "http://ns.adobe.com/XPath/1.0/">
]>
<svg version="1.1" id="Layer_1" xmlns:x="&ns_extend;" xmlns:i="&ns_ai;" xmlns:graph="&ns_graphs;"
	 xmlns="http://www.w3.org/2000/svg" xmlns:xlink="http://www.w3.org/1999/xlink" x="0px" y="0px" width="1024px" height="1024px"
	 viewBox="0 0 1024 1024" enable-background="new 0 0 1024 1024" xml:space="preserve">
	<g i:extraneous="self">
		<g>
			<path 
				fill="#231F20" 
				d="M0 94v562q0 19 7.5 36.5t20 30t29.5 20t37 7.5h562q39 0 66.5 -27.5t27.5 -66.5v-562q0 -20 -7.5 -37t-20 -29.5t-30 -20t-36.5 -7.5h-562q-39 0 -66.5 27.5t-27.5 66.5zM101 582q0 -28 19.5 -47.5t46.5 -19.5q28 0 47.5 19.5t19.5 47.5q0 27 -19.5 46.5t-47.5 19.5 q-27 0 -46.5 -19.5t-19.5 -46.5zM104 117q0 -5 4.5 -9.5t9.5 -4.5h98q6 0 10 4.5t4 9.5v345q0 14 -14 14h-98q-5 0 -9.5 -4t-4.5 -10v-345zM283 117q0 -5 4.5 -9.5t9.5 -4.5h98q6 0 10 4.5t4 9.5v187q0 28 8 47q15 31 55 31q32 0 42 -19q7 -11 7 -35v-211q0 -5 4 -9.5 t10 -4.5h100q6 0 10 4.5t4 9.5v233q0 72 -42 104q-40 31 -103 31q-50 0 -85 -23q-4 -3 -13 -12v12q0 14 -14 14h-95q-5 0 -9.5 -4t-4.5 -10v-345z"/>

		</g>
	</g>

</svg>

