<?xml version="1.0" encoding="utf-8"?>

<!DOCTYPE svg PUBLIC "-//W3C//DTD SVG 1.1//EN" "http://www.w3.org/Graphics/SVG/1.1/DTD/svg11.dtd" [
	<!ENTITY ns_extend "http://ns.adobe.com/Extensibility/1.0/">
	<!ENTITY ns_ai "http://ns.adobe.com/AdobeIllustrator/10.0/">
	<!ENTITY ns_graphs "http://ns.adobe.com/Graphs/1.0/">
	<!ENTITY ns_vars "http://ns.adobe.com/Variables/1.0/">
	<!ENTITY ns_imrep "http://ns.adobe.com/ImageReplacement/1.0/">
	<!ENTITY ns_sfw "http://ns.adobe.com/SaveForWeb/1.0/">
	<!ENTITY ns_custom "http://ns.adobe.com/GenericCustomNamespace/1.0/">
	<!ENTITY ns_adobe_xpath "http://ns.adobe.com/XPath/1.0/">
]>
<svg version="1.1" id="Layer_1" xmlns:x="&ns_extend;" xmlns:i="&ns_ai;" xmlns:graph="&ns_graphs;"
	 xmlns="http://www.w3.org/2000/svg" xmlns:xlink="http://www.w3.org/1999/xlink" x="0px" y="0px" width="1024px" height="1024px"
	 viewBox="0 0 1024 1024" enable-background="new 0 0 1024 1024" xml:space="preserve">
	<g i:extraneous="self">
		<g>
			<path 
				fill="#231F20" 
				d="M0 56v638q0 23 16.5 39.5t39.5 16.5h788q23 0 39.5 -16.5t16.5 -39.5v-638q0 -23 -16.5 -39.5t-39.5 -16.5h-788q-23 0 -39.5 16.5t-16.5 39.5zM75 75h750v525h-750v-525zM150 169v37q0 19 19 19h75q8 0 13.5 -5.5t5.5 -13.5v-37q0 -8 -5.5 -13.5t-13.5 -5.5h-75 q-19 0 -19 19zM150 319v37q0 19 19 19h75q8 0 13.5 -5.5t5.5 -13.5v-37q0 -8 -5.5 -13.5t-13.5 -5.5h-75q-19 0 -19 19zM150 469v37q0 19 19 19h75q8 0 13.5 -5.5t5.5 -13.5v-37q0 -8 -5.5 -13.5t-13.5 -5.5h-75q-19 0 -19 19zM338 169v37q0 8 5 13.5t13 5.5h375 q19 0 19 -19v-37q0 -19 -19 -19h-375q-8 0 -13 5.5t-5 13.5zM338 319v37q0 8 5 13.5t13 5.5h375q19 0 19 -19v-37q0 -19 -19 -19h-375q-8 0 -13 5.5t-5 13.5zM338 469v37q0 8 5 13.5t13 5.5h375q19 0 19 -19v-37q0 -19 -19 -19h-375q-8 0 -13 5.5t-5 13.5z"/>

		</g>
	</g>

</svg>

