<?xml version="1.0" encoding="utf-8"?>

<!DOCTYPE svg PUBLIC "-//W3C//DTD SVG 1.1//EN" "http://www.w3.org/Graphics/SVG/1.1/DTD/svg11.dtd" [
	<!ENTITY ns_extend "http://ns.adobe.com/Extensibility/1.0/">
	<!ENTITY ns_ai "http://ns.adobe.com/AdobeIllustrator/10.0/">
	<!ENTITY ns_graphs "http://ns.adobe.com/Graphs/1.0/">
	<!ENTITY ns_vars "http://ns.adobe.com/Variables/1.0/">
	<!ENTITY ns_imrep "http://ns.adobe.com/ImageReplacement/1.0/">
	<!ENTITY ns_sfw "http://ns.adobe.com/SaveForWeb/1.0/">
	<!ENTITY ns_custom "http://ns.adobe.com/GenericCustomNamespace/1.0/">
	<!ENTITY ns_adobe_xpath "http://ns.adobe.com/XPath/1.0/">
]>
<svg version="1.1" id="Layer_1" xmlns:x="&ns_extend;" xmlns:i="&ns_ai;" xmlns:graph="&ns_graphs;"
	 xmlns="http://www.w3.org/2000/svg" xmlns:xlink="http://www.w3.org/1999/xlink" x="0px" y="0px" width="1024px" height="1024px"
	 viewBox="0 0 1024 1024" enable-background="new 0 0 1024 1024" xml:space="preserve">
	<g i:extraneous="self">
		<g>
			<path 
				fill="#231F20" 
				d="M0 311v139q0 8 5.5 13.5t13.5 5.5h187q8 0 13.5 -5.5t5.5 -13.5v-139q0 -13 11 -28t30.5 -28t47 -21.5t61.5 -8.5t61.5 8.5t47 21.5t30.5 28t11 28v139q0 8 5.5 13.5t13.5 5.5h187q8 0 13.5 -5.5t5.5 -13.5v-139q0 -65 -29.5 -121.5t-80.5 -98.5t-119 -66.5t-146 -24.5 t-146 24.5t-119 66.5t-80.5 98.5t-29.5 121.5zM0 544v187q0 19 19 19h187q19 0 19 -19v-187q0 -19 -19 -19h-187q-19 0 -19 19zM525 544v187q0 19 19 19h187q19 0 19 -19v-187q0 -19 -19 -19h-187q-19 0 -19 19z"/>

		</g>
	</g>

</svg>

