<?xml version="1.0" encoding="utf-8"?>

<!DOCTYPE svg PUBLIC "-//W3C//DTD SVG 1.1//EN" "http://www.w3.org/Graphics/SVG/1.1/DTD/svg11.dtd" [
	<!ENTITY ns_extend "http://ns.adobe.com/Extensibility/1.0/">
	<!ENTITY ns_ai "http://ns.adobe.com/AdobeIllustrator/10.0/">
	<!ENTITY ns_graphs "http://ns.adobe.com/Graphs/1.0/">
	<!ENTITY ns_vars "http://ns.adobe.com/Variables/1.0/">
	<!ENTITY ns_imrep "http://ns.adobe.com/ImageReplacement/1.0/">
	<!ENTITY ns_sfw "http://ns.adobe.com/SaveForWeb/1.0/">
	<!ENTITY ns_custom "http://ns.adobe.com/GenericCustomNamespace/1.0/">
	<!ENTITY ns_adobe_xpath "http://ns.adobe.com/XPath/1.0/">
]>
<svg version="1.1" id="Layer_1" xmlns:x="&ns_extend;" xmlns:i="&ns_ai;" xmlns:graph="&ns_graphs;"
	 xmlns="http://www.w3.org/2000/svg" xmlns:xlink="http://www.w3.org/1999/xlink" x="0px" y="0px" width="1024px" height="1024px"
	 viewBox="0 0 1024 1024" enable-background="new 0 0 1024 1024" xml:space="preserve">
	<g i:extraneous="self">
		<g>
			<path 
				fill="#231F20" 
				d="M0 375q0 12 8 20l121 120q12 13 21 9t9 -21v-80h169v168h-81q-17 0 -21 9t9 21l120 121q8 8 20 8t20 -8l121 -121q12 -12 8.5 -21t-21.5 -9h-81v-168h169v80q0 17 9 21t21 -9l121 -120q8 -8 8 -20t-8 -20l-121 -120q-12 -13 -21 -9.5t-9 21.5v83h-169v-171h81 q18 0 21.5 -9t-8.5 -21l-121 -121q-8 -8 -20 -8t-20 8l-120 121q-13 12 -9 21t21 9h81v171h-169v-83q0 -17 -9 -21t-21 9l-121 120q-8 8 -8 20z"/>

		</g>
	</g>

</svg>

