<?xml version="1.0" encoding="utf-8"?>

<!DOCTYPE svg PUBLIC "-//W3C//DTD SVG 1.1//EN" "http://www.w3.org/Graphics/SVG/1.1/DTD/svg11.dtd" [
	<!ENTITY ns_extend "http://ns.adobe.com/Extensibility/1.0/">
	<!ENTITY ns_ai "http://ns.adobe.com/AdobeIllustrator/10.0/">
	<!ENTITY ns_graphs "http://ns.adobe.com/Graphs/1.0/">
	<!ENTITY ns_vars "http://ns.adobe.com/Variables/1.0/">
	<!ENTITY ns_imrep "http://ns.adobe.com/ImageReplacement/1.0/">
	<!ENTITY ns_sfw "http://ns.adobe.com/SaveForWeb/1.0/">
	<!ENTITY ns_custom "http://ns.adobe.com/GenericCustomNamespace/1.0/">
	<!ENTITY ns_adobe_xpath "http://ns.adobe.com/XPath/1.0/">
]>
<svg version="1.1" id="Layer_1" xmlns:x="&ns_extend;" xmlns:i="&ns_ai;" xmlns:graph="&ns_graphs;"
	 xmlns="http://www.w3.org/2000/svg" xmlns:xlink="http://www.w3.org/1999/xlink" x="0px" y="0px" width="1024px" height="1024px"
	 viewBox="0 0 1024 1024" enable-background="new 0 0 1024 1024" xml:space="preserve">
	<g i:extraneous="self">
		<g>
			<path 
				fill="#231F20" 
				d="M1 212l34 144q2 8 2 18t-2 18l-34 144q-2 8 2 13.5t12 5.5h45q8 0 17 -4.5t14 -10.5l85 -110q44 9 92 14t94 5h12l-61 283q-2 8 2.5 13t12.5 5h64q8 0 16 -4.5t12 -11.5l164 -285h157q29 0 58 -6.5t51.5 -17t36.5 -24t13 -27.5q1 -14 -13 -27.5t-36.5 -24t-51.5 -17 t-58 -6.5h-158l-163 -283q-4 -7 -12 -11.5t-16 -4.5h-64q-8 0 -12.5 5t-2.5 13l61 281h-12q-46 0 -94 5.5t-92 13.5l-85 -110q-12 -14 -31 -14h-45q-8 0 -12 5t-2 13z"/>

		</g>
	</g>

</svg>

