<?xml version="1.0" encoding="utf-8"?>

<!DOCTYPE svg PUBLIC "-//W3C//DTD SVG 1.1//EN" "http://www.w3.org/Graphics/SVG/1.1/DTD/svg11.dtd" [
	<!ENTITY ns_extend "http://ns.adobe.com/Extensibility/1.0/">
	<!ENTITY ns_ai "http://ns.adobe.com/AdobeIllustrator/10.0/">
	<!ENTITY ns_graphs "http://ns.adobe.com/Graphs/1.0/">
	<!ENTITY ns_vars "http://ns.adobe.com/Variables/1.0/">
	<!ENTITY ns_imrep "http://ns.adobe.com/ImageReplacement/1.0/">
	<!ENTITY ns_sfw "http://ns.adobe.com/SaveForWeb/1.0/">
	<!ENTITY ns_custom "http://ns.adobe.com/GenericCustomNamespace/1.0/">
	<!ENTITY ns_adobe_xpath "http://ns.adobe.com/XPath/1.0/">
]>
<svg version="1.1" id="Layer_1" xmlns:x="&ns_extend;" xmlns:i="&ns_ai;" xmlns:graph="&ns_graphs;"
	 xmlns="http://www.w3.org/2000/svg" xmlns:xlink="http://www.w3.org/1999/xlink" x="0px" y="0px" width="1024px" height="1024px"
	 viewBox="0 0 1024 1024" enable-background="new 0 0 1024 1024" xml:space="preserve">
	<g i:extraneous="self">
		<g>
			<path 
				fill="#231F20" 
				d="M0 19v169q0 23 9 43.5t24.5 35.5t36 24t43.5 9h675q23 0 43.5 -9t35.5 -24t24 -35.5t9 -43.5v-169q0 -19 -19 -19h-862q-19 0 -19 19zM131 94q0 -8 5.5 -13t13.5 -5h600q8 0 13.5 5t5.5 13v19q0 8 -5.5 13.5t-13.5 5.5h-600q-8 0 -13.5 -5.5t-5.5 -13.5v-19zM150 356v357 q0 15 11 26t27 11h318v-187q0 -24 16.5 -40.5t39.5 -16.5h188v-150h-600zM562 563v187l188 -187h-188z"/>

		</g>
	</g>

</svg>

