<?xml version="1.0" encoding="utf-8"?>

<!DOCTYPE svg PUBLIC "-//W3C//DTD SVG 1.1//EN" "http://www.w3.org/Graphics/SVG/1.1/DTD/svg11.dtd" [
	<!ENTITY ns_extend "http://ns.adobe.com/Extensibility/1.0/">
	<!ENTITY ns_ai "http://ns.adobe.com/AdobeIllustrator/10.0/">
	<!ENTITY ns_graphs "http://ns.adobe.com/Graphs/1.0/">
	<!ENTITY ns_vars "http://ns.adobe.com/Variables/1.0/">
	<!ENTITY ns_imrep "http://ns.adobe.com/ImageReplacement/1.0/">
	<!ENTITY ns_sfw "http://ns.adobe.com/SaveForWeb/1.0/">
	<!ENTITY ns_custom "http://ns.adobe.com/GenericCustomNamespace/1.0/">
	<!ENTITY ns_adobe_xpath "http://ns.adobe.com/XPath/1.0/">
]>
<svg version="1.1" id="Layer_1" xmlns:x="&ns_extend;" xmlns:i="&ns_ai;" xmlns:graph="&ns_graphs;"
	 xmlns="http://www.w3.org/2000/svg" xmlns:xlink="http://www.w3.org/1999/xlink" x="0px" y="0px" width="1024px" height="1024px"
	 viewBox="0 0 1024 1024" enable-background="new 0 0 1024 1024" xml:space="preserve">
	<g i:extraneous="self">
		<g>
			<path 
				fill="#231F20" 
				d="M0 375q0 78 29.5 146t80.5 119t119 80.5t146 29.5t146 -29.5t119 -80.5t80.5 -119t29.5 -146t-29.5 -146t-80.5 -119t-119 -80.5t-146 -29.5t-146 29.5t-119 80.5t-80.5 119t-29.5 146zM250 531l44 -55q6 -4 10 -5q6 0 10 4q8 6 18 11q8 4 18.5 7.5t21.5 3.5 q20 0 33 -10.5t13 -26.5q0 -17 -11.5 -30.5t-28.5 -28.5q-11 -9 -22 -19.5t-20 -24t-15 -30t-6 -37.5v-30q0 -5 4.5 -9.5t9.5 -4.5h77q6 0 10 4.5t4 9.5v25q0 18 12 31t29 28q12 10 24 21.5t21.5 26.5t16 33t6.5 42q0 32 -13 57t-34.5 41.5t-48.5 25t-54 8.5 q-30 0 -53.5 -7.5t-40 -16.5t-25 -17t-9.5 -9q-9 -9 -1 -18zM315 132q0 -5 4.5 -9.5t9.5 -4.5h77q6 0 10 4.5t4 9.5v74q0 14 -14 14h-77q-5 0 -9.5 -4t-4.5 -10v-74z"/>

		</g>
	</g>

</svg>

