<?xml version="1.0" encoding="utf-8"?>

<!DOCTYPE svg PUBLIC "-//W3C//DTD SVG 1.1//EN" "http://www.w3.org/Graphics/SVG/1.1/DTD/svg11.dtd" [
	<!ENTITY ns_extend "http://ns.adobe.com/Extensibility/1.0/">
	<!ENTITY ns_ai "http://ns.adobe.com/AdobeIllustrator/10.0/">
	<!ENTITY ns_graphs "http://ns.adobe.com/Graphs/1.0/">
	<!ENTITY ns_vars "http://ns.adobe.com/Variables/1.0/">
	<!ENTITY ns_imrep "http://ns.adobe.com/ImageReplacement/1.0/">
	<!ENTITY ns_sfw "http://ns.adobe.com/SaveForWeb/1.0/">
	<!ENTITY ns_custom "http://ns.adobe.com/GenericCustomNamespace/1.0/">
	<!ENTITY ns_adobe_xpath "http://ns.adobe.com/XPath/1.0/">
]>
<svg version="1.1" id="Layer_1" xmlns:x="&ns_extend;" xmlns:i="&ns_ai;" xmlns:graph="&ns_graphs;"
	 xmlns="http://www.w3.org/2000/svg" xmlns:xlink="http://www.w3.org/1999/xlink" x="0px" y="0px" width="1024px" height="1024px"
	 viewBox="0 0 1024 1024" enable-background="new 0 0 1024 1024" xml:space="preserve">
	<g i:extraneous="self">
		<g>
			<path 
				fill="#231F20" 
				d="M3 160l70 206q4 13 18 20q15 6 28 2l206 -70q21 -7 21.5 -19t-19.5 -22l-95 -47q24 -36 57.5 -63t75.5 -41q51 -18 103 -13.5t97.5 26.5t80.5 61t53 90q2 8 8.5 11t14.5 1l71 -24q17 -7 12 -24q-25 -74 -75 -129t-114.5 -86.5t-139 -37.5t-147.5 19q-63 21 -113.5 62 t-84.5 98l-97 -47q-20 -11 -29.5 -2.5t-1.5 29.5zM95 495q25 73 75 128.5t114.5 87.5t138.5 38t148 -19q63 -22 113 -63t85 -98l97 48q20 10 29.5 1.5t1.5 -29.5l-70 -205q-4 -14 -18 -21q-15 -6 -28 -2l-206 70q-21 7 -21.5 19t19.5 22l95 47q-24 36 -58 63t-76 41 q-51 18 -103 13.5t-97 -26.5t-80 -61t-53 -90q-2 -8 -9 -11t-14 -1l-71 25q-8 2 -11 9t-1 14z"/>

		</g>
	</g>

</svg>

