<?xml version="1.0" encoding="utf-8"?>

<!DOCTYPE svg PUBLIC "-//W3C//DTD SVG 1.1//EN" "http://www.w3.org/Graphics/SVG/1.1/DTD/svg11.dtd" [
	<!ENTITY ns_extend "http://ns.adobe.com/Extensibility/1.0/">
	<!ENTITY ns_ai "http://ns.adobe.com/AdobeIllustrator/10.0/">
	<!ENTITY ns_graphs "http://ns.adobe.com/Graphs/1.0/">
	<!ENTITY ns_vars "http://ns.adobe.com/Variables/1.0/">
	<!ENTITY ns_imrep "http://ns.adobe.com/ImageReplacement/1.0/">
	<!ENTITY ns_sfw "http://ns.adobe.com/SaveForWeb/1.0/">
	<!ENTITY ns_custom "http://ns.adobe.com/GenericCustomNamespace/1.0/">
	<!ENTITY ns_adobe_xpath "http://ns.adobe.com/XPath/1.0/">
]>
<svg version="1.1" id="Layer_1" xmlns:x="&ns_extend;" xmlns:i="&ns_ai;" xmlns:graph="&ns_graphs;"
	 xmlns="http://www.w3.org/2000/svg" xmlns:xlink="http://www.w3.org/1999/xlink" x="0px" y="0px" width="1024px" height="1024px"
	 viewBox="0 0 1024 1024" enable-background="new 0 0 1024 1024" xml:space="preserve">
	<g i:extraneous="self">
		<g>
			<path 
				fill="#231F20" 
				d="M0 375q0 78 29.5 146t80.5 119t119 80.5t146 29.5q66 0 127.5 -23t112.5 -65l76 76q16 16 27 11.5t11 -27.5v-217q0 -15 -11 -26q-10 -10 -25 -10l-217 -1q-23 0 -27.5 11.5t11.5 27.5l75 75q-35 26 -75.5 41t-84.5 15q-54 0 -102 -20.5t-83.5 -56.5t-56 -84t-20.5 -102 t20.5 -102t56 -83.5t83.5 -56t102 -20.5q49 0 93.5 17t79.5 47.5t58 72t29 90.5q1 6 7 12q7 5 14 4l75 -10q8 -1 12.5 -7t3.5 -14q-9 -69 -42 -128.5t-83 -103t-113.5 -68.5t-133.5 -25q-78 0 -146 29.5t-119 80.5t-80.5 119t-29.5 146z"/>

		</g>
	</g>

</svg>

