<?xml version="1.0" encoding="utf-8"?>

<!DOCTYPE svg PUBLIC "-//W3C//DTD SVG 1.1//EN" "http://www.w3.org/Graphics/SVG/1.1/DTD/svg11.dtd" [
	<!ENTITY ns_extend "http://ns.adobe.com/Extensibility/1.0/">
	<!ENTITY ns_ai "http://ns.adobe.com/AdobeIllustrator/10.0/">
	<!ENTITY ns_graphs "http://ns.adobe.com/Graphs/1.0/">
	<!ENTITY ns_vars "http://ns.adobe.com/Variables/1.0/">
	<!ENTITY ns_imrep "http://ns.adobe.com/ImageReplacement/1.0/">
	<!ENTITY ns_sfw "http://ns.adobe.com/SaveForWeb/1.0/">
	<!ENTITY ns_custom "http://ns.adobe.com/GenericCustomNamespace/1.0/">
	<!ENTITY ns_adobe_xpath "http://ns.adobe.com/XPath/1.0/">
]>
<svg version="1.1" id="Layer_1" xmlns:x="&ns_extend;" xmlns:i="&ns_ai;" xmlns:graph="&ns_graphs;"
	 xmlns="http://www.w3.org/2000/svg" xmlns:xlink="http://www.w3.org/1999/xlink" x="0px" y="0px" width="1024px" height="1024px"
	 viewBox="0 0 1024 1024" enable-background="new 0 0 1024 1024" xml:space="preserve">
	<g i:extraneous="self">
		<g>
			<path 
				fill="#231F20" 
				d="M0 437q0 65 24.5 122t67 99.5t99.5 67t122 24.5q64 0 121 -24.5t99.5 -67t67 -99.5t24.5 -122q0 -48 -13.5 -91t-38.5 -81l168 -167q9 -10 9 -23t-9 -22l-44 -44q-9 -9 -22 -9t-22 9l-168 168q-38 -25 -81 -38.5t-91 -13.5q-65 0 -122 24.5t-99.5 67t-67 99t-24.5 121.5z M125 437q0 -39 14.5 -73t40 -59.5t60 -40t73.5 -14.5t73 14.5t59.5 40t40 59.5t14.5 73t-14.5 73t-40 59.5t-59.5 40.5t-73 15t-73.5 -15t-60 -40.5t-40 -59.5t-14.5 -73zM194 437q0 25 9.5 46.5t25.5 37.5t37.5 25.5t46.5 9.5q10 0 16.5 -7t6.5 -17t-6.5 -16.5t-16.5 -6.5 q-30 0 -51 -21t-21 -51q0 -10 -6.5 -16.5t-16.5 -6.5t-17 6.5t-7 16.5z"/>

		</g>
	</g>

</svg>

