<?xml version="1.0" encoding="utf-8"?>

<!DOCTYPE svg PUBLIC "-//W3C//DTD SVG 1.1//EN" "http://www.w3.org/Graphics/SVG/1.1/DTD/svg11.dtd" [
	<!ENTITY ns_extend "http://ns.adobe.com/Extensibility/1.0/">
	<!ENTITY ns_ai "http://ns.adobe.com/AdobeIllustrator/10.0/">
	<!ENTITY ns_graphs "http://ns.adobe.com/Graphs/1.0/">
	<!ENTITY ns_vars "http://ns.adobe.com/Variables/1.0/">
	<!ENTITY ns_imrep "http://ns.adobe.com/ImageReplacement/1.0/">
	<!ENTITY ns_sfw "http://ns.adobe.com/SaveForWeb/1.0/">
	<!ENTITY ns_custom "http://ns.adobe.com/GenericCustomNamespace/1.0/">
	<!ENTITY ns_adobe_xpath "http://ns.adobe.com/XPath/1.0/">
]>
<svg version="1.1" id="Layer_1" xmlns:x="&ns_extend;" xmlns:i="&ns_ai;" xmlns:graph="&ns_graphs;"
	 xmlns="http://www.w3.org/2000/svg" xmlns:xlink="http://www.w3.org/1999/xlink" x="0px" y="0px" width="1024px" height="1024px"
	 viewBox="0 0 1024 1024" enable-background="new 0 0 1024 1024" xml:space="preserve">
	<g i:extraneous="self">
		<g>
			<path 
				fill="#231F20" 
				d="M0 150v450q0 31 12 58.5t32 47.5t47.5 32t58.5 12h408q-3 -15 -3 -31v-25q-80 -10 -151 -38h-254q-23 0 -39.5 -16.5t-16.5 -39.5v-450q0 -23 16.5 -39.5t39.5 -16.5h525q23 0 39.5 16.5t16.5 39.5v54q8 5 15.5 10.5t15.5 13.5l63 62v-140q0 -31 -12 -58t-32.5 -47.5 t-47.5 -32.5t-58 -12h-525q-31 0 -58.5 12t-47.5 32.5t-32 47.5t-12 58zM188 190v18q0 81 27.5 152.5t84.5 125t143.5 84.5t204.5 32v113q0 28 14 34t34 -14l191 -191q13 -12 13 -32q0 -19 -13 -31l-191 -191q-20 -20 -34 -14t-14 34v127q-101 0 -178 -21t-130 -57t-83 -85 t-38 -105q-2 -13 -15 -13q-12 0 -14 13q-2 11 -2 21z"/>

		</g>
	</g>

</svg>

