<?xml version="1.0" encoding="utf-8"?>

<!DOCTYPE svg PUBLIC "-//W3C//DTD SVG 1.1//EN" "http://www.w3.org/Graphics/SVG/1.1/DTD/svg11.dtd" [
	<!ENTITY ns_extend "http://ns.adobe.com/Extensibility/1.0/">
	<!ENTITY ns_ai "http://ns.adobe.com/AdobeIllustrator/10.0/">
	<!ENTITY ns_graphs "http://ns.adobe.com/Graphs/1.0/">
	<!ENTITY ns_vars "http://ns.adobe.com/Variables/1.0/">
	<!ENTITY ns_imrep "http://ns.adobe.com/ImageReplacement/1.0/">
	<!ENTITY ns_sfw "http://ns.adobe.com/SaveForWeb/1.0/">
	<!ENTITY ns_custom "http://ns.adobe.com/GenericCustomNamespace/1.0/">
	<!ENTITY ns_adobe_xpath "http://ns.adobe.com/XPath/1.0/">
]>
<svg version="1.1" id="Layer_1" xmlns:x="&ns_extend;" xmlns:i="&ns_ai;" xmlns:graph="&ns_graphs;"
	 xmlns="http://www.w3.org/2000/svg" xmlns:xlink="http://www.w3.org/1999/xlink" x="0px" y="0px" width="1024px" height="1024px"
	 viewBox="0 0 1024 1024" enable-background="new 0 0 1024 1024" xml:space="preserve">
	<g i:extraneous="self">
		<g>
			<path 
				fill="#231F20" 
				d="M0 694v37q0 19 19 19h113q8 0 18.5 -2t17.5 -4q3 -2 7 -7t7.5 -11.5t6 -13t3.5 -10.5l13 -61h658q17 0 28 -13t8 -29l-53 -282q-3 -12 -13 -20.5t-24 -8.5h-529l17 -82q2 -8 8.5 -13t14.5 -5h418q8 0 13.5 -5.5t5.5 -13.5v-38q0 -8 -5.5 -13t-13.5 -5h-80h-318h-51 q-8 0 -18 1.5t-17 4.5q-3 1 -7 6.5t-7.5 12t-6 13t-3.5 10.5l-105 496q-2 8 -8.5 13t-14.5 5h-83q-19 0 -19 19zM284 56q0 23 16.5 40t39.5 17q24 0 40.5 -17t16.5 -40t-16.5 -39.5t-40.5 -16.5q-23 0 -39.5 16.5t-16.5 39.5zM602 56q0 23 16.5 40t39.5 17t39.5 -17 t16.5 -40t-16.5 -39.5t-39.5 -16.5t-39.5 16.5t-16.5 39.5z"/>

		</g>
	</g>

</svg>

