<?xml version="1.0" encoding="utf-8"?>

<!DOCTYPE svg PUBLIC "-//W3C//DTD SVG 1.1//EN" "http://www.w3.org/Graphics/SVG/1.1/DTD/svg11.dtd" [
	<!ENTITY ns_extend "http://ns.adobe.com/Extensibility/1.0/">
	<!ENTITY ns_ai "http://ns.adobe.com/AdobeIllustrator/10.0/">
	<!ENTITY ns_graphs "http://ns.adobe.com/Graphs/1.0/">
	<!ENTITY ns_vars "http://ns.adobe.com/Variables/1.0/">
	<!ENTITY ns_imrep "http://ns.adobe.com/ImageReplacement/1.0/">
	<!ENTITY ns_sfw "http://ns.adobe.com/SaveForWeb/1.0/">
	<!ENTITY ns_custom "http://ns.adobe.com/GenericCustomNamespace/1.0/">
	<!ENTITY ns_adobe_xpath "http://ns.adobe.com/XPath/1.0/">
]>
<svg version="1.1" id="Layer_1" xmlns:x="&ns_extend;" xmlns:i="&ns_ai;" xmlns:graph="&ns_graphs;"
	 xmlns="http://www.w3.org/2000/svg" xmlns:xlink="http://www.w3.org/1999/xlink" x="0px" y="0px" width="1024px" height="1024px"
	 viewBox="0 0 1024 1024" enable-background="new 0 0 1024 1024" xml:space="preserve">
	<g i:extraneous="self">
		<g>
			<path 
				fill="#231F20" 
				d="M0 150v450q0 31 12 58t32.5 47.5t47.5 32.5t58 12h225v-94h-225q-23 0 -39.5 -16.5t-16.5 -39.5v-450q0 -23 16.5 -39.5t39.5 -16.5h225v-94h-225q-31 0 -58 12t-47.5 32.5t-32.5 47.5t-12 58zM248 285v180q0 16 11 26.5t27 10.5h209v143q0 20 19 28q19 7 32 -7l270 -270 q9 -9 9 -21.5t-9 -20.5l-270 -270q-9 -9 -21 -9q-5 0 -11 2q-19 8 -19 28v142h-209q-16 0 -27 11t-11 27z"/>

		</g>
	</g>

</svg>

