<?xml version="1.0" encoding="utf-8"?>

<!DOCTYPE svg PUBLIC "-//W3C//DTD SVG 1.1//EN" "http://www.w3.org/Graphics/SVG/1.1/DTD/svg11.dtd" [
	<!ENTITY ns_extend "http://ns.adobe.com/Extensibility/1.0/">
	<!ENTITY ns_ai "http://ns.adobe.com/AdobeIllustrator/10.0/">
	<!ENTITY ns_graphs "http://ns.adobe.com/Graphs/1.0/">
	<!ENTITY ns_vars "http://ns.adobe.com/Variables/1.0/">
	<!ENTITY ns_imrep "http://ns.adobe.com/ImageReplacement/1.0/">
	<!ENTITY ns_sfw "http://ns.adobe.com/SaveForWeb/1.0/">
	<!ENTITY ns_custom "http://ns.adobe.com/GenericCustomNamespace/1.0/">
	<!ENTITY ns_adobe_xpath "http://ns.adobe.com/XPath/1.0/">
]>
<svg version="1.1" id="Layer_1" xmlns:x="&ns_extend;" xmlns:i="&ns_ai;" xmlns:graph="&ns_graphs;"
	 xmlns="http://www.w3.org/2000/svg" xmlns:xlink="http://www.w3.org/1999/xlink" x="0px" y="0px" width="1024px" height="1024px"
	 viewBox="0 0 1024 1024" enable-background="new 0 0 1024 1024" xml:space="preserve">
	<g i:extraneous="self">
		<g>
			<path 
				fill="#231F20" 
				d="M0 285v180q0 16 11 26.5t27 10.5h209v143q0 20 18 28q19 7 33 -7l270 -270q8 -9 8 -21.5t-8 -20.5l-270 -270q-9 -9 -21 -9q-4 0 -12 2q-18 8 -18 28v142h-209q-16 0 -27 11t-11 27zM450 0v94h225q23 0 39.5 16.5t16.5 39.5v450q0 23 -16.5 39.5t-39.5 16.5h-225v94h225 q31 0 58 -12t47.5 -32t32.5 -47.5t12 -58.5v-450q0 -31 -12 -58t-32.5 -47.5t-47.5 -32.5t-58 -12h-225z"/>

		</g>
	</g>

</svg>

