<?xml version="1.0" encoding="utf-8"?>

<!DOCTYPE svg PUBLIC "-//W3C//DTD SVG 1.1//EN" "http://www.w3.org/Graphics/SVG/1.1/DTD/svg11.dtd" [
	<!ENTITY ns_extend "http://ns.adobe.com/Extensibility/1.0/">
	<!ENTITY ns_ai "http://ns.adobe.com/AdobeIllustrator/10.0/">
	<!ENTITY ns_graphs "http://ns.adobe.com/Graphs/1.0/">
	<!ENTITY ns_vars "http://ns.adobe.com/Variables/1.0/">
	<!ENTITY ns_imrep "http://ns.adobe.com/ImageReplacement/1.0/">
	<!ENTITY ns_sfw "http://ns.adobe.com/SaveForWeb/1.0/">
	<!ENTITY ns_custom "http://ns.adobe.com/GenericCustomNamespace/1.0/">
	<!ENTITY ns_adobe_xpath "http://ns.adobe.com/XPath/1.0/">
]>
<svg version="1.1" id="Layer_1" xmlns:x="&ns_extend;" xmlns:i="&ns_ai;" xmlns:graph="&ns_graphs;"
	 xmlns="http://www.w3.org/2000/svg" xmlns:xlink="http://www.w3.org/1999/xlink" x="0px" y="0px" width="1024px" height="1024px"
	 viewBox="0 0 1024 1024" enable-background="new 0 0 1024 1024" xml:space="preserve">
	<g i:extraneous="self">
		<g>
			<path 
				fill="#231F20" 
				d="M0 19v127q0 8 5.5 13.5t13.5 5.5h94q8 0 13 -5.5t5 -13.5v-127q0 -8 -5 -13.5t-13 -5.5h-94q-19 0 -19 19zM192 19v212q0 8 5.5 13.5t13.5 5.5h94q8 0 13 -5.5t5 -13.5v-212q0 -8 -5 -13.5t-13 -5.5h-94q-8 0 -13.5 5.5t-5.5 13.5zM384 19v330q0 8 5.5 13.5t13.5 5.5h94 q8 0 13.5 -5.5t5.5 -13.5v-330q0 -8 -5.5 -13.5t-13.5 -5.5h-94q-8 0 -13.5 5.5t-5.5 13.5zM577 19v486q0 8 5 13.5t13 5.5h94q8 0 13.5 -5.5t5.5 -13.5v-486q0 -8 -5.5 -13.5t-13.5 -5.5h-94q-8 0 -13 5.5t-5 13.5zM769 19v712q0 19 19 19h93q19 0 19 -19v-712 q0 -19 -19 -19h-93q-19 0 -19 19z"/>

		</g>
	</g>

</svg>

