<?xml version="1.0" encoding="utf-8"?>

<!DOCTYPE svg PUBLIC "-//W3C//DTD SVG 1.1//EN" "http://www.w3.org/Graphics/SVG/1.1/DTD/svg11.dtd" [
	<!ENTITY ns_extend "http://ns.adobe.com/Extensibility/1.0/">
	<!ENTITY ns_ai "http://ns.adobe.com/AdobeIllustrator/10.0/">
	<!ENTITY ns_graphs "http://ns.adobe.com/Graphs/1.0/">
	<!ENTITY ns_vars "http://ns.adobe.com/Variables/1.0/">
	<!ENTITY ns_imrep "http://ns.adobe.com/ImageReplacement/1.0/">
	<!ENTITY ns_sfw "http://ns.adobe.com/SaveForWeb/1.0/">
	<!ENTITY ns_custom "http://ns.adobe.com/GenericCustomNamespace/1.0/">
	<!ENTITY ns_adobe_xpath "http://ns.adobe.com/XPath/1.0/">
]>
<svg version="1.1" id="Layer_1" xmlns:x="&ns_extend;" xmlns:i="&ns_ai;" xmlns:graph="&ns_graphs;"
	 xmlns="http://www.w3.org/2000/svg" xmlns:xlink="http://www.w3.org/1999/xlink" x="0px" y="0px" width="1024px" height="1024px"
	 viewBox="0 0 1024 1024" enable-background="new 0 0 1024 1024" xml:space="preserve">
	<g i:extraneous="self">
		<g>
			<path 
				fill="#231F20" 
				d="M0 475v217q0 24 17 41t41 17h217q24 0 53.5 -11.5t45.5 -29.5l321 -358q16 -17 16.5 -41t-16.5 -41l-252 -251q-17 -17 -41 -17.5t-41 17.5l-320 358q-16 18 -28.5 46.5t-12.5 52.5zM94 600q0 -23 16.5 -39.5t39.5 -16.5t39.5 16.5t16.5 39.5t-16.5 39.5t-39.5 16.5 t-39.5 -16.5t-16.5 -39.5zM379 749h83q24 0 53.5 -12t45.5 -29l321 -358q16 -18 16.5 -41.5t-16.5 -40.5l-252 -251q-17 -17 -41 -17.5t-41 17.5l-6 7l246 245q17 17 16.5 41t-16.5 41l-320 358q-15 16 -40.5 27t-48.5 13z"/>

		</g>
	</g>

</svg>

