<?xml version="1.0" encoding="utf-8"?>

<!DOCTYPE svg PUBLIC "-//W3C//DTD SVG 1.1//EN" "http://www.w3.org/Graphics/SVG/1.1/DTD/svg11.dtd" [
	<!ENTITY ns_extend "http://ns.adobe.com/Extensibility/1.0/">
	<!ENTITY ns_ai "http://ns.adobe.com/AdobeIllustrator/10.0/">
	<!ENTITY ns_graphs "http://ns.adobe.com/Graphs/1.0/">
	<!ENTITY ns_vars "http://ns.adobe.com/Variables/1.0/">
	<!ENTITY ns_imrep "http://ns.adobe.com/ImageReplacement/1.0/">
	<!ENTITY ns_sfw "http://ns.adobe.com/SaveForWeb/1.0/">
	<!ENTITY ns_custom "http://ns.adobe.com/GenericCustomNamespace/1.0/">
	<!ENTITY ns_adobe_xpath "http://ns.adobe.com/XPath/1.0/">
]>
<svg version="1.1" id="Layer_1" xmlns:x="&ns_extend;" xmlns:i="&ns_ai;" xmlns:graph="&ns_graphs;"
	 xmlns="http://www.w3.org/2000/svg" xmlns:xlink="http://www.w3.org/1999/xlink" x="0px" y="0px" width="1024px" height="1024px"
	 viewBox="0 0 1024 1024" enable-background="new 0 0 1024 1024" xml:space="preserve">
	<g i:extraneous="self">
		<g>
			<path 
				fill="#231F20" 
				d="M0 114q0 9 6 15l91 90q9 10 15.5 7t6.5 -16v-59h512v59q0 13 6.5 16t16.5 -7l90 -90q6 -6 6 -15t-6 -15l-90 -91q-10 -9 -16.5 -6.5t-6.5 16.5v58h-512v-58q0 -14 -6.5 -16.5t-15.5 6.5l-91 91q-6 6 -6 15zM0 602q7 14 16.5 42.5t21.5 71.5q3 13 5.5 21t4.5 13h27 q4 -6 5 -7q13 -23 18 -28q1 0 17.5 -0.5t38.5 -0.5h44h36h60l9 1h53h99h203l26 3q6 5 12 22q1 2 2 4.5t3 6.5h19h14v-92v-39v-22q0 -6 -0.5 -10.5t-1.5 -9.5q-16 -5 -31 -7q-12 18 -25 50q-13 29 -17 36q-6 5 -13 7q-3 1 -20.5 1.5t-41.5 0.5h-50h-48h-14q-8 0 -17 -1 q-1 -9 -1.5 -16t-0.5 -12l2 -217l-1 -58q0 -30 6 -45q6 -3 26 -6q2 0 10 -2t22 -5q7 -2 13 -3.5t11 -3.5q1 -8 1.5 -12.5t0.5 -6.5t-0.5 -5t-0.5 -7h-16q-46 0 -77 3q-32 3 -115 3q-7 0 -26 -1.5t-51 -3.5q-13 -1 -21 -1.5t-12 -0.5q0 8 -1 10v10v4q10 13 36 19q44 10 64 20 q2 4 3 9.5t2 12.5q0 9 0.5 34.5t0.5 58.5t-0.5 69.5t-1 68t-1 52.5t-0.5 23q0 4 -3 6q-1 1 -6 3q-7 1 -29 1h-60q-10 0 -30.5 -0.5t-41.5 -1t-38 -2t-20 -3.5q-20 -12 -57 -60q-10 -14 -16 -14q-11 5 -17 9.5t-9 7.5z"/>

		</g>
	</g>

</svg>

