<?xml version="1.0" encoding="utf-8"?>

<!DOCTYPE svg PUBLIC "-//W3C//DTD SVG 1.1//EN" "http://www.w3.org/Graphics/SVG/1.1/DTD/svg11.dtd" [
	<!ENTITY ns_extend "http://ns.adobe.com/Extensibility/1.0/">
	<!ENTITY ns_ai "http://ns.adobe.com/AdobeIllustrator/10.0/">
	<!ENTITY ns_graphs "http://ns.adobe.com/Graphs/1.0/">
	<!ENTITY ns_vars "http://ns.adobe.com/Variables/1.0/">
	<!ENTITY ns_imrep "http://ns.adobe.com/ImageReplacement/1.0/">
	<!ENTITY ns_sfw "http://ns.adobe.com/SaveForWeb/1.0/">
	<!ENTITY ns_custom "http://ns.adobe.com/GenericCustomNamespace/1.0/">
	<!ENTITY ns_adobe_xpath "http://ns.adobe.com/XPath/1.0/">
]>
<svg version="1.1" id="Layer_1" xmlns:x="&ns_extend;" xmlns:i="&ns_ai;" xmlns:graph="&ns_graphs;"
	 xmlns="http://www.w3.org/2000/svg" xmlns:xlink="http://www.w3.org/1999/xlink" x="0px" y="0px" width="1024px" height="1024px"
	 viewBox="0 0 1024 1024" enable-background="new 0 0 1024 1024" xml:space="preserve">
	<g i:extraneous="self">
		<g>
			<path 
				fill="#231F20" 
				d="M0 562q7 18 17 54t22 90q4 16 6.5 26.5t4.5 15.5h28q2 -3 3 -5l2 -4q14 -28 20 -35q8 -2 63 -2q17 0 32.5 0.5t29.5 0.5l10 1l55 1l104 -1h141l27 5q5 4 13 26l2 6q1 3 3 8l21 1h5q3 0 8 -1q1 -19 0.5 -47.5t0.5 -67.5v-49v-28q0 -7 -0.5 -13.5t-1.5 -11.5 q-10 -4 -18 -5.5t-15 -3.5q-13 25 -26 63q-14 40 -18 45q-6 7 -13 10q-5 2 -30 2h-67h-15q-8 0 -17 -2q-3 -21 -3 -35l1 -74v-163l1 -175v-72q0 -35 5 -57q4 -2 10.5 -4t16.5 -4q2 0 10.5 -2t24.5 -6q13 -5 24 -9q2 -10 2 -16v-9v-5q0 -4 -1 -9h-17q-23 0 -43 1t-37 3 t-46.5 3t-72.5 1q-8 0 -28 -2t-53 -5q-14 -1 -22 -1.5t-12 -0.5q0 5 -0.5 8t-0.5 5l-1 12v5q9 15 39 24q46 13 66 24q2 5 3 12.5t2 15.5q2 33 3 86t0 125l-2 209q-1 44 -1 69.5t-2 35.5q0 4 -3 7q-2 3 -6 3q-8 2 -31 2h-62q-44 0 -58 -10q-20 -14 -59 -75q-11 -17 -17 -17 q-11 6 -17.5 11.5t-9.5 9.5zM675.5 112.5q2.5 6.5 15.5 6.5h59v512h-59q-13 0 -15.5 6.5t6.5 16.5l90 90q7 6 16 6q7 0 15 -6l90 -90q9 -10 6.5 -16.5t-16.5 -6.5h-58v-512h58q14 0 16.5 -6.5t-6.5 -15.5l-90 -91q-8 -6 -16 -6t-15 6l-90 91q-9 9 -6.5 15.5z"/>

		</g>
	</g>

</svg>

