<?xml version="1.0" encoding="utf-8"?>

<!DOCTYPE svg PUBLIC "-//W3C//DTD SVG 1.1//EN" "http://www.w3.org/Graphics/SVG/1.1/DTD/svg11.dtd" [
	<!ENTITY ns_extend "http://ns.adobe.com/Extensibility/1.0/">
	<!ENTITY ns_ai "http://ns.adobe.com/AdobeIllustrator/10.0/">
	<!ENTITY ns_graphs "http://ns.adobe.com/Graphs/1.0/">
	<!ENTITY ns_vars "http://ns.adobe.com/Variables/1.0/">
	<!ENTITY ns_imrep "http://ns.adobe.com/ImageReplacement/1.0/">
	<!ENTITY ns_sfw "http://ns.adobe.com/SaveForWeb/1.0/">
	<!ENTITY ns_custom "http://ns.adobe.com/GenericCustomNamespace/1.0/">
	<!ENTITY ns_adobe_xpath "http://ns.adobe.com/XPath/1.0/">
]>
<svg version="1.1" id="Layer_1" xmlns:x="&ns_extend;" xmlns:i="&ns_ai;" xmlns:graph="&ns_graphs;"
	 xmlns="http://www.w3.org/2000/svg" xmlns:xlink="http://www.w3.org/1999/xlink" x="0px" y="0px" width="1024px" height="1024px"
	 viewBox="0 0 1024 1024" enable-background="new 0 0 1024 1024" xml:space="preserve">
	<g i:extraneous="self">
		<g>
			<path 
				fill="#231F20" 
				d="M0 266q0 39 11 75t31 67q10 16 33 47t50.5 72.5t53.5 90.5t42 102q5 17 17.5 24.5t26.5 5.5q15 2 27.5 -5.5t17.5 -24.5q16 -53 42 -102t53.5 -90.5t50.5 -72.5t33 -47q20 -31 31 -67t11 -75q0 -55 -21 -103.5t-57 -84.5t-84.5 -57t-103.5 -21t-103 21t-84 57t-57 84.5 t-21 103.5zM116 207q0 -28 19.5 -47t47.5 -19q27 0 46.5 19t19.5 47q0 18 -10 36q-3 4 -9 11.5t-12.5 18t-13 23t-10.5 25.5q-4 9 -11 7q-9 2 -11 -7q-4 -13 -11 -25.5t-13.5 -23t-12.5 -18t-8 -11.5q-11 -17 -11 -36z"/>

		</g>
	</g>

</svg>

