<?xml version="1.0" encoding="utf-8"?>

<!DOCTYPE svg PUBLIC "-//W3C//DTD SVG 1.1//EN" "http://www.w3.org/Graphics/SVG/1.1/DTD/svg11.dtd" [
	<!ENTITY ns_extend "http://ns.adobe.com/Extensibility/1.0/">
	<!ENTITY ns_ai "http://ns.adobe.com/AdobeIllustrator/10.0/">
	<!ENTITY ns_graphs "http://ns.adobe.com/Graphs/1.0/">
	<!ENTITY ns_vars "http://ns.adobe.com/Variables/1.0/">
	<!ENTITY ns_imrep "http://ns.adobe.com/ImageReplacement/1.0/">
	<!ENTITY ns_sfw "http://ns.adobe.com/SaveForWeb/1.0/">
	<!ENTITY ns_custom "http://ns.adobe.com/GenericCustomNamespace/1.0/">
	<!ENTITY ns_adobe_xpath "http://ns.adobe.com/XPath/1.0/">
]>
<svg version="1.1" id="Layer_1" xmlns:x="&ns_extend;" xmlns:i="&ns_ai;" xmlns:graph="&ns_graphs;"
	 xmlns="http://www.w3.org/2000/svg" xmlns:xlink="http://www.w3.org/1999/xlink" x="0px" y="0px" width="1024px" height="1024px"
	 viewBox="0 0 1024 1024" enable-background="new 0 0 1024 1024" xml:space="preserve">
	<g i:extraneous="self">
		<g>
			<path 
				fill="#231F20" 
				d="M0 94v562q0 19 7.5 36.5t20 30t29.5 20t36 7.5h563q39 0 66.5 -27.5t27.5 -66.5v-562q0 -20 -7.5 -37t-20 -29.5t-30 -20t-36.5 -7.5h-563q-19 0 -36 7.5t-29.5 20t-20 29.5t-7.5 37zM98 273q39 -54 97 -82.5t127 -28.5q47 0 90 13t78 36t60.5 55t37.5 70q40 3 63 28 q7 7 2 16q-4 9 -15 7h-2q11 11 15 22q4 10 -4 16q-7 7 -16 1q-4 -2 -14.5 -5t-22.5 -3q-2 0 -3.5 0.5t-3.5 0.5q0 1 -0.5 2t-0.5 2q-8 30 -28 54t-46 35q2 2 3 4t3 4q3 8 0 16q-1 3 -6 8t-17 4q-1 2 -3 4q-6 6 -12 4q-12 -2 -24 -6l-1 1q-7 4 -15 -1q-29 -18 -48 -49 t-33 -66q-17 15 -28 20q-30 17 -63 31t-75 30q-7 2 -12 -2q-5 -3 -7 -10q-1 -13 4 -28.5t19 -30.5q-12 -3 -10 -16q6 -33 33 -49l-6 -6q-7 -7 -2 -16q2 -6 13 -18.5t32 -18.5q-3 -6 -3 -11t1 -7q3 -16 19 -24q-18 -12 -38.5 -16.5t-41.5 -3t-40.5 10t-34.5 22.5q-4 4 -9.5 4 t-9.5 -4q-11 -9 -2 -19z"/>

		</g>
	</g>

</svg>

