<?xml version="1.0" encoding="utf-8"?>

<!DOCTYPE svg PUBLIC "-//W3C//DTD SVG 1.1//EN" "http://www.w3.org/Graphics/SVG/1.1/DTD/svg11.dtd" [
	<!ENTITY ns_extend "http://ns.adobe.com/Extensibility/1.0/">
	<!ENTITY ns_ai "http://ns.adobe.com/AdobeIllustrator/10.0/">
	<!ENTITY ns_graphs "http://ns.adobe.com/Graphs/1.0/">
	<!ENTITY ns_vars "http://ns.adobe.com/Variables/1.0/">
	<!ENTITY ns_imrep "http://ns.adobe.com/ImageReplacement/1.0/">
	<!ENTITY ns_sfw "http://ns.adobe.com/SaveForWeb/1.0/">
	<!ENTITY ns_custom "http://ns.adobe.com/GenericCustomNamespace/1.0/">
	<!ENTITY ns_adobe_xpath "http://ns.adobe.com/XPath/1.0/">
]>
<svg version="1.1" id="Layer_1" xmlns:x="&ns_extend;" xmlns:i="&ns_ai;" xmlns:graph="&ns_graphs;"
	 xmlns="http://www.w3.org/2000/svg" xmlns:xlink="http://www.w3.org/1999/xlink" x="0px" y="0px" width="1024px" height="1024px"
	 viewBox="0 0 1024 1024" enable-background="new 0 0 1024 1024" xml:space="preserve">
	<g i:extraneous="self">
		<g>
			<path 
				fill="#231F20" 
				d="M0 286v178q0 8 5.5 13.5t13.5 5.5h196l153 153q23 23 39.5 16t16.5 -39v-476q0 -32 -16.5 -39t-39.5 16l-153 153h-196q-8 0 -13.5 5.5t-5.5 13.5zM482 205q-4 15 4 29q39 67 39 141q0 73 -39 141q-8 14 -4 29t18 23t28.5 4t22.5 -18q49 -87 49 -179t-49 -179 q-11 -19 -33 -19q-8 0 -18 5q-14 8 -18 23zM603 117q-3 15 5 29q67 105 67 229t-67 229q-8 14 -5 29t17 23t29 5t23 -17q38 -61 58 -129t20 -140t-20 -140t-58 -129q-5 -9 -14 -13.5t-18 -4.5q-11 0 -20 6q-14 8 -17 23zM723.5 30q-2.5 15 5.5 28q48 72 72 152t24 165 t-24 165t-72 152q-8 13 -5.5 28t16.5 24q13 8 28 5t24 -16q54 -81 81 -171.5t27 -186.5t-27 -186.5t-81 -171.5q-12 -17 -32 -17q-11 0 -20 6q-14 9 -16.5 24z"/>

		</g>
	</g>

</svg>

