<?xml version="1.0" encoding="utf-8"?>
<!-- Generator: Adobe Illustrator 15.0.0, SVG Export Plug-In . SVG Version: 6.00 Build 0)  -->
<!DOCTYPE svg PUBLIC "-//W3C//DTD SVG 1.1//EN" "http://www.w3.org/Graphics/SVG/1.1/DTD/svg11.dtd">
<svg version="1.1" id="Layer_1" xmlns="http://www.w3.org/2000/svg" xmlns:xlink="http://www.w3.org/1999/xlink" x="0px" y="0px"
	 width="512px" height="512px" viewBox="0 0 512 512" enable-background="new 0 0 512 512" xml:space="preserve">
<g>
	<path fill="none" d="M269.739,208.265c-30.487,0-62.691,6.522-62.691,42.463c0,18.209,9.43,30.547,25.622,30.547
		c11.859,0,22.479-7.295,29.181-19.158c8.306-14.588,7.889-28.29,7.889-44.719V208.265z"/>
	<path d="M454.655,352.762c-62.828,26.668-131.155,39.52-193.27,39.52c-92.101,0-181.261-25.24-253.37-67.197
		c-6.297-3.693-11,2.773-5.753,7.521c66.818,60.352,155.136,96.637,253.242,96.637c69.97,0,151.234-22.051,207.299-63.375
		C472.084,358.977,464.147,348.73,454.655,352.762z"/>
	<path d="M510.049,320.969c-6.13-7.559-58.711-14.068-90.756,8.484c-4.956,3.443-4.113,8.23,1.387,7.561
		c18.059-2.145,58.291-6.973,65.431,2.184c7.186,9.197-7.978,47.035-14.738,63.918c-2.059,5.123,2.351,7.182,6.971,3.318
		C508.451,381.277,516.181,328.572,510.049,320.969z"/>
	<path d="M269.739,174.456c-24.437,2.787-56.405,4.566-79.299,14.647c-26.394,11.389-44.96,34.698-44.96,68.922
		c0,43.832,27.639,65.717,63.109,65.717c30.011,0,46.381-7.061,69.512-30.666c7.71,11.094,10.203,16.492,24.197,28.115
		c3.146,1.658,7.179,1.48,9.965-1.01l0.119,0.119c8.423-7.475,23.726-20.816,32.322-27.996c3.442-2.848,2.849-7.41,0.119-11.209
		c-7.709-10.678-15.895-19.334-15.895-39.086v-65.715c0-27.818,1.959-53.382-18.566-72.539
		c-16.19-15.537-42.998-20.997-63.52-20.997c-40.095,0-84.874,14.948-94.307,64.532c-0.948,5.277,2.847,8.064,6.288,8.837
		l40.926,4.39c3.795-0.18,6.583-3.916,7.296-7.711c3.499-17.082,17.853-25.326,33.925-25.326c8.66,0,18.503,3.203,23.667,10.974
		c5.869,8.659,5.1,20.522,5.1,30.546L269.739,174.456L269.739,174.456z M261.851,262.117c-6.702,11.863-17.322,19.158-29.181,19.158
		c-16.192,0-25.622-12.338-25.622-30.547c0-35.939,32.204-42.464,62.691-42.464v9.133
		C269.739,233.827,270.156,247.528,261.851,262.117z"/>
</g>
</svg>
