<?xml version="1.0" encoding="utf-8"?>
<!-- Generator: Adobe Illustrator 15.0.0, SVG Export Plug-In . SVG Version: 6.00 Build 0)  -->
<!DOCTYPE svg PUBLIC "-//W3C//DTD SVG 1.1//EN" "http://www.w3.org/Graphics/SVG/1.1/DTD/svg11.dtd">
<svg version="1.1" id="Layer_1" xmlns="http://www.w3.org/2000/svg" xmlns:xlink="http://www.w3.org/1999/xlink" x="0px" y="0px"
	 width="512px" height="512px" viewBox="0 0 512 512" enable-background="new 0 0 512 512" xml:space="preserve">
<g>
	<path d="M395.75,272.047c-0.647-64.842,52.879-95.939,55.271-97.484c-30.076-44.01-76.925-50.039-93.621-50.736
		c-39.871-4.037-77.798,23.474-98.034,23.474c-20.184,0-51.409-22.877-84.476-22.276c-43.458,0.646-83.529,25.269-105.906,64.19
		c-45.153,78.349-11.563,194.421,32.445,257.964c21.504,31.101,47.146,66.038,80.813,64.79
		c32.421-1.294,44.681-20.979,83.879-20.979c39.198,0,50.214,20.979,84.526,20.335c34.887-0.648,56.991-31.699,78.346-62.898
		c24.695-36.084,34.863-71.019,35.462-72.813C463.68,375.261,396.424,349.496,395.75,272.047z"/>
	<path d="M331.283,81.761C349.151,60.082,361.212,30.005,357.922,0c-25.739,1.048-56.939,17.145-75.405,38.775
		c-16.571,19.188-31.074,49.813-27.188,79.218C284.063,120.236,313.394,103.391,331.283,81.761z"/>
</g>
</svg>
