<?xml version="1.0" encoding="utf-8"?>
<!-- Generator: Adobe Illustrator 16.0.0, SVG Export Plug-In . SVG Version: 6.00 Build 0)  -->
<!DOCTYPE svg PUBLIC "-//W3C//DTD SVG 1.1//EN" "http://www.w3.org/Graphics/SVG/1.1/DTD/svg11.dtd">
<svg version="1.1" id="Layer_1" xmlns="http://www.w3.org/2000/svg" xmlns:xlink="http://www.w3.org/1999/xlink" x="0px" y="0px"
	 width="191.331px" height="55.326px" viewBox="0 0 191.331 55.326" enable-background="new 0 0 191.331 55.326"
	 xml:space="preserve">
<g>
	<g>
		<path fill-rule="evenodd" clip-rule="evenodd" fill="#231F20" d="M47.556,40.59c-1.299,2.881-1.922,4.166-3.595,6.711
			c-2.334,3.555-5.625,7.979-9.703,8.018c-3.625,0.033-4.555-2.359-9.473-2.332c-4.917,0.027-5.944,2.373-9.568,2.34
			c-4.078-0.037-7.197-4.033-9.532-7.586c-6.529-9.938-7.212-21.6-3.185-27.799c2.862-4.406,7.376-6.984,11.622-6.984
			c4.323,0,7.04,2.369,10.613,2.369c3.467,0,5.579-2.373,10.576-2.373c3.777,0,7.779,2.057,10.631,5.611
			C36.598,23.684,38.116,37.023,47.556,40.59L47.556,40.59z"/>
		<path fill-rule="evenodd" clip-rule="evenodd" fill="#231F20" d="M31.52,8.982c1.815-2.33,3.194-5.619,2.694-8.982
			c-2.966,0.205-6.435,2.092-8.46,4.551c-1.838,2.232-3.356,5.543-2.765,8.762C26.226,13.412,29.576,11.479,31.52,8.982L31.52,8.982
			z"/>
	</g>
	<g>
		<path fill="#231F20" d="M64.13,24.795c0,2.017-1.536,3.648-3.937,3.648c-2.304,0-3.84-1.632-3.792-3.648
			c-0.048-2.112,1.488-3.696,3.84-3.696S64.083,22.683,64.13,24.795z M56.594,54.798V31.324h7.297v23.474H56.594z"/>
		<path fill="#231F20" d="M76.226,28.588h-8.688v-6.145h24.866v6.145H83.57v26.21h-7.345V28.588z"/>
		<path fill="#231F20" d="M115.587,47.261c0,3.072,0.096,5.569,0.191,7.537h-6.336l-0.336-3.312h-0.145
			c-0.912,1.44-3.12,3.841-7.345,3.841c-4.753,0-8.257-2.977-8.257-10.226V31.324h7.345v12.625c0,3.408,1.104,5.472,3.648,5.472
			c2.017,0,3.169-1.392,3.648-2.544c0.192-0.432,0.239-1.008,0.239-1.584V31.324h7.346V47.261z"/>
		<path fill="#231F20" d="M121.441,38.812c0-2.929-0.096-5.425-0.191-7.488h6.336l0.336,3.216h0.145
			c0.959-1.488,3.359-3.744,7.248-3.744c4.801,0,8.4,3.168,8.4,10.081v13.921h-7.296V41.789c0-3.024-1.056-5.089-3.696-5.089
			c-2.017,0-3.217,1.393-3.697,2.736c-0.191,0.48-0.287,1.152-0.287,1.824v13.537h-7.297V38.812z"/>
		<path fill="#231F20" d="M155.185,45.389c0.24,3.024,3.217,4.465,6.625,4.465c2.496,0,4.512-0.336,6.48-0.96l0.96,4.944
			c-2.399,0.96-5.328,1.488-8.497,1.488c-7.969,0-12.529-4.656-12.529-12.001c0-5.953,3.697-12.529,11.857-12.529
			c7.585,0,10.465,5.904,10.465,11.713c0,1.248-0.144,2.353-0.239,2.88H155.185z M163.779,40.396c0-1.776-0.769-4.752-4.129-4.752
			c-3.072,0-4.32,2.784-4.513,4.752H163.779z"/>
		<path fill="#231F20" d="M174.865,48.413c1.345,0.816,4.129,1.776,6.289,1.776c2.208,0,3.12-0.769,3.12-1.968
			c0-1.2-0.72-1.776-3.456-2.688c-4.849-1.632-6.721-4.272-6.673-7.009c0-4.416,3.744-7.729,9.553-7.729
			c2.736,0,5.185,0.624,6.625,1.344l-1.297,5.041c-1.056-0.576-3.072-1.345-5.088-1.345c-1.776,0-2.784,0.721-2.784,1.921
			c0,1.104,0.912,1.68,3.792,2.688c4.465,1.536,6.337,3.793,6.385,7.249c0,4.368-3.456,7.633-10.177,7.633
			c-3.072,0-5.809-0.721-7.585-1.681L174.865,48.413z"/>
	</g>
</g>
</svg>
