<?xml version="1.0" encoding="utf-8"?>
<!-- Generator: Adobe Illustrator 15.0.0, SVG Export Plug-In . SVG Version: 6.00 Build 0)  -->
<!DOCTYPE svg PUBLIC "-//W3C//DTD SVG 1.1//EN" "http://www.w3.org/Graphics/SVG/1.1/DTD/svg11.dtd">
<svg version="1.1" id="Layer_1" xmlns="http://www.w3.org/2000/svg" xmlns:xlink="http://www.w3.org/1999/xlink" x="0px" y="0px"
	 width="512px" height="512px" viewBox="0 0 512 512" enable-background="new 0 0 512 512" xml:space="preserve">
<path d="M166.492,0C74.587,0,0.065,74,0,165.333v181.399C0,438.059,74.587,512,166.492,512h179.211
	C437.676,512,512,438.059,512,346.732V229.541c0-18.251-14.72-33.065-33.102-33.065h-28.103h-0.599
	c-17.583,0-31.9-13.62-33.101-30.749l-0.198-0.394C416.899,73.999,342.372,0,250.405,0H166.492L166.492,0z M162.365,134.113h94.302
	c17.648,0,32.034,14.221,32.034,31.813c0,17.521-14.386,31.808-32.034,31.808h-94.302c-17.647,0-32.034-14.285-32.034-31.808
	C130.329,148.334,144.716,134.113,162.365,134.113z M162.164,320.279h189.201c16.719,0,30.368,13.354,30.368,29.953
	c0,16.598-13.649,30.225-30.368,30.225H162.164c-16.718,0-30.17-13.627-30.17-30.225
	C131.994,333.634,145.448,320.279,162.164,320.279z"/>
</svg>
