<?xml version="1.0" encoding="utf-8"?>
<!-- Generator: Adobe Illustrator 15.0.0, SVG Export Plug-In . SVG Version: 6.00 Build 0)  -->
<!DOCTYPE svg PUBLIC "-//W3C//DTD SVG 1.1//EN" "http://www.w3.org/Graphics/SVG/1.1/DTD/svg11.dtd">
<svg version="1.1" id="Layer_1" xmlns="http://www.w3.org/2000/svg" xmlns:xlink="http://www.w3.org/1999/xlink" x="0px" y="0px"
	 width="512px" height="512px" viewBox="0 0 512 512" enable-background="new 0 0 512 512" xml:space="preserve">
<g>
	<path d="M198.515,220.16h57.888c10.833,0,19.665-8.879,19.665-19.71c0-10.875-8.831-19.714-19.665-19.714h-57.888
		c-10.833,0-19.664,8.839-19.664,19.714C178.851,211.281,187.682,220.16,198.515,220.16z"/>
	<path d="M314.533,295.936H198.393c-10.262,0-18.521,8.09-18.521,18.35c0,10.261,8.259,18.516,18.521,18.516h116.141
		c10.264,0,18.644-8.255,18.644-18.516S324.797,295.936,314.533,295.936z"/>
	<path d="M512,85.341C512,38.209,473.798,0,426.674,0H85.325C38.202,0,0,38.209,0,85.341v341.318C0,473.792,38.202,512,85.325,512
		h341.348c47.125,0,85.325-38.208,85.325-85.341L512,85.341L512,85.341z M413.184,312.081c0,56.455-45.667,102.127-102.124,102.127
		H201.05c-56.417,0-102.234-45.672-102.234-102.127V199.946c0-56.46,45.817-102.154,102.234-102.154h51.51
		c56.456,0,102.203,45.72,102.203,102.178l0.122,0.201c0.735,10.588,9.524,18.965,20.317,18.965h0.367h17.251
		c11.284,0,20.362,9.22,20.362,20.501L413.184,312.081L413.184,312.081z"/>
</g>
</svg>
