<?xml version="1.0" encoding="utf-8"?>
<!-- Generator: Adobe Illustrator 15.0.0, SVG Export Plug-In . SVG Version: 6.00 Build 0)  -->
<!DOCTYPE svg PUBLIC "-//W3C//DTD SVG 1.1//EN" "http://www.w3.org/Graphics/SVG/1.1/DTD/svg11.dtd">
<svg version="1.1" id="Layer_1" xmlns="http://www.w3.org/2000/svg" xmlns:xlink="http://www.w3.org/1999/xlink" x="0px" y="0px"
	 width="512px" height="512px" viewBox="0 0 512 512" enable-background="new 0 0 512 512" xml:space="preserve">
<g>
	<path fill="none" d="M427.302,41.926H84.693c5.632,86.164,45.593,161.652,105.039,195.91L221.251,256l-31.52,18.164
		c-59.446,34.242-99.407,109.729-105.039,195.91h342.608c-5.618-86.181-45.586-161.668-105.022-195.911l-31.523-18.164
		l31.523-18.165C381.716,203.578,421.683,128.09,427.302,41.926z M280.661,204.106c-26.41,18.12-18.164,97.563,1.695,109.772
		c0.262,0.121,0.507,0.271,0.757,0.391c0.45,0.228,0.888,0.48,1.341,0.634c0,0.03-0.009,0.03-0.023,0.059
		c53.617,27.25,87.676,118.738,87.676,118.738H257.384h-2.758H139.895c0,0,34.063-91.474,87.668-118.738
		c-0.008-0.016-0.02-0.027-0.02-0.059c0.48-0.168,0.945-0.423,1.414-0.66c0.223-0.121,0.434-0.242,0.669-0.349
		c19.871-12.18,28.132-91.651,1.707-109.789c-39.777-22.647-64.895-90.168-64.895-90.168h88.496h2.134h88.487
		C345.555,113.938,320.446,181.457,280.661,204.106z"/>
	<path d="M469.918,20.961V0H42.082v20.961c0,96.391,38.574,184.977,100.34,235.039c-61.766,50.059-100.34,138.648-100.34,235.039
		V512h427.835v-20.961c0-96.391-38.563-184.98-100.332-235.039C431.357,205.938,469.918,117.352,469.918,20.961z M322.279,274.164
		c59.438,34.242,99.404,109.729,105.022,195.91H84.693c5.632-86.181,45.593-161.668,105.039-195.91L221.251,256l-31.52-18.164
		C130.285,203.578,90.324,128.09,84.693,41.926h342.608c-5.618,86.164-45.586,161.652-105.022,195.91L290.755,256L322.279,274.164z"
		/>
	<path d="M257.068,113.938h-2.134h-88.496c0,0,25.117,67.521,64.895,90.169c26.425,18.137,18.164,97.608-1.707,109.788
		c-0.235,0.105-0.446,0.227-0.669,0.349c-0.469,0.238-0.934,0.492-1.414,0.66c0,0.03,0.012,0.043,0.019,0.059
		C173.956,342.229,139.893,433.7,139.893,433.7h114.73h2.758h114.724c0,0-34.06-91.488-87.676-118.738
		c0.015-0.028,0.022-0.028,0.022-0.059c-0.453-0.152-0.892-0.406-1.34-0.634c-0.25-0.119-0.496-0.27-0.759-0.391
		c-19.858-12.211-28.104-91.652-1.694-109.772c39.785-22.648,64.896-90.169,64.896-90.169H257.068L257.068,113.938z"/>
</g>
</svg>
