<?xml version="1.0" encoding="utf-8"?>
<!-- Generator: Adobe Illustrator 15.0.0, SVG Export Plug-In . SVG Version: 6.00 Build 0)  -->
<!DOCTYPE svg PUBLIC "-//W3C//DTD SVG 1.1//EN" "http://www.w3.org/Graphics/SVG/1.1/DTD/svg11.dtd">
<svg version="1.1" id="Layer_1" xmlns="http://www.w3.org/2000/svg" xmlns:xlink="http://www.w3.org/1999/xlink" x="0px" y="0px"
	 width="512px" height="512px" viewBox="0 0 512 512" enable-background="new 0 0 512 512" xml:space="preserve">
<g>
	<rect x="249.373" y="245.889" fill="none" width="77.855" height="50.148"/>
	<polygon fill="none" points="409.02,245.889 357.17,245.889 357.17,296.037 384.268,296.037 	"/>
	<polygon fill="none" points="447.159,168.618 357.17,168.618 357.17,215.938 423.791,215.938 	"/>
	<polygon fill="none" points="219.434,168.618 126.411,168.618 149.778,215.938 219.434,215.938 	"/>
	<rect x="249.373" y="168.618" fill="none" width="77.855" height="47.32"/>
	<polygon fill="none" points="219.434,296.037 219.434,245.889 164.557,245.889 189.302,296.037 	"/>
	<path d="M401.558,325.971L512,104.733l-25.938-14.975l-24.124,48.909H357.17h-29.94h-77.855h-29.939H111.641L87.518,89.782v-0.023
		H0v29.95h69.051l102.968,206.262H401.558L401.558,325.971z M357.17,168.618h89.989l-23.369,47.32h-66.62V168.618z M357.17,245.889
		h51.85l-24.753,50.148H357.17V245.889L357.17,245.889z M249.373,168.618h77.855v47.32h-77.855V168.618z M249.373,245.889h77.855
		v50.148h-77.855V245.889z M126.411,168.618h93.021v47.32h-69.656L126.411,168.618z M219.434,245.889v50.148h-30.133l-24.744-50.148
		H219.434L219.434,245.889z"/>
	<path d="M200.9,343.758c-21.673,0-39.246,17.564-39.246,39.246c0,21.672,17.572,39.238,39.246,39.238
		c21.675,0,39.247-17.566,39.247-39.238C240.147,361.322,222.573,343.758,200.9,343.758z"/>
	<path d="M383.361,343.758c-21.674,0-39.237,17.564-39.237,39.246c0,21.672,17.563,39.238,39.237,39.238
		c21.671,0,39.243-17.566,39.243-39.238C422.604,361.322,405.031,343.758,383.361,343.758z"/>
</g>
</svg>
