<?xml version="1.0" encoding="utf-8"?>
<!-- Generator: Adobe Illustrator 15.0.0, SVG Export Plug-In . SVG Version: 6.00 Build 0)  -->
<!DOCTYPE svg PUBLIC "-//W3C//DTD SVG 1.1//EN" "http://www.w3.org/Graphics/SVG/1.1/DTD/svg11.dtd">
<svg version="1.1" id="Layer_1" xmlns="http://www.w3.org/2000/svg" xmlns:xlink="http://www.w3.org/1999/xlink" x="0px" y="0px"
	 width="512px" height="512px" viewBox="0 0 512 512" enable-background="new 0 0 512 512" xml:space="preserve">
<g>
	<path fill="none" d="M421.865,258.699c-3.242,41.214-11.062,79.647-23.599,113.514c50.455-3.396,72.019-32.736,72.019-62.119
		C470.285,287.315,452.366,264.946,421.865,258.699z"/>
	<path fill="none" d="M403.394,213.563c-3.877-4.276-18.431-13.962-54.253-22.41c-36.689-8.653-84.195-13.419-133.763-13.419
		c-49.565,0-97.07,4.767-133.76,13.419c-35.822,8.448-50.376,18.134-54.252,22.41c3.876,4.274,18.431,13.961,54.252,22.41
		c36.689,8.652,84.194,13.417,133.76,13.417c49.566,0,97.072-4.765,133.763-13.417C384.963,227.523,399.517,217.836,403.394,213.563
		z"/>
	<path d="M423.555,221.188c0.032-2.533,0.048-5.076,0.048-7.626c0-30.532-93.227-55.284-208.225-55.284
		c-114.997,0-208.222,24.752-208.222,55.284C7.156,378.385,73.545,512,215.378,512c83.414,0,140.723-46.225,173.789-117.819
		c3.336,0.27,6.698,0.457,10.118,0.457c58.298,0,105.559-39.356,105.559-87.904C504.844,265.143,470.152,230.321,423.555,221.188z
		 M349.141,235.972c-36.689,8.652-84.195,13.417-133.763,13.417c-49.565,0-97.07-4.765-133.76-13.417
		c-35.822-8.448-50.376-18.136-54.252-22.411c3.876-4.275,18.431-13.961,54.252-22.409c36.689-8.653,84.194-13.419,133.76-13.419
		c49.566,0,97.072,4.767,133.763,13.419c35.822,8.448,50.376,18.134,54.253,22.409C399.517,217.836,384.963,227.523,349.141,235.972
		z M398.268,372.213c12.537-33.865,20.356-72.3,23.6-113.514c30.499,6.247,48.419,28.616,48.419,51.395
		C470.285,339.477,448.723,368.815,398.268,372.213z"/>
	<path d="M255.689,126.078C283.88,83.461,206.376,37.648,259.908,0c-44.528,2.943-52.161,30.188-40.935,51.461
		C229.629,71.652,255.649,85.732,255.689,126.078z"/>
	<path d="M233.162,154.501c12.646-35.708-59.268-64.515-19.553-105.806c-37.209,10.992-36.253,41.592-20.227,58.701
		C204.95,119.75,225.905,125.482,233.162,154.501z"/>
</g>
</svg>
