<?xml version="1.0" encoding="utf-8"?>
<!-- Generator: Adobe Illustrator 15.0.0, SVG Export Plug-In . SVG Version: 6.00 Build 0)  -->
<!DOCTYPE svg PUBLIC "-//W3C//DTD SVG 1.1//EN" "http://www.w3.org/Graphics/SVG/1.1/DTD/svg11.dtd">
<svg version="1.1" id="Layer_1" xmlns="http://www.w3.org/2000/svg" xmlns:xlink="http://www.w3.org/1999/xlink" x="0px" y="0px"
	 width="512px" height="512px" viewBox="0 0 512 512" enable-background="new 0 0 512 512" xml:space="preserve">
<path d="M426.688,0H256H85.343C38.405,0,0,38.408,0,85.346V256v170.658C0,473.623,38.405,512,85.343,512H256h170.688
	C473.625,512,512,473.624,512,426.658V256V85.346C512,38.408,473.625,0,426.688,0z M486.401,426.658
	c0,32.94-26.787,59.741-59.713,59.741H256V256H25.6V85.346C25.6,52.398,52.4,25.6,85.343,25.6H256V256H486.4L486.401,426.658
	L486.401,426.658z"/>
</svg>
