<?xml version="1.0" encoding="utf-8"?>
<!-- Generator: Adobe Illustrator 15.0.0, SVG Export Plug-In . SVG Version: 6.00 Build 0)  -->
<!DOCTYPE svg PUBLIC "-//W3C//DTD SVG 1.1//EN" "http://www.w3.org/Graphics/SVG/1.1/DTD/svg11.dtd">
<svg version="1.1" id="Layer_1" xmlns="http://www.w3.org/2000/svg" xmlns:xlink="http://www.w3.org/1999/xlink" x="0px" y="0px"
	 width="512px" height="512px" viewBox="0 0 512 512" enable-background="new 0 0 512 512" xml:space="preserve">
<path d="M132.563,216.899l36.568,76.473l-81.77,19.824C79.982,279.52,85.855,241.932,132.563,216.899z M363.867,167.165
	c-57.322-13.437-119.401-12.872-182.979-3.274c-2.292,0.344-4.572,0.711-6.84,1.092l-21.136-39.145
	c-20.57,2.746-39.903,7.025-57.802,12.737l20.13,42.099c-32.88,12.738-59.861,30.88-79.329,52.715
	C3.805,269.921-8.884,315.843,6.538,360.565c3.102,9.021,7.294,17.579,12.468,25.597l13.46-3.701l75.014-20.597l83.448-22.924
	l67.11-18.426l-23.247-43.055l-43.128-79.869c2.28-0.44,4.598-0.884,6.964-1.312c107.341-19.149,166.05,10.432,198.207,41.914
	l-81.778,19.823L280.927,203.5c-19.521-1.141-42.041,0.024-68.125,4.475l36.604,65.953l16.412,29.62l7.151,12.871l150.551-41.339
	l76.534-21.023l11.944-3.271c-2.578-6.13-6.343-12.113-11.331-17.899c-24.738-28.638-78.37-54.186-136.801-65.709"/>
</svg>
