<?xml version="1.0" encoding="utf-8"?>
<!-- Generator: Adobe Illustrator 15.0.0, SVG Export Plug-In . SVG Version: 6.00 Build 0)  -->
<!DOCTYPE svg PUBLIC "-//W3C//DTD SVG 1.1//EN" "http://www.w3.org/Graphics/SVG/1.1/DTD/svg11.dtd">
<svg version="1.1" id="Layer_1" xmlns="http://www.w3.org/2000/svg" xmlns:xlink="http://www.w3.org/1999/xlink" x="0px" y="0px"
	 width="512px" height="512px" viewBox="0 0 512 512" enable-background="new 0 0 512 512" xml:space="preserve">
<g>
	<path d="M112.633,306.188l71.75-17.395l-32.087-67.104C111.31,243.656,106.156,276.638,112.633,306.188z"/>
	<path d="M512,85.341C512,38.209,473.8,0,426.678,0H85.322C38.2,0,0,38.209,0,85.341v341.318C0,473.792,38.2,512,85.322,512h341.356
		C473.8,512,512,473.792,512,426.659V85.341z M474.761,254.295l-67.157,18.448L275.5,309.016l-6.275-11.295l-14.4-25.988
		l-32.12-57.874c22.889-3.905,42.648-4.928,59.777-3.927l29.947,47.838l71.758-17.395c-28.216-27.625-79.732-53.582-173.92-36.779
		c-2.077,0.376-4.11,0.765-6.111,1.151l37.843,70.083l20.399,37.779l-58.888,16.168l-73.224,20.115l-65.822,18.071l-11.812,3.249
		c-4.54-7.035-8.219-14.544-10.939-22.461c-13.532-39.242-2.399-79.538,25.773-111.594c17.083-19.159,40.759-35.08,69.61-46.256
		l-17.664-36.94c15.706-5.013,32.669-8.767,50.72-11.177l18.546,34.348c1.99-0.332,4.025-0.656,6.036-0.957
		c55.789-8.424,110.419-8.918,160.595,2.871v0.012c51.2,10.111,98.298,32.529,120.005,57.657c4.379,5.078,7.663,10.327,9.926,15.706
		L474.761,254.295z"/>
</g>
</svg>
