<?xml version="1.0" encoding="utf-8"?>
<!-- Generator: Adobe Illustrator 15.0.0, SVG Export Plug-In . SVG Version: 6.00 Build 0)  -->
<!DOCTYPE svg PUBLIC "-//W3C//DTD SVG 1.1//EN" "http://www.w3.org/Graphics/SVG/1.1/DTD/svg11.dtd">
<svg version="1.1" id="Layer_1" xmlns="http://www.w3.org/2000/svg" xmlns:xlink="http://www.w3.org/1999/xlink" x="0px" y="0px"
	 width="512px" height="512px" viewBox="0 0 512 512" enable-background="new 0 0 512 512" xml:space="preserve">
<path d="M256,512C114.614,512,0,397.39,0,256.01S114.615,0,256,0c141.375,0,256,114.631,256,256.01S397.375,512,256,512z
	 M465.582,282.863c-50.241-6.594-94.794-7.071-134.496-0.937c16.435,46.862,30.189,97.345,41.018,150.532
	C422.346,399.325,457.642,345.39,465.582,282.863z M331.782,453.073c-10.141-59.365-24.095-112.72-42.061-161.953
	c-67.229,20.177-119.5,63.339-163.374,131.501c35.816,27.915,80.724,44.679,129.641,44.679
	C282.74,467.3,308.221,462.142,331.782,453.073z M44.687,256.01c0,52.272,19.091,100.029,50.543,136.931
	c53.638-78.628,114.009-119.583,179.934-138.636c-5.43-12.771-11.057-25.377-17.11-37.648
	c-58.881,17.743-128.601,27.041-212.939,30.931C45,250.394,44.687,253.161,44.687,256.01z M49.46,211.539
	c66.551-2.933,131.526-10.337,191.075-28.33c-22.677-40.52-49.304-78.583-79.691-115.691
	C104.744,95.889,62.996,148.41,49.46,211.539z M255.99,44.7c-18.519,0-36.381,2.62-53.504,7.093
	c29.358,32.323,56.088,71.637,79.734,116.73c41.102-16.973,78.827-40.332,111.747-72.344C356.941,64.189,308.783,44.7,255.99,44.7z
	 M419.551,122.264c-34.483,34.944-73.846,60.965-120.584,80.061c6.377,13.77,12.4,28.102,18.227,42.724
	c47.438-7.343,97.428-5.721,149.608-0.374C464.343,198.352,447.138,155.96,419.551,122.264z"/>
</svg>
