<?xml version="1.0" encoding="utf-8"?>
<!-- Generator: Adobe Illustrator 15.0.0, SVG Export Plug-In . SVG Version: 6.00 Build 0)  -->
<!DOCTYPE svg PUBLIC "-//W3C//DTD SVG 1.1//EN" "http://www.w3.org/Graphics/SVG/1.1/DTD/svg11.dtd">
<svg version="1.1" id="Layer_1" xmlns="http://www.w3.org/2000/svg" xmlns:xlink="http://www.w3.org/1999/xlink" x="0px" y="0px"
	 width="512px" height="512px" viewBox="0 0 512 512" enable-background="new 0 0 512 512" xml:space="preserve">
<g>
	<path d="M185.347,115.774c-41.648,21.107-72.644,60.182-82.694,107.147c49.412-2.182,97.653-7.69,141.865-21.077
		C227.681,171.701,207.911,143.381,185.347,115.774z"/>
	<path d="M270.231,254.74c-4.031-9.504-8.211-18.879-12.707-28.01c-43.715,13.196-95.48,20.117-158.098,23.011
		c-0.084,2.088-0.316,4.147-0.316,6.268c0,38.887,14.174,74.419,37.525,101.869C176.46,299.386,221.283,268.915,270.231,254.74z"/>
	<path d="M358.436,137.099c-27.494-23.801-63.246-38.3-102.445-38.3c-13.75,0-27.012,1.947-39.722,5.275
		c21.795,24.049,41.643,53.298,59.198,86.848C305.985,178.293,333.992,160.915,358.436,137.099z"/>
	<path d="M426.672,0H85.343C38.406,0,0,38.405,0,85.345v341.311C0,473.625,38.406,512,85.343,512h341.33
		C473.612,512,512,473.626,512,426.655V85.345C512.002,38.405,473.612,0,426.672,0z M256.002,446.457
		c-104.976,0-190.07-85.269-190.07-190.449c0-105.18,85.096-190.467,190.07-190.467c104.961,0,190.071,85.287,190.071,190.467
		C446.073,361.188,360.963,446.457,256.002,446.457z"/>
	<path d="M159.741,379.959c26.592,20.771,59.93,33.242,96.25,33.242c19.863,0,38.781-3.838,56.273-10.587
		c-7.525-44.162-17.887-83.856-31.227-120.485C231.123,297.139,192.315,329.25,159.741,379.959z"/>
	<path d="M287.903,216.066c4.734,10.247,9.207,20.908,13.533,31.785c35.219-5.462,72.334-4.255,111.076-0.277
		c-1.824-34.464-14.6-66.002-35.08-91.07C351.826,182.502,322.604,201.861,287.903,216.066z"/>
	<path d="M311.746,275.289c12.203,34.864,22.416,72.423,30.457,111.992c37.301-24.651,63.506-64.778,69.402-111.294
		C374.301,271.081,341.227,270.724,311.746,275.289z"/>
</g>
</svg>
