<?xml version="1.0" encoding="utf-8"?>
<!-- Generator: Adobe Illustrator 15.0.0, SVG Export Plug-In . SVG Version: 6.00 Build 0)  -->
<!DOCTYPE svg PUBLIC "-//W3C//DTD SVG 1.1//EN" "http://www.w3.org/Graphics/SVG/1.1/DTD/svg11.dtd">
<svg version="1.1" id="Layer_1" xmlns="http://www.w3.org/2000/svg" xmlns:xlink="http://www.w3.org/1999/xlink" x="0px" y="0px"
	 width="512px" height="512px" viewBox="0 0 512 512" enable-background="new 0 0 512 512" xml:space="preserve">
<path d="M426.672,0H85.342C38.406,0,0,38.407,0,85.344v341.313C0,473.626,38.406,512,85.342,512h170.654V319.5h-64V240h64v-40
	c0-57.344,43.063-104.001,96.004-104.001h64v79.25h-64c-7.55,0-16,10.266-16,24V240h80v79.5h-80v192.499h90.672
	c46.937,0,85.328-38.373,85.328-85.344V85.344C512,38.407,473.609,0,426.672,0z"/>
</svg>
