<?xml version="1.0" encoding="utf-8"?>
<!-- Generator: Adobe Illustrator 15.0.0, SVG Export Plug-In . SVG Version: 6.00 Build 0)  -->
<!DOCTYPE svg PUBLIC "-//W3C//DTD SVG 1.1//EN" "http://www.w3.org/Graphics/SVG/1.1/DTD/svg11.dtd">
<svg version="1.1" id="Layer_1" xmlns="http://www.w3.org/2000/svg" xmlns:xlink="http://www.w3.org/1999/xlink" x="0px" y="0px"
	 width="512px" height="512px" viewBox="0 0 512 512" enable-background="new 0 0 512 512" xml:space="preserve">
<path d="M426.687,0H85.344C38.406,0,0,38.406,0,85.341v341.313C0,473.625,38.406,512,85.344,512h341.342
	C473.623,512,512,473.623,512,426.652V85.341C512,38.406,473.623,0,426.687,0z M158.781,331.139
	c-41.5,0-75.125-33.607-75.125-75.125c0-41.529,33.625-75.155,75.125-75.155s75.156,33.626,75.156,75.155
	C233.937,297.529,200.281,331.139,158.781,331.139z M353.187,331.139c-41.5,0-75.156-33.607-75.156-75.125
	c0-41.529,33.656-75.155,75.156-75.155s75.157,33.626,75.157,75.155C428.344,297.529,394.687,331.139,353.187,331.139z"/>
</svg>
