<?xml version="1.0" encoding="utf-8"?>
<!-- Generator: Adobe Illustrator 15.0.0, SVG Export Plug-In . SVG Version: 6.00 Build 0)  -->
<!DOCTYPE svg PUBLIC "-//W3C//DTD SVG 1.1//EN" "http://www.w3.org/Graphics/SVG/1.1/DTD/svg11.dtd">
<svg version="1.1" id="Layer_1" xmlns="http://www.w3.org/2000/svg" xmlns:xlink="http://www.w3.org/1999/xlink" x="0px" y="0px"
	 width="512px" height="512px" viewBox="0 0 512 512" enable-background="new 0 0 512 512" xml:space="preserve">
<path d="M512,85.342C512,38.209,473.804,0,426.688,0H85.313C38.196,0,0,38.209,0,85.342v341.316C0,473.791,38.196,512,85.313,512
	h341.375C473.804,512,512,473.791,512,426.658V85.342z M414.05,435.712H272.384v-60.739l76.841-36.324l-8.453-17.235l-68.388,32.024
	v-24.024l46.889-22.481l-9.458-17.48l-37.431,17.42v-42.677H240.64v66.997l-42.799-22.741l-10.763,15.996l53.562,30.262v81.006
	H98.168L256.332,73.779L414.05,435.712z"/>
</svg>
