<?xml version="1.0" encoding="utf-8"?>
<!-- Generator: Adobe Illustrator 15.0.0, SVG Export Plug-In . SVG Version: 6.00 Build 0)  -->
<!DOCTYPE svg PUBLIC "-//W3C//DTD SVG 1.1//EN" "http://www.w3.org/Graphics/SVG/1.1/DTD/svg11.dtd">
<svg version="1.1" id="Layer_1" xmlns="http://www.w3.org/2000/svg" xmlns:xlink="http://www.w3.org/1999/xlink" x="0px" y="0px"
	 width="512px" height="512px" viewBox="0 0 512 512" enable-background="new 0 0 512 512" xml:space="preserve">
<g>
	<g>
		<path d="M424.597,77.953c3.946-12.739,9.222-41.029-5.26-77.244c0,0-25.547-8.113-83.338,30.565
			c-22.645-5.656-46.732-8.453-70.86-8.453c-26.547,0-53.371,3.383-78.393,10.244C127.116-7.618,100.79,0.717,100.79,0.717
			c-17.186,42.974-6.562,74.792-3.331,82.694c-20.196,21.797-32.528,49.623-32.528,83.738c0,25.757,2.933,48.86,10.097,68.943
			l7.532,17.061c20.129,37.526,59.824,61.765,130.436,69.376c-10.022,6.729-20.245,18.18-24.388,37.556
			c-13.66,6.533-56.891,22.479-82.833-22.139c0,0-14.521-26.551-42.312-28.627c0,0-26.96-0.415-1.863,16.8
			c0,0,18.04,8.501,30.488,40.444c0,0,16.236,54.492,94.59,37.008v56.28c0,0-1.655,19.907-19.906,26.54
			c0,0-10.782,7.472,0.835,11.609c0,0,50.589,4.149,50.589-37.318V399.31c0,0-2.007-24.338,9.952-32.801v100.805
			c0,0-0.827,24.056-13.267,33.176c0,0-8.301,14.923,9.947,10.785c0,0,34.833-4.979,36.493-45.615l0.789-102.014h8.373
			l0.796,102.014c1.658,40.636,36.491,45.615,36.491,45.615c18.24,4.138,9.949-10.785,9.949-10.785
			c-12.441-9.125-13.267-33.176-13.267-33.176V367.38c11.948,9.311,9.949,31.932,9.949,31.932v61.37
			c0,41.47,50.592,37.316,50.592,37.316c11.605-4.139,0.832-11.604,0.832-11.604c-18.249-6.634-19.906-26.542-19.906-26.542v-80.443
			c0-31.371-13.209-47.989-26.13-56.755c75.306-7.468,111.444-31.782,128.093-69.563l5.947-16.865
			c5.583-20.118,7.261-43.271,7.261-69.088C461.091,130.114,447.18,100.493,424.597,77.953z M264.534,308.642
			c-82.091,0-148.627-12.355-148.627-91.683c0-18.991,9.354-36.625,25.372-51.259c26.724-24.389,71.947-11.475,123.253-11.475
			c51.078-0.008,96.148-13.053,122.906,11.168l0.01,0.008c16.219,14.696,25.706,32.441,25.706,51.559
			C413.155,306.228,346.614,308.642,264.534,308.642z"/>
		<path d="M184.176,176.994c-17.079,0-30.924,19.924-30.924,44.506c0,24.589,13.846,44.519,30.924,44.519
			s30.922-19.93,30.922-44.519C215.099,196.919,201.253,177.012,184.176,176.994z"/>
		<path d="M350.094,176.994c-17.078,0-30.921,19.924-30.921,44.506c0,24.589,13.843,44.519,30.921,44.519
			c17.079,0,30.922-19.93,30.922-44.519C381.017,196.919,367.174,177.012,350.094,176.994z"/>
		<path d="M264.999,268.769c4.272,0,7.732-3.463,7.732-7.733c0-4.27-3.46-7.732-7.733-7.732c-4.271,0-7.731,3.464-7.731,7.732
			C257.268,265.306,260.729,268.769,264.999,268.769z"/>
		<path d="M281.345,277.419c-1.302-0.457-2.719,0.217-3.173,1.513c-1.991,5.621-7.317,9.394-13.269,9.394
			c-5.942,0-11.271-3.772-13.267-9.394c-0.455-1.288-1.875-1.971-3.171-1.513c-1.289,0.457-1.969,1.875-1.513,3.172l0.012,0.017
			c2.688,7.607,9.894,12.685,17.938,12.685c8.042,0,15.268-5.105,17.953-12.701C283.31,279.294,282.64,277.876,281.345,277.419z"/>
	</g>
</g>
</svg>
