<?xml version="1.0" encoding="utf-8"?>
<!-- Generator: Adobe Illustrator 15.0.0, SVG Export Plug-In . SVG Version: 6.00 Build 0)  -->
<!DOCTYPE svg PUBLIC "-//W3C//DTD SVG 1.1//EN" "http://www.w3.org/Graphics/SVG/1.1/DTD/svg11.dtd">
<svg version="1.1" id="Layer_1" xmlns="http://www.w3.org/2000/svg" xmlns:xlink="http://www.w3.org/1999/xlink" x="0px" y="0px"
	 width="512px" height="512px" viewBox="0 0 512 512" enable-background="new 0 0 512 512" xml:space="preserve">
<g>
	<path d="M131.736,379.684c0,13.526,11.447,20.291,34.334,20.291c20.032,0,30.044-7.021,30.044-21.068
		c0-13.268-10.923-19.898-32.773-19.898C142.269,359.008,131.736,365.899,131.736,379.684z"/>
	<path d="M426.674,0H85.344C38.406,0,0,38.405,0,85.344v341.313C0,473.625,38.406,512,85.344,512h341.33
		C473.608,512,512,473.625,512,426.656V85.344C512,38.405,473.609,0,426.674,0z M237.864,204.494
		c-3.642,1.302-8.844,2.729-15.607,4.293c2.08,5.983,3.123,11.576,3.123,16.777c0,16.646-5.009,31.149-15.022,43.506
		c-10.015,12.354-22.956,19.704-38.824,22.043c-10.402,1.563-15.604,7.156-15.604,16.779c0,3.381,1.689,6.765,5.072,10.145
		c4.422,4.944,10.924,8.067,19.509,9.367c37.195,5.721,55.793,21.197,55.793,46.427c0,40.322-24.062,60.482-72.181,60.482
		c-19.77,0-36.028-3.513-48.772-10.536c-16.129-8.844-24.189-22.76-24.189-41.75c0-21.851,12.096-36.807,36.283-44.869v-0.78
		c-8.842-5.462-13.263-13.785-13.263-24.972c0-14.566,4.162-23.672,12.484-27.311v-0.781c-8.323-2.862-15.737-9.366-22.24-19.511
		c-7.282-10.926-10.925-22.63-10.925-35.115c0-18.729,6.635-34.335,19.897-46.82c12.748-11.707,27.964-17.558,45.653-17.558
		c12.747,0,24.579,3.119,35.505,9.361c12.485,0,26.921-3.12,43.312-9.361L237.864,204.494L237.864,204.494z M301.089,339.497
		h-44.093c0.521-5.201,0.78-14.042,0.78-26.532V191.619c0-12.227-0.261-20.682-0.78-25.359h44.093
		c-0.521,4.942-0.781,13.135-0.781,24.582v119.782C300.308,323.891,300.569,333.515,301.089,339.497z M298.16,127.241
		c-5.333,5.722-11.641,8.581-18.923,8.581c-7.543,0-13.979-2.859-19.313-8.581c-5.333-5.726-8.001-12.486-8.001-20.289
		c0-8.067,2.668-14.956,8.001-20.683c5.333-5.721,11.77-8.584,19.313-8.584c7.282,0,13.591,2.863,18.923,8.584
		c5.333,5.728,7.999,12.615,7.999,20.683C306.159,114.755,303.493,121.516,298.16,127.241z M420.845,334.424
		c-9.627,5.205-21.203,7.803-34.729,7.803c-18.986,0-32.124-6.76-39.406-20.287c-5.464-10.145-8.193-26.14-8.193-47.991v-69.842
		h0.389v-0.781l-5.853-0.391c-3.382,0-7.805,0.391-13.266,1.171V166.26h19.117v-15.216c0-7.285-0.389-13.14-1.17-17.56h45.259
		c-0.776,4.94-1.168,10.533-1.168,16.776v15.999h33.943v37.846c-1.299,0-3.705-0.129-7.218-0.389
		c-3.511-0.261-6.828-0.393-9.949-0.393h-16.777v72.571c0,17.432,5.724,26.145,17.167,26.145c8.063,0,15.347-2.209,21.854-6.632
		L420.845,334.424L420.845,334.424z"/>
	<path d="M160.608,200.203c-16.388,0-24.582,9.627-24.582,28.873c0,17.951,8.194,26.924,24.582,26.924
		c15.868,0,23.8-9.104,23.8-27.313c0-7.545-1.82-14.047-5.46-19.511C174.525,203.195,168.411,200.203,160.608,200.203z"/>
</g>
</svg>
