<?xml version="1.0" encoding="utf-8"?>
<!-- Generator: Adobe Illustrator 15.0.0, SVG Export Plug-In . SVG Version: 6.00 Build 0)  -->
<!DOCTYPE svg PUBLIC "-//W3C//DTD SVG 1.1//EN" "http://www.w3.org/Graphics/SVG/1.1/DTD/svg11.dtd">
<svg version="1.1" id="Layer_1" xmlns="http://www.w3.org/2000/svg" xmlns:xlink="http://www.w3.org/1999/xlink" x="0px" y="0px"
	 width="512px" height="512px" viewBox="0 0 512 512" enable-background="new 0 0 512 512" xml:space="preserve">
<path d="M426.756,0H84.621C37.571,0,0,38.893,0,85.939v340.176C0,474.326,37.571,512,84.621,512h342.134
	C473.803,512,512,474.326,512,426.115V85.939C512,38.893,473.803,0,426.756,0z M261.632,15.359H376.32v73.217H261.632V15.359z
	 M135.68,15.359h110.08v73.217H135.68V15.359z M15.36,88.576v-2.637c0-38.524,30.739-70.58,69.262-70.58h35.698v73.216L15.36,88.576
	L15.36,88.576z M407.552,336.384H287.233v115.2h-62.464v-115.2H104.96v-68.096h119.808v-115.2h62.464v115.2h120.319L407.552,336.384
	L407.552,336.384z M496.64,88.576H392.193V15.359h34.563c38.513,0,69.884,32.057,69.884,70.58V88.576z"/>
</svg>
