<?xml version="1.0" encoding="utf-8"?>
<!-- Generator: Adobe Illustrator 15.0.0, SVG Export Plug-In . SVG Version: 6.00 Build 0)  -->
<!DOCTYPE svg PUBLIC "-//W3C//DTD SVG 1.1//EN" "http://www.w3.org/Graphics/SVG/1.1/DTD/svg11.dtd">
<svg version="1.1" id="Layer_1" xmlns="http://www.w3.org/2000/svg" xmlns:xlink="http://www.w3.org/1999/xlink" x="0px" y="0px"
	 width="512px" height="512px" viewBox="0 0 512 512" enable-background="new 0 0 512 512" xml:space="preserve">
<g>
	<path d="M156.28,406.638c-13.537-4.366-28.448-6.936-44.448-7.104c-45.917-0.494-88.627,18.364-111.831,46.178V480
		c0,17.6,14.399,32,32,32h196.563c0.908-5.564,1.347-11.316,1.347-17.216c0-6.266-0.766-12.396-2.187-18.361
		C220.195,447.02,193.497,432.44,156.28,406.638z"/>
	<path d="M186.884,175.975c-7.947-60.24-51.698-108.584-97.704-109.961c-46.014-1.365-76.87,44.741-68.927,105
		c7.942,60.234,51.677,110.187,97.699,111.56C163.957,283.943,194.82,236.225,186.884,175.975z"/>
	<path d="M0.001,403.279c26.72-12.686,58.445-20.31,92.941-20.31c10.806,0,20.711-0.295,30.967-0.295
		c-13.573-13.167-24.312-29.3-24.312-49.192c0-11.802,3.782-23.168,9.067-33.26c-5.39,0.386-10.894,0.499-16.562,0.499
		c-37.179,0-68.755-12.039-92.104-31.928L0.001,403.279L0.001,403.279z"/>
	<path d="M512,128V32c0-17.6-14.4-32-32-32h-448c-17.601,0-32,14.4-32,32v51.014c29.184-25.722,69.694-42.209,111.495-42.209
		c44.653,0,178.622,0,178.622,0l-39.973,28.809H193.51c37.565,14.402,57.578,58.062,57.578,102.861
		c0,37.624-20.905,69.977-50.444,92.984c-28.822,22.451-34.286,31.854-34.286,50.94c0,16.288,30.873,43.999,47.016,55.393
		c47.193,33.269,62.458,64.156,62.458,115.728c0,8.212-1.021,16.415-3.033,24.48H480c17.6,0,32-14.399,32-31.999v-320h-96V256h-32
		v-96h-96v-32h96V32h32v96H512z"/>
</g>
</svg>
