<?xml version="1.0" encoding="utf-8"?>
<!-- Generator: Adobe Illustrator 15.0.0, SVG Export Plug-In . SVG Version: 6.00 Build 0)  -->
<!DOCTYPE svg PUBLIC "-//W3C//DTD SVG 1.1//EN" "http://www.w3.org/Graphics/SVG/1.1/DTD/svg11.dtd">
<svg version="1.1" id="Layer_1" xmlns="http://www.w3.org/2000/svg" xmlns:xlink="http://www.w3.org/1999/xlink" x="0px" y="0px"
	 width="512px" height="512px" viewBox="0 0 512 512" enable-background="new 0 0 512 512" xml:space="preserve">
<path d="M370.672,12.17c-45.701,0-88.394,22.526-114.661,59.024C229.727,34.689,187.03,12.17,141.328,12.17
	C63.405,12.17,0,75.564,0,153.5c0,94.381,57.64,144.885,124.387,203.358c38.983,34.15,83.17,72.857,119.654,125.332l12.267,17.641
	l11.854-17.924c35.313-53.387,78.523-91.695,120.305-128.734C452.006,296.855,512,243.654,512,153.5
	C512,75.564,448.604,12.17,370.672,12.17z M369.142,331.371c-36.929,32.729-78.269,69.373-113.402,117.391
	c-35.717-46.873-76.089-82.242-112.148-113.834C79.648,278.918,29.145,234.668,29.145,153.5
	c0-61.868,50.325-112.186,112.184-112.186c43.196,0,83.034,25.395,101.491,64.697l13.191,28.105l13.19-28.112
	c18.443-39.303,58.273-64.69,101.472-64.69c61.866,0,112.184,50.317,112.184,112.186
	C482.856,230.548,432.673,275.047,369.142,331.371z"/>
</svg>
