<?xml version="1.0" encoding="utf-8"?>
<!-- Generator: Adobe Illustrator 15.0.0, SVG Export Plug-In . SVG Version: 6.00 Build 0)  -->
<!DOCTYPE svg PUBLIC "-//W3C//DTD SVG 1.1//EN" "http://www.w3.org/Graphics/SVG/1.1/DTD/svg11.dtd">
<svg version="1.1" id="Layer_1" xmlns="http://www.w3.org/2000/svg" xmlns:xlink="http://www.w3.org/1999/xlink" x="0px" y="0px"
	 width="512px" height="512px" viewBox="0 0 512 512" enable-background="new 0 0 512 512" xml:space="preserve">
<g>
	<path fill="none" d="M107.377,431.412L255.989,472.6v0.233l0.39-0.117l0.389,0.117V472.6l148.613-41.188l35.121-393.743H72.256
		L107.377,431.412z M397.369,94.201l-5.057,56.513h-0.195H176.045l5.152,57.875H387.18l-15.52,173.505l-115.671,32.088l-0.117,0.039
		h-0.077h-0.06l-115.786-32.127l-7.915-88.756h56.747l4.025,45.116l62.931,16.958l0.136-0.039l62.969-16.996l6.535-73.275H129.507
		l-15.246-170.9H397.369L397.369,94.201z"/>
	<path d="M30.269,0l41.072,460.815L255.718,512l184.863-51.262L481.731,0H30.269z M405.381,431.412L256.768,472.6v0.233
		l-0.389-0.117l-0.39,0.117V472.6l-148.612-41.188L72.256,37.669h368.247L405.381,431.412z"/>
	<polygon fill="#020202" points="325.377,265.101 318.842,338.378 255.873,355.374 255.737,355.413 192.806,338.455 
		188.781,293.338 132.035,293.338 139.95,382.094 255.737,414.221 255.796,414.221 255.873,414.221 255.989,414.182 371.66,382.094 
		387.18,208.588 181.197,208.588 176.045,150.714 392.117,150.714 392.313,150.714 397.369,94.201 114.26,94.201 129.508,265.101 	
		"/>
</g>
</svg>
