<?xml version="1.0" encoding="utf-8"?>
<!-- Generator: Adobe Illustrator 15.0.0, SVG Export Plug-In . SVG Version: 6.00 Build 0)  -->
<!DOCTYPE svg PUBLIC "-//W3C//DTD SVG 1.1//EN" "http://www.w3.org/Graphics/SVG/1.1/DTD/svg11.dtd">
<svg version="1.1" id="Layer_1" xmlns="http://www.w3.org/2000/svg" xmlns:xlink="http://www.w3.org/1999/xlink" x="0px" y="0px"
	 width="512px" height="512px" viewBox="0 0 512 512" enable-background="new 0 0 512 512" xml:space="preserve">
<g>
	<path d="M266.788,293.64l-30.261,30.285l0.996,0.996c4.14,4.155,4.14,10.933,0,15.085L111.46,466.066
		c-4.164,4.164-10.934,4.164-15.098,0l-50.425-50.409c-4.165-4.181-4.165-10.949,0-15.109l126.058-126.063
		c4.16-4.156,10.931-4.156,15.075,0l1,0.995l30.281-30.262l-0.996-1.003c-20.884-20.879-54.747-20.879-75.642,0L15.662,370.275
		c-20.883,20.894-20.883,54.761,0,75.635l50.418,50.425c20.887,20.887,54.742,20.887,75.633,0l126.074-126.06
		c20.883-20.879,20.883-54.758,0-75.641L266.788,293.64z"/>
	<path d="M496.336,66.105l-50.414-50.428c-20.903-20.904-54.759-20.904-75.648,0L244.21,141.725
		c-20.879,20.879-20.879,54.758,0,75.637l1,1l30.277-30.271l-1.009-0.996c-4.159-4.16-4.159-10.933,0-15.094L400.546,45.943
		c4.175-4.163,10.925-4.163,15.093,0l50.427,50.43c4.164,4.146,4.164,10.917,0,15.082L340.003,237.516
		c-4.159,4.156-10.93,4.156-15.086,0l-1.004-1l-30.262,30.281l0.995,0.996c20.867,20.886,54.738,20.886,75.625,0l126.064-126.068
		C517.221,120.831,517.221,86.979,496.336,66.105z"/>
	<path d="M154.936,351.006l6.048,6.066c6.668,6.646,18.805,5.427,26.961-2.75L354.32,187.958c8.159-8.164,9.395-20.3,2.745-26.964
		l-6.048-6.051c-6.668-6.668-18.793-5.43-26.965,2.746L157.667,324.058C149.523,332.229,148.284,344.338,154.936,351.006z"/>
</g>
</svg>
