<?xml version="1.0" encoding="utf-8"?>
<!-- Generator: Adobe Illustrator 15.0.0, SVG Export Plug-In . SVG Version: 6.00 Build 0)  -->
<!DOCTYPE svg PUBLIC "-//W3C//DTD SVG 1.1//EN" "http://www.w3.org/Graphics/SVG/1.1/DTD/svg11.dtd">
<svg version="1.1" id="Layer_1" xmlns="http://www.w3.org/2000/svg" xmlns:xlink="http://www.w3.org/1999/xlink" x="0px" y="0px"
	 width="512px" height="512px" viewBox="0 0 512 512" enable-background="new 0 0 512 512" xml:space="preserve">
<path d="M155.755,31.55l-13.09,340.294c-17.465-8.962-39.377-12.84-62.368-9.579c-49.574,7.022-85.271,44.419-79.729,83.517
	c5.543,39.102,50.222,65.101,99.795,58.078c43.996-6.235,77.021-36.394,80.022-70.429l0.01,0.018
	c0.006-0.077,0.011-0.193,0.017-0.28c0.074-0.865,0.116-1.741,0.148-2.611c1.846-35.143,13.148-302.082,13.148-302.082
	l278.356-28.679l-12.572,240.409c-17.864-9.942-40.823-14.371-64.964-10.95c-49.574,7.028-85.268,44.417-79.726,83.521
	c5.541,39.098,50.221,65.102,99.795,58.072c44.933-6.361,78.41-37.682,80.166-72.604l0.021-0.021
	C495.743,382.248,512,6.995,512,6.995L155.755,31.55z"/>
</svg>
