<?xml version="1.0" encoding="utf-8"?>
<!-- Generator: Adobe Illustrator 15.0.0, SVG Export Plug-In . SVG Version: 6.00 Build 0)  -->
<!DOCTYPE svg PUBLIC "-//W3C//DTD SVG 1.1//EN" "http://www.w3.org/Graphics/SVG/1.1/DTD/svg11.dtd">
<svg version="1.1" id="Layer_1" xmlns="http://www.w3.org/2000/svg" xmlns:xlink="http://www.w3.org/1999/xlink" x="0px" y="0px"
	 width="512px" height="512px" viewBox="0 0 512 512" enable-background="new 0 0 512 512" xml:space="preserve">
<path d="M512,85.341C512,38.209,473.793,0,426.661,0H85.338C38.207,0,0,38.209,0,85.341v341.318C0,473.792,38.207,512,85.338,512
	h341.324C473.793,512,512,473.792,512,426.659V85.341z M255.877,79.135c25.346,0,49.786,5.406,72.826,15.859v117.908L194.078,90.729
	C214.012,83.188,234.79,79.135,255.877,79.135z M79.134,256c0-66.707,36.867-126.73,96.249-157.236l66.94,60.732L85.556,301.943
	C81.424,286.653,79.134,271.22,79.134,256z M164.864,407.051c-32.768-19.979-58.906-50.138-73.064-85.623l73.064-66.423V407.051z
	 M255.854,432.826c-25.111,0-49.518-5.225-72.558-15.605V332.8h231.507C385.361,393.729,323.3,432.826,255.854,432.826z
	 M422.767,314.368h-75.118V105.164c52.735,32.002,85.278,89.452,85.278,150.898C432.927,275.904,429.382,295.424,422.767,314.368z"
	/>
</svg>
