<?xml version="1.0" encoding="utf-8"?>
<!-- Generator: Adobe Illustrator 15.0.0, SVG Export Plug-In . SVG Version: 6.00 Build 0)  -->
<!DOCTYPE svg PUBLIC "-//W3C//DTD SVG 1.1//EN" "http://www.w3.org/Graphics/SVG/1.1/DTD/svg11.dtd">
<svg version="1.1" id="Layer_1" xmlns="http://www.w3.org/2000/svg" xmlns:xlink="http://www.w3.org/1999/xlink" x="0px" y="0px"
	 width="512px" height="512px" viewBox="0 0 512 512" enable-background="new 0 0 512 512" xml:space="preserve">
<g>
	<path d="M361.51,22.955C328.055,7.824,292.647,0,255.961,0c-30.521,0-60.527,5.865-89.381,16.779l194.93,176.84V22.955z"/>
	<path d="M124.223,474.636V254.559L18.468,350.701C38.963,402.067,76.409,445.715,124.223,474.636z"/>
	<path d="M139.313,28.41C53.363,72.568,0.001,159.447,0.001,256c0,22.029,3.313,44.368,9.294,66.499l226.91-206.181L139.313,28.41z"
		/>
	<path d="M151.11,489.355C184.387,504.385,219.613,512,255.961,512c97.624,0,187.28-56.817,229.895-144.726H151.11V489.355z"/>
	<path d="M388.479,37.675v302.63h108.904C506.955,313.028,512,284.719,512,256.001C512.002,167.063,464.651,83.996,388.479,37.675z"
		/>
</g>
</svg>
