<?xml version="1.0" encoding="utf-8"?>
<!-- Generator: Adobe Illustrator 15.0.0, SVG Export Plug-In . SVG Version: 6.00 Build 0)  -->
<!DOCTYPE svg PUBLIC "-//W3C//DTD SVG 1.1//EN" "http://www.w3.org/Graphics/SVG/1.1/DTD/svg11.dtd">
<svg version="1.1" id="Layer_1" xmlns="http://www.w3.org/2000/svg" xmlns:xlink="http://www.w3.org/1999/xlink" x="0px" y="0px"
	 width="512px" height="512px" viewBox="0 0 512 512" enable-background="new 0 0 512 512" xml:space="preserve">
<g>
	<path fill="none" d="M39.306,394.539h16.02L168.219,163.34l124.164,166.488l61.832-53.854l106.941,118.563h11.539V117.457H39.306
		V394.539z M396.324,168.016c21.37,0,38.703,17.344,38.703,38.73c0,21.375-17.333,38.711-38.703,38.711
		c-21.392,0-38.719-17.336-38.719-38.711C357.606,185.359,374.933,168.016,396.324,168.016z"/>
	<path d="M396.324,245.457c21.37,0,38.703-17.336,38.703-38.711c0-21.387-17.333-38.73-38.703-38.73
		c-21.392,0-38.719,17.344-38.719,38.73C357.606,228.121,374.933,245.457,396.324,245.457z"/>
	<path d="M0,74.383v363.234h512V74.383H0z M472.696,394.539h-11.539L354.215,275.977l-61.832,53.853L168.219,163.34L55.324,394.539
		h-16.02V117.457h433.39L472.696,394.539L472.696,394.539z"/>
</g>
</svg>
