<?xml version="1.0" encoding="utf-8"?>
<!-- Generator: Adobe Illustrator 15.0.0, SVG Export Plug-In . SVG Version: 6.00 Build 0)  -->
<!DOCTYPE svg PUBLIC "-//W3C//DTD SVG 1.1//EN" "http://www.w3.org/Graphics/SVG/1.1/DTD/svg11.dtd">
<svg version="1.1" id="Layer_1" xmlns="http://www.w3.org/2000/svg" xmlns:xlink="http://www.w3.org/1999/xlink" x="0px" y="0px"
	 width="512px" height="512px" viewBox="0 0 512 512" enable-background="new 0 0 512 512" xml:space="preserve">
<g>
	<path d="M512,250.961c0-32.207-26.201-58.405-58.404-58.405c-14.561,0-27.883,5.368-38.123,14.217
		c-39.656-25.739-90.988-40.764-145.924-42.896l29.023-94.637l84.436,18.902c-0.002,0.228-0.033,0.448-0.033,0.676
		c0,26.613,21.654,48.266,48.266,48.266s48.266-21.652,48.266-48.266s-21.652-48.265-48.266-48.265
		c-20,0-37.191,12.229-44.506,29.601l-92.441-20.694c-4.684-1.049-9.383,1.681-10.789,6.271l-33.106,107.944
		c-57.917,0.929-112.308,16.122-153.872,43.1c-10.238-8.848-23.563-14.217-38.123-14.217c-32.203,0-58.402,26.199-58.402,58.405
		c0,21.122,11.271,39.659,28.113,49.918c-0.86,5.484-1.313,11.031-1.313,16.633c0,41.855,24.355,80.934,68.577,110.023
		c43.037,28.313,100.078,43.91,160.621,43.91c60.538,0,117.583-15.6,160.62-43.91c44.223-29.092,68.576-68.168,68.576-110.023
		c0-5.602-0.451-11.146-1.313-16.633C500.727,290.621,512,272.082,512,250.961z M431.239,58.921
		c16.484,0,29.896,13.41,29.896,29.896c0,16.482-13.412,29.896-29.896,29.896c-16.482,0-29.896-13.414-29.896-29.896
		C401.342,72.332,414.754,58.921,431.239,58.921z M18.368,250.961c0-22.076,17.959-40.036,40.034-40.036
		c8.359,0,16.122,2.583,22.548,6.978c-23.512,18.578-39.833,40.38-48.038,63.904C24.037,274.459,18.368,263.361,18.368,250.961z
		 M256,453.076c-116.252,0-210.829-60.813-210.829-135.564c0-3.213,0.187-6.396,0.53-9.555c0.667-6.111,1.956-12.115,3.846-17.982
		c7.062-21.914,22.373-41.909,43.751-58.577c4.741-3.701,9.792-7.229,15.106-10.583c38.061-24.02,90.178-38.861,147.596-38.861
		c57.415,0,109.534,14.843,147.592,38.861c5.314,3.354,10.367,6.883,15.107,10.583c21.379,16.667,36.691,36.663,43.752,58.577
		c1.891,5.867,3.18,11.871,3.846,17.982c0.346,3.156,0.529,6.342,0.529,9.555C466.826,392.264,372.25,453.076,256,453.076z
		 M479.088,281.809c-8.203-23.523-24.527-45.328-48.039-63.905c6.426-4.395,14.188-6.978,22.547-6.978
		c22.076,0,40.035,17.959,40.035,40.036C493.631,263.361,487.965,274.459,479.088,281.809z"/>
	<path d="M325.975,376.256c-17.406,14.27-38.988,20.633-69.975,20.633c-30.989,0-52.57-6.363-69.979-20.633
		c-4.117-3.375-10.195-2.771-13.569,1.344c-3.377,4.119-2.775,10.195,1.344,13.572c20.81,17.061,46.93,25.004,82.204,25.004
		c35.274,0,61.393-7.943,82.204-25.004c4.117-3.377,4.721-9.453,1.344-13.572C336.166,373.477,330.092,372.881,325.975,376.256z"/>
	<path d="M214.118,290.01c0-19.184-15.551-34.734-34.735-34.734c-19.187,0-34.74,15.55-34.74,34.734
		c0,19.189,15.554,34.742,34.74,34.742C198.567,324.75,214.118,309.199,214.118,290.01z"/>
	<path d="M334.262,255.276c-19.189,0-34.742,15.55-34.742,34.734c0,19.189,15.553,34.742,34.742,34.742
		c19.184,0,34.738-15.553,34.738-34.742C369,270.826,353.446,255.276,334.262,255.276z"/>
</g>
</svg>
