<?xml version="1.0" encoding="utf-8"?>
<!-- Generator: Adobe Illustrator 15.0.0, SVG Export Plug-In . SVG Version: 6.00 Build 0)  -->
<!DOCTYPE svg PUBLIC "-//W3C//DTD SVG 1.1//EN" "http://www.w3.org/Graphics/SVG/1.1/DTD/svg11.dtd">
<svg version="1.1" id="Layer_1" xmlns="http://www.w3.org/2000/svg" xmlns:xlink="http://www.w3.org/1999/xlink" x="0px" y="0px"
	 width="512px" height="512px" viewBox="0 0 512 512" enable-background="new 0 0 512 512" xml:space="preserve">
<g>
	<path d="M449.078,469.246l-114.54-168.305c65.459-51.835,83.963-145.677,39.835-219.126
		C326.445,2.041,222.559-23.857,142.792,24.06C63.028,71.993,37.13,175.876,85.054,255.642
		c43.213,71.943,131.962,100.047,207.479,69.718l95.143,180.783c2.95,5.611,9.802,7.523,15.23,4.273l42.784-25.72
		C451.126,481.433,452.653,474.482,449.078,469.246z M288.781,267.032c-54.212,32.563-124.809,14.959-157.375-39.253
		c-32.566-54.197-14.953-124.794,39.252-157.36c54.19-32.57,124.788-14.961,157.352,39.245
		C360.58,163.862,342.978,234.475,288.781,267.032z"/>
</g>
</svg>
