<?xml version="1.0" encoding="utf-8"?>
<!-- Generator: Adobe Illustrator 15.0.0, SVG Export Plug-In . SVG Version: 6.00 Build 0)  -->
<!DOCTYPE svg PUBLIC "-//W3C//DTD SVG 1.1//EN" "http://www.w3.org/Graphics/SVG/1.1/DTD/svg11.dtd">
<svg version="1.1" id="Layer_1" xmlns="http://www.w3.org/2000/svg" xmlns:xlink="http://www.w3.org/1999/xlink" x="0px" y="0px"
	 width="512px" height="512px" viewBox="0 0 512 512" enable-background="new 0 0 512 512" xml:space="preserve">
<path d="M487.655,288.969c1.406-10.4,2.215-20.973,2.215-31.736c0-129.156-105.271-233.872-235.103-233.872
	c-12.904,0-25.555,1.06-37.866,3.08c-22.073-14.384-48.342-22.767-76.613-22.767C62.766,3.674,0,66.482,0,143.98
	c0,28.198,8.299,54.394,22.59,76.389c-1.925,12.017-2.909,24.323-2.909,36.86c0,129.176,105.217,233.881,235.085,233.881
	c14.657,0,28.927-1.426,42.796-3.932c21.55,13.369,46.934,21.148,74.146,21.148c77.502,0,140.293-62.824,140.293-140.314
	C511.998,338.719,503.041,311.484,487.655,288.969z M276.74,429.596c-74.706,3.891-109.665-12.637-141.69-42.691
	c-35.765-33.568-21.398-71.855,7.74-73.801c29.122-1.945,46.608,33.012,62.151,42.736c15.524,9.688,74.593,31.76,105.794-3.908
	c33.975-38.828-22.594-58.92-64.059-65.002c-59.203-8.766-133.95-40.793-128.135-103.907c5.817-63.074,53.582-95.414,103.85-99.976
	c64.077-5.817,105.791,9.707,138.785,37.86c38.151,32.529,17.508,68.894-6.799,71.82c-24.211,2.909-51.404-53.504-104.791-54.352
	c-55.027-0.864-92.217,57.261-24.286,73.784c67.966,16.505,140.75,23.286,166.961,85.417
	C418.49,359.713,351.507,425.701,276.74,429.596z"/>
</svg>
