<?xml version="1.0" encoding="utf-8"?>
<!-- Generator: Adobe Illustrator 15.0.0, SVG Export Plug-In . SVG Version: 6.00 Build 0)  -->
<!DOCTYPE svg PUBLIC "-//W3C//DTD SVG 1.1//EN" "http://www.w3.org/Graphics/SVG/1.1/DTD/svg11.dtd">
<svg version="1.1" id="Layer_1" xmlns="http://www.w3.org/2000/svg" xmlns:xlink="http://www.w3.org/1999/xlink" x="0px" y="0px"
	 width="512px" height="512px" viewBox="0 0 512 512" enable-background="new 0 0 512 512" xml:space="preserve">
<g>
	<path d="M5.798,277.808c-1.068,0-1.916,0.826-2.054,2.006l-3.743,28.438l3.743,27.95c0.139,1.176,0.985,1.997,2.054,1.997
		c1.035,0,1.878-0.813,2.042-1.985l4.438-27.962L7.84,279.806C7.682,278.634,6.828,277.808,5.798,277.808z"/>
	<path d="M35.966,260.202c-1.085,0-1.983,0.872-2.131,2.066c0,0.01-5.034,45.98-5.034,45.98l5.034,44.963
		c0.142,1.206,1.04,2.076,2.131,2.076c1.07,0,1.948-0.85,2.124-2.063l5.726-44.976l-5.719-45.98
		C37.921,261.046,37.045,260.202,35.966,260.202z"/>
	<path d="M65.122,249.256c-1.586,0-2.879,1.269-3.007,2.96l-4.513,56.05l4.513,54.229c0.121,1.679,1.421,2.947,3.007,2.947
		c1.568,0,2.863-1.27,3.002-2.947l5.133-54.229l-5.133-56.062C67.986,250.524,66.692,249.256,65.122,249.256z"/>
	<path d="M94.101,252.881c-1.851,0-3.326,1.46-3.442,3.393l-4.255,51.993l4.255,54.676c0.123,1.929,1.592,3.388,3.442,3.388
		c1.823,0,3.298-1.46,3.435-3.383l4.835-54.681l-4.835-52.017C97.406,254.329,95.929,252.881,94.101,252.881z"/>
	<path d="M123.084,219.854c-2.064,0-3.771,1.691-3.869,3.84l-4.011,84.594l4.011,54.671c0.104,2.137,2.068,3.821,4.134,3.821
		c2.055,0,4.142-1.692,4.142-3.834v0.019l4.267-54.677l-4.664-84.594C126.97,221.546,125.139,219.854,123.084,219.854z"/>
	<path d="M152.066,200.088c-2.322,0-4.216,1.877-4.318,4.272c0,0.007-3.742,103.945-3.742,103.945l3.75,54.326
		c0.094,2.374,1.988,4.253,4.311,4.253c2.302,0,4.201-1.879,4.311-4.273l4.23-54.306l-4.23-103.945
		C156.263,201.961,154.368,200.088,152.066,200.088z"/>
	<path d="M181.219,186.741c-2.83,0-5.11,2.262-5.187,5.159l-3.226,116.416l3.23,53.436c0.079,2.864,2.854,5.128,5.678,5.128
		c2.819,0,5.681-2.264,5.681-5.145v-0.004l3.134-53.412l-3.879-116.42C186.56,189.01,184.032,186.741,181.219,186.741z"/>
	<path d="M210.385,192.995c-3.331,0-6.002,2.649-6.067,6.042l-2.709,109.302l2.709,52.596c0.065,3.349,2.799,5.997,6.135,5.997
		c3.326,0,6.125-2.644,6.125-6.033v0.043l2.972-52.597l-3.073-109.316C216.397,195.645,213.711,192.995,210.385,192.995z"/>
	<path d="M240.193,159.581c-3.782,0-6.886,3.104-6.943,6.919l-2.84,141.867l2.848,51.484c0.05,3.765,3.496,6.862,7.277,6.862
		c3.773,0,7.276-3.099,7.276-6.918v0.061l2.747-51.489l-3.262-141.878C247.241,162.685,243.966,159.581,240.193,159.581z"/>
	<path d="M449.018,241.212c-8.627,0-16.861,1.746-24.357,4.89c-5.012-56.757-52.607-101.277-110.662-101.277
		c-14.207,0-27.99,2.795-40.219,7.526c-4.752,1.838-6,3.733-6,7.403v199.874c0,3.854,2.977,7.065,6.736,7.442
		c0.16,0.018,173.404,0.105,174.527,0.105c34.777,0,62.957-28.198,62.957-62.979C512,269.415,483.793,241.212,449.018,241.212z"/>
</g>
</svg>
