<?xml version="1.0" encoding="utf-8"?>
<!-- Generator: Adobe Illustrator 15.0.0, SVG Export Plug-In . SVG Version: 6.00 Build 0)  -->
<!DOCTYPE svg PUBLIC "-//W3C//DTD SVG 1.1//EN" "http://www.w3.org/Graphics/SVG/1.1/DTD/svg11.dtd">
<svg version="1.1" id="Layer_1" xmlns="http://www.w3.org/2000/svg" xmlns:xlink="http://www.w3.org/1999/xlink" x="0px" y="0px"
	 width="512px" height="512px" viewBox="0 0 512 512" enable-background="new 0 0 512 512" xml:space="preserve">
<path d="M256.002,0C114.841,0,0,114.843,0,255.997C0,397.164,114.841,512,256.002,512C397.157,512,512,397.164,512,255.997
	C512,114.844,397.157,0,256.002,0z M368.416,302.566c5.971-14.35,9.295-30.07,9.295-46.571c0-16.484-3.324-32.208-9.295-46.554
	l113.558-47.045c11.996,28.854,18.651,60.467,18.651,93.599c0,33.157-6.655,64.76-18.651,93.596L368.416,302.566z M256.002,366.332
	c-60.842,0-110.338-49.494-110.338-110.335c0-60.825,49.496-110.323,110.338-110.323c60.841,0,110.337,49.498,110.337,110.323
	C366.339,316.838,316.843,366.332,256.002,366.332z M30.029,349.594c-11.995-28.836-18.648-60.441-18.648-93.597
	c0-33.132,6.653-64.746,18.648-93.598l113.554,47.044c-5.968,14.345-9.294,30.069-9.294,46.554c0,16.5,3.327,32.222,9.294,46.57
	L30.029,349.594z M349.605,30.034L302.564,143.59c-14.354-5.967-30.07-9.307-46.562-9.307c-16.492,0-32.214,3.34-46.566,9.307
	L162.395,30.033c28.853-11.984,60.467-18.658,93.607-18.658C289.142,11.375,320.756,18.048,349.605,30.034z M162.395,481.967
	l47.041-113.551c14.354,5.98,30.075,9.301,46.566,9.301c16.49,0,32.211-3.318,46.562-9.301L349.6,481.967
	c-28.844,12-60.458,18.656-93.598,18.656C222.862,500.623,191.246,493.959,162.395,481.967z"/>
</svg>
