<?xml version="1.0" encoding="utf-8"?>
<!-- Generator: Adobe Illustrator 15.0.0, SVG Export Plug-In . SVG Version: 6.00 Build 0)  -->
<!DOCTYPE svg PUBLIC "-//W3C//DTD SVG 1.1//EN" "http://www.w3.org/Graphics/SVG/1.1/DTD/svg11.dtd">
<svg version="1.1" id="Layer_1" xmlns="http://www.w3.org/2000/svg" xmlns:xlink="http://www.w3.org/1999/xlink" x="0px" y="0px"
	 width="512px" height="512px" viewBox="0 0 512 512" enable-background="new 0 0 512 512" xml:space="preserve">
<path d="M458.038,328.472c0.017,10.138-21.082,24-21.935,34.121c-0.865,10.109,10.941,27.653,10.966,37.79
	c0.022,14.212-22.656,27.313-28.027,37.771c-3.641,7.055,0.629,24.362-2.445,31.677c-5.391,12.737-28.208,32.59-41.431,36.556
	c-42.028,12.632-175.483,0-175.483,0L53.962,486.886V277.29h2.646l0,0h44.793c14.008-3.218,43.267-22.191,79.528-114.545
	c5.899-15.031,17.067-23.665,29.853-33.528c21.277-16.402,37.169-39.445,42.505-122.456c0.738-11.442,36.555-9.742,56.067,15.841
	c15.974,20.934,18.102,61.681,5.47,92.4c-8.603,20.961-39.884,69.509-28.639,89.162c0,0,115.064-4.285,137.706,4.883
	c14.267,5.774,35.018,35.821,34.118,51.173c-0.504,8.453-15.954,20.875-17.057,29.246
	C439.554,300.018,457.989,317.83,458.038,328.472z"/>
</svg>
