<?xml version="1.0" encoding="utf-8"?>
<!-- Generator: Adobe Illustrator 15.0.0, SVG Export Plug-In . SVG Version: 6.00 Build 0)  -->
<!DOCTYPE svg PUBLIC "-//W3C//DTD SVG 1.1//EN" "http://www.w3.org/Graphics/SVG/1.1/DTD/svg11.dtd">
<svg version="1.1" id="Layer_1" xmlns="http://www.w3.org/2000/svg" xmlns:xlink="http://www.w3.org/1999/xlink" x="0px" y="0px"
	 width="512px" height="512px" viewBox="0 0 512 512" enable-background="new 0 0 512 512" xml:space="preserve">
<path d="M440.949,222.528c1.103,8.383,16.563,20.79,17.063,29.237c0.89,15.361-19.86,45.416-34.126,51.19
	c-22.634,9.157-137.701,4.871-137.701,4.871c-11.251,19.661,20.04,68.209,28.643,89.171c12.625,30.721,10.491,71.472-5.484,92.402
	c-19.509,25.578-55.322,27.281-56.065,15.837c-5.336-83.016-21.211-106.052-42.494-122.458
	c-12.78-9.855-23.953-19.109-29.853-34.143c-36.266-92.354-65.533-107.385-79.526-115.167H56.608l0,0H53.96V25.109l145.73-19.497
	c0,0,133.449-12.629,175.483,0c13.211,3.961,36.031,23.817,41.415,36.556c3.086,7.313-1.188,24.622,2.444,31.681
	c5.375,10.457,28.057,23.555,28.032,37.771c-0.016,10.137-11.829,27.677-10.969,37.781c0.858,10.125,21.954,23.99,21.93,34.127
	C457.996,194.159,439.551,211.984,440.949,222.528z"/>
</svg>
