<?xml version="1.0" encoding="utf-8"?>
<!-- Generator: Adobe Illustrator 15.0.0, SVG Export Plug-In . SVG Version: 6.00 Build 0)  -->
<!DOCTYPE svg PUBLIC "-//W3C//DTD SVG 1.1//EN" "http://www.w3.org/Graphics/SVG/1.1/DTD/svg11.dtd">
<svg version="1.1" id="Layer_1" xmlns="http://www.w3.org/2000/svg" xmlns:xlink="http://www.w3.org/1999/xlink" x="0px" y="0px"
	 width="512px" height="512px" viewBox="0 0 512 512" enable-background="new 0 0 512 512" xml:space="preserve">
<path d="M416.751,484.105c-21.849,10.277-41.684,17.525-59.414,21.689c-17.75,4.122-36.93,6.204-57.533,6.204
	c-23.413,0-37.227-2.943-55.204-8.829c-17.979-5.934-33.33-14.401-46.01-25.27c-12.725-10.961-21.511-22.603-26.424-34.915
	c-4.913-12.319-7.358-30.207-7.358-53.621V209.81H95.249v-72.503c20.104-6.521,43.428-15.894,57.737-28.076
	c14.377-12.225,25.882-26.853,34.552-43.972c8.697-17.073,14.674-38.856,17.936-65.258h72.818v118.423H396.67v91.387H278.29v131.281
	c0,29.708-0.384,46.827,2.765,55.25c3.125,8.377,10.959,17.072,19.495,22.099c11.343,6.795,24.272,10.189,38.854,10.189
	c25.927,0,51.716-8.424,77.347-25.269L416.751,484.105L416.751,484.105z"/>
</svg>
