<?xml version="1.0" encoding="utf-8"?>
<!-- Generator: Adobe Illustrator 15.0.0, SVG Export Plug-In . SVG Version: 6.00 Build 0)  -->
<!DOCTYPE svg PUBLIC "-//W3C//DTD SVG 1.1//EN" "http://www.w3.org/Graphics/SVG/1.1/DTD/svg11.dtd">
<svg version="1.1" id="Layer_1" xmlns="http://www.w3.org/2000/svg" xmlns:xlink="http://www.w3.org/1999/xlink" x="0px" y="0px"
	 width="512px" height="512px" viewBox="0 0 512 512" enable-background="new 0 0 512 512" xml:space="preserve">
<path d="M426.69,0H85.344C38.406,0,0.001,38.407,0.001,85.343v341.313C0.001,473.625,38.406,512,85.344,512H426.69
	C473.625,512,512,473.625,512,426.656V85.342C511.998,38.407,473.623,0,426.69,0z M365.858,412.344
	c-15.076,7.094-28.764,12.094-41,14.969c-12.248,2.844-25.48,4.279-39.701,4.279c-16.156,0-25.688-2.029-38.094-6.094
	c-12.405-4.094-23-9.936-31.75-17.436c-8.78-7.564-14.843-15.598-18.234-24.096c-3.391-8.502-5.078-20.846-5.078-37.002V223.062
	h-47.998v-50.033c13.872-4.5,29.968-10.967,39.842-19.375c9.92-8.436,17.859-18.529,23.842-30.342
	c6.002-11.783,10.125-26.813,12.376-45.033h50.25V160H352v63.063h-81.689v90.594c0,20.5-0.264,32.313,1.908,38.125
	c2.156,5.781,7.563,11.781,13.451,15.25c7.828,4.688,16.752,7.031,26.813,7.031c17.893,0,35.689-5.814,53.375-17.439V412.344
	L365.858,412.344z"/>
</svg>
