<?xml version="1.0" encoding="utf-8"?>
<!-- Generator: Adobe Illustrator 15.0.0, SVG Export Plug-In . SVG Version: 6.00 Build 0)  -->
<!DOCTYPE svg PUBLIC "-//W3C//DTD SVG 1.1//EN" "http://www.w3.org/Graphics/SVG/1.1/DTD/svg11.dtd">
<svg version="1.1" id="Layer_1" xmlns="http://www.w3.org/2000/svg" xmlns:xlink="http://www.w3.org/1999/xlink" x="0px" y="0px"
	 width="512px" height="512px" viewBox="0 0 512 512" enable-background="new 0 0 512 512" xml:space="preserve">
<path d="M426.671,0H85.343C38.406,0,0,38.405,0,85.345v341.311C0,473.625,38.406,512,85.343,512h341.328
	C473.609,512,512,473.625,512,426.655V85.345C512,38.405,473.609,0,426.671,0z M257,336h87.904
	c22.155,0,39.094,17.124,39.094,39.499c0,22.361-18.28,40.188-40.438,40.188H255.67c-70.577,0-127.67-61.469-127.67-137.403V136.499
	c0-22.359,17.952-40.5,40.094-40.5c22.156,0,38.907,18.141,38.907,40.5V176H343.89c22.156,0,40.108,17.907,40.108,39.999
	c0,22.079-17.952,39.986-40.108,39.986H207.001v22.296C207.001,309.017,231.094,336,257,336z"/>
</svg>
