<?xml version="1.0" encoding="utf-8"?>
<!-- Generator: Adobe Illustrator 15.0.0, SVG Export Plug-In . SVG Version: 6.00 Build 0)  -->
<!DOCTYPE svg PUBLIC "-//W3C//DTD SVG 1.1//EN" "http://www.w3.org/Graphics/SVG/1.1/DTD/svg11.dtd">
<svg version="1.1" id="Layer_1" xmlns="http://www.w3.org/2000/svg" xmlns:xlink="http://www.w3.org/1999/xlink" x="0px" y="0px"
	 width="512px" height="512px" viewBox="0 0 512 512" enable-background="new 0 0 512 512" xml:space="preserve">
<path id="bird" d="M0.001,334.932c33.327,30.816,118.891,59.981,188.517-8.271c-12.52,1.955-22.972-0.416-30.913-8.269
	c-7.531-7.465-7.945-15.182-3.914-22.202c3.275-5.725,10.184-9.741,16.977-13.934c-12.323,2.285-22.829,1.095-32.218-3.706
	c-12.604-6.444-24.863-13.228-28.3-27.207c7.71-8.112,16.28-15.359,34.831-12.627c-17.45-5.83-33.087-13.429-44.41-24.815
	c-11.028-11.091-12.163-18.302-13.932-26.996c9.632-3.567,19.688-5.421,30.478-4.353c-24.397-12.476-34.757-29.63-40.487-48.325
	c-1.731-5.652-2.044-11.03-1.31-16.545c98.826,37.305,145.11,64.109,170.662,89.251c11.496-30.589,38.3-99.868,78.371-123.646
	c0.191,3.77-1.309,7.837-4.357,12.189c11.863-6.609,21.125-17.188,37.445-16.98c-1.879,7.723-7.279,13.904-17.85,17.854
	c10.662-4.084,21.463-7.545,32.65-9.578c10.375-1.881,10.229,6.304,4.355,10.444c-11.916,8.412-24.578,9.456-37.006,13.498
	c38.105,0.949,69.266,18.994,93.604,58.343c8.088,13.074,13.52,26.149,14.807,40.487c16.254,4.563,32.426,5.494,48.76,2.61
	c4.475-0.796,8.645-1.63,12.627-3.482c-6.354,9.529-13.686,17.356-23.947,20.899c-9.811,3.387-19.637,6.688-30.473,6.968
	c17.641,6.675,37.082,7.045,57.033,5.659c-24.402,23.486-43.08,22.922-61.824,22.642c-8.221,34.703-25.025,69.315-60.52,101.005
	c-46.559,41.569-96.678,61.397-148.457,65.742c-48.552,4.07-95.488,3.512-146.726-20.464
	C56.486,393.349,24.648,368.884,0.001,334.932L0.001,334.932z"/>
</svg>
