<?xml version="1.0" encoding="utf-8"?>
<!-- Generator: Adobe Illustrator 15.0.0, SVG Export Plug-In . SVG Version: 6.00 Build 0)  -->
<!DOCTYPE svg PUBLIC "-//W3C//DTD SVG 1.1//EN" "http://www.w3.org/Graphics/SVG/1.1/DTD/svg11.dtd">
<svg version="1.1" id="Layer_1" xmlns="http://www.w3.org/2000/svg" xmlns:xlink="http://www.w3.org/1999/xlink" x="0px" y="0px"
	 width="512px" height="512px" viewBox="0 0 512 512" enable-background="new 0 0 512 512" xml:space="preserve">
<path d="M398.394,384.375H257.607c-41.493,0-80.083-43.219-80.083-92.439v-35.714h219.24c35.478,0,64.233-28.671,64.233-64.038
	c0-35.382-28.757-64.061-64.233-64.061h-219.24V64.86c0-35.81-26.826-64.86-62.312-64.86c-35.454,0-64.211,29.05-64.211,64.86
	v227.078C51.001,413.553,142.435,512,255.47,512H396.24c35.479,0,64.759-28.553,64.759-64.361
	C460.997,411.803,433.871,384.375,398.394,384.375z"/>
</svg>
