<?xml version="1.0" encoding="utf-8"?>
<!-- Generator: Adobe Illustrator 15.0.0, SVG Export Plug-In . SVG Version: 6.00 Build 0)  -->
<!DOCTYPE svg PUBLIC "-//W3C//DTD SVG 1.1//EN" "http://www.w3.org/Graphics/SVG/1.1/DTD/svg11.dtd">
<svg version="1.1" id="Layer_1" xmlns="http://www.w3.org/2000/svg" xmlns:xlink="http://www.w3.org/1999/xlink" x="0px" y="0px"
	 width="512px" height="512px" viewBox="0 0 512 512" enable-background="new 0 0 512 512" xml:space="preserve">
<path d="M426.658,0H85.345C38.408,0,0,38.408,0,85.346v341.313C0,473.625,38.408,512,85.345,512h341.313
	C473.6,512,512,473.625,512,426.657V85.346C512,38.408,473.6,0,426.658,0z M426.087,263.743
	c-7.197,30.399-21.921,60.719-53.008,88.477c-40.784,36.414-84.688,53.782-130.045,57.589
	c-42.529,3.565-83.646,3.078-128.524-17.925c-33.277-15.571-61.165-37.003-82.755-66.742c29.192,26.994,104.143,52.54,165.133-7.244
	c-10.968,1.712-20.123-0.365-27.081-7.243c-6.595-6.538-6.958-13.3-3.427-19.45c2.867-5.011,8.923-8.532,14.869-12.202
	c-10.792,2.001-19.995,0.959-28.22-3.246c-11.042-5.646-21.774-11.588-24.79-23.834c6.755-7.105,14.26-13.452,30.51-11.06
	c-15.284-5.107-28.981-11.764-38.896-21.738c-9.665-9.715-10.66-16.032-12.208-23.647c8.437-3.125,17.248-4.747,26.697-3.812
	c-21.372-10.93-30.445-25.955-35.465-42.333c-1.519-4.951-1.79-9.66-1.146-14.491c86.564,32.677,127.11,56.156,149.49,78.182
	c10.072-26.796,33.55-87.48,68.648-108.31c0.171,3.303-1.145,6.863-3.813,10.676c10.39-5.789,18.506-15.055,32.803-14.875
	c-1.646,6.766-6.378,12.183-15.641,15.643c9.34-3.579,18.803-6.61,28.603-8.393c9.087-1.645,8.957,5.522,3.814,9.149
	c-10.439,7.371-21.529,8.282-32.417,11.823c33.38,0.834,60.675,16.638,81.993,51.106c7.087,11.451,11.845,22.908,12.972,35.465
	c14.238,3.998,28.406,4.813,42.71,2.286c3.921-0.695,7.57-1.427,11.063-3.05c-5.563,8.348-11.988,15.205-20.977,18.308
	c-8.591,2.967-17.203,5.856-26.693,6.104c15.453,5.848,32.482,6.171,49.957,4.956C458.866,264.486,442.51,263.991,426.087,263.743z"
	/>
</svg>
