<?xml version="1.0" encoding="utf-8"?>
<!-- Generator: Adobe Illustrator 15.0.0, SVG Export Plug-In . SVG Version: 6.00 Build 0)  -->
<!DOCTYPE svg PUBLIC "-//W3C//DTD SVG 1.1//EN" "http://www.w3.org/Graphics/SVG/1.1/DTD/svg11.dtd">
<svg version="1.1" id="Layer_1" xmlns="http://www.w3.org/2000/svg" xmlns:xlink="http://www.w3.org/1999/xlink" x="0px" y="0px"
	 width="512px" height="512px" viewBox="0 0 512 512" enable-background="new 0 0 512 512" xml:space="preserve">
<path d="M0.001,154.185l20.797,27.272c0,0,42.885-33.804,57.18-16.901c14.294,16.901,68.868,220.976,87.085,258.622
	c15.9,33.014,59.759,76.66,107.856,45.491c48.069-31.17,207.919-167.642,236.533-328.806
	C538.041-21.25,317.092,12.5,293.688,152.868c58.495-35.118,89.718,14.269,59.785,70.185c-29.879,55.862-57.18,92.296-71.476,92.296
	c-14.268,0-25.245-37.383-41.593-102.722c-16.9-67.551-16.796-189.229-87.058-175.434C87.085,50.198,0.001,154.185,0.001,154.185z"
	/>
</svg>
