<?xml version="1.0" encoding="utf-8"?>
<!-- Generator: Adobe Illustrator 15.0.0, SVG Export Plug-In . SVG Version: 6.00 Build 0)  -->
<!DOCTYPE svg PUBLIC "-//W3C//DTD SVG 1.1//EN" "http://www.w3.org/Graphics/SVG/1.1/DTD/svg11.dtd">
<svg version="1.1" id="Layer_1" xmlns="http://www.w3.org/2000/svg" xmlns:xlink="http://www.w3.org/1999/xlink" x="0px" y="0px"
	 width="512px" height="512px" viewBox="0 0 512 512" enable-background="new 0 0 512 512" xml:space="preserve">
<g>
	<path d="M206.115,255.956c-23.854-12.259-47.042-18.479-68.94-18.479c-2.977,0-5.976,0.09-8.974,0.354
		c-27.94,2.312-53.461,9.684-69.875,15.414c-4.354,1.599-8.817,3.288-13.415,5.153L0,414.095
		c30.851-11.415,58.146-16.968,83.135-16.968c40.423,0,69.764,15.104,93.996,30.651c11.482-38.957,39.023-133.043,47.241-161.162
		C218.397,262.975,212.334,259.331,206.115,255.956z"/>
	<path d="M264.174,295.535l-45.223,157.074c13.416,7.685,58.549,32.025,93.107,32.025c27.896,0,59.126-7.148,95.417-21.896
		l43.178-150.989c-29.317,9.462-57.438,14.26-83.733,14.26C318.945,326.009,285.363,310.461,264.174,295.535z"/>
	<path d="M146.411,184.394c38.559,0.399,67.077,15.104,90.708,30.251l46.376-158.672c-9.773-5.598-35.403-19.547-53.928-24.3
		c-12.194-2.842-25.01-4.308-38.602-4.308c-25.898,0.488-54.194,6.973-86.444,19.9L60.301,202.563
		c32.404-12.218,60.322-18.17,86.043-18.17C146.366,184.394,146.411,184.394,146.411,184.394z"/>
	<path d="M512,99.061c-29.407,11.416-58.104,17.233-85.513,17.233c-45.843,0-79.646-15.901-101.547-31.183L278.964,244.23
		c30.873,19.854,64.145,29.939,99.061,29.939c28.474,0,57.97-6.84,87.731-20.344l-0.09-1.111l1.867-0.443L512,99.061z"/>
</g>
</svg>
