<?xml version="1.0" encoding="utf-8"?>
<!-- Generator: Adobe Illustrator 15.0.0, SVG Export Plug-In . SVG Version: 6.00 Build 0)  -->
<!DOCTYPE svg PUBLIC "-//W3C//DTD SVG 1.1//EN" "http://www.w3.org/Graphics/SVG/1.1/DTD/svg11.dtd">
<svg version="1.1" id="Layer_1" xmlns="http://www.w3.org/2000/svg" xmlns:xlink="http://www.w3.org/1999/xlink" x="0px" y="0px"
	 width="512px" height="512px" viewBox="0 0 512 512" enable-background="new 0 0 512 512" xml:space="preserve">
<g>
	<path d="M36.389,255.994c0,86.922,50.511,162.051,123.775,197.642L55.406,166.617C43.22,193.928,36.389,224.153,36.389,255.994z"/>
	<path d="M404.248,244.917c0-27.149-9.754-45.94-18.105-60.565c-11.129-18.099-21.572-33.41-21.572-51.508
		c0-20.185,15.307-38.979,36.879-38.979c0.975,0,1.898,0.121,2.846,0.179c-39.068-35.801-91.125-57.661-148.296-57.661
		c-76.725,0-144.222,39.37-183.488,98.984c5.153,0.166,10.012,0.267,14.134,0.267c22.964,0,58.527-2.791,58.527-2.791
		c11.832-0.694,13.23,16.697,1.405,18.099c0,0-11.9,1.391-25.134,2.086l79.969,237.882l48.065-144.134l-34.212-93.748
		c-11.831-0.695-23.034-2.086-23.034-2.086c-11.838-0.7-10.449-18.791,1.394-18.099c0,0,36.258,2.791,57.838,2.791
		c22.961,0,58.534-2.791,58.534-2.791c11.838-0.694,13.234,16.697,1.398,18.099c0,0-11.914,1.392-25.133,2.086l79.365,236.068
		l21.91-73.186C397.02,285.521,404.248,263.709,404.248,244.917z"/>
	<path d="M259.852,275.202l-65.898,191.466c19.682,5.788,40.488,8.948,62.044,8.948c25.573,0,50.1-4.415,72.926-12.449
		c-0.582-0.94-1.129-1.94-1.572-3.027L259.852,275.202z"/>
	<path d="M448.703,150.637c0.945,6.994,1.479,14.496,1.479,22.584c0,22.273-4.172,47.326-16.701,78.656l-67.074,193.938
		c65.287-38.067,109.195-108.802,109.195-189.819C475.602,217.809,465.846,181.913,448.703,150.637z"/>
	<path d="M255.998,0C114.837,0,0.001,114.836,0.001,255.994C0.001,397.159,114.837,512,255.998,512
		C397.155,512,512,397.158,512,255.994C512.002,114.835,397.155,0,255.998,0z M255.998,500.262
		c-134.685,0-244.26-109.582-244.26-244.268c0-134.684,109.575-244.256,244.26-244.256c134.68,0,244.26,109.573,244.26,244.256
		C500.258,390.68,390.678,500.262,255.998,500.262z"/>
</g>
</svg>
