<?xml version="1.0" encoding="utf-8"?>
<!-- Generator: Adobe Illustrator 15.0.0, SVG Export Plug-In . SVG Version: 6.00 Build 0)  -->
<!DOCTYPE svg PUBLIC "-//W3C//DTD SVG 1.1//EN" "http://www.w3.org/Graphics/SVG/1.1/DTD/svg11.dtd">
<svg version="1.1" id="Layer_1" xmlns="http://www.w3.org/2000/svg" xmlns:xlink="http://www.w3.org/1999/xlink" x="0px" y="0px"
	 width="512px" height="512px" viewBox="0 0 512 512" enable-background="new 0 0 512 512" xml:space="preserve">
<path d="M426.656,0H85.343C38.406,0,0,38.406,0,85.343v341.314C0,473.624,38.406,512,85.343,512h341.313
	C473.594,512,512,473.624,512,426.657V85.343C512,38.406,473.594,0,426.656,0z M373.315,197.969
	c-9.407,2.531-95.377,68.938-101.033,85.25c-1.251,5.626,0.125,60.221,1.375,68.408c5.656,1.248,46.563,0.154,54.063,1.403
	l-0.906,16.876c-7.344-0.563-59.313-0.438-88.969-0.438c-15.064,0-63.5,1.654-78.374,1.217l2.81-16.061
	c8.159-0.594,41.939,1.499,49.345-6.345c3.688-3.905,2.531-55.781,1.281-64.564c-3.125-9.374-78.469-103.436-98.156-118.842H64
	v-23.626h171.125v23.626h-51.595c22.999,33.499,55.97,73.97,70.033,93.406l68.937-62.218h-40.97l-5.78-23.627h150.095l-15.97,23.627
	h-27.688C378.594,196.844,375.437,197.531,373.315,197.969z M418.593,370.781l-12.563-0.938l-11.655-1.001l-0.125-25.248
	l14.779,1.813l13.25,0.656L418.593,370.781z M421.22,328.844L398.218,327l-0.625-106.655c5.28,1.031,45.938,4.874,50.405,5.028
	L421.22,328.844z"/>
</svg>
