<?xml version="1.0" encoding="utf-8"?>
<!-- Generator: Adobe Illustrator 15.0.0, SVG Export Plug-In . SVG Version: 6.00 Build 0)  -->
<!DOCTYPE svg PUBLIC "-//W3C//DTD SVG 1.1//EN" "http://www.w3.org/Graphics/SVG/1.1/DTD/svg11.dtd">
<svg version="1.1" id="Layer_1" xmlns="http://www.w3.org/2000/svg" xmlns:xlink="http://www.w3.org/1999/xlink" x="0px" y="0px"
	 width="512px" height="512px" viewBox="0 0 512 512" enable-background="new 0 0 512 512" xml:space="preserve">
<g>
	<path d="M482.459,144.438H282.333l7.708,31.23h54.624l-91.914,83.015c-18.752-25.916-62.711-79.942-93.377-124.485h68.461v-31.23H0
		v31.23h67.666c26.25,20.479,126.708,146.104,130.875,158.604c1.667,11.709,3.21,80.947-1.708,86.156
		c-9.875,10.459-54.916,7.706-65.793,8.496l-3.748,21.434c19.832,0.585,84.415-1.613,104.5-1.613
		c39.541,0,108.833-0.163,118.625,0.587l1.209-22.499c-10.002-1.667-64.542-0.205-72.084-1.87
		c-1.667-10.919-3.502-83.709-1.833-91.211c7.541-21.749,122.168-110.494,134.71-113.868c2.831-0.584,7.04-1.719,11.831-2.742
		h36.916L482.459,144.438z"/>
	<polygon points="440.334,372.782 440.501,406.448 456.043,407.782 472.791,409.032 477.708,376.073 460.041,375.198 	"/>
	<path d="M445.625,350.658l30.669,2.458L512,215.156c-5.957-0.206-60.166-5.331-67.21-6.706L445.625,350.658z"/>
</g>
</svg>
