<?xml version="1.0" encoding="utf-8"?>
<!-- Generator: Adobe Illustrator 15.0.0, SVG Export Plug-In . SVG Version: 6.00 Build 0)  -->
<!DOCTYPE svg PUBLIC "-//W3C//DTD SVG 1.1//EN" "http://www.w3.org/Graphics/SVG/1.1/DTD/svg11.dtd">
<svg version="1.1" id="Layer_1" xmlns="http://www.w3.org/2000/svg" xmlns:xlink="http://www.w3.org/1999/xlink" x="0px" y="0px"
	 width="512px" height="512px" viewBox="0 0 512 512" enable-background="new 0 0 512 512" xml:space="preserve">
<g>
	<polygon points="160.906,117.063 159.064,117.063 140.034,47.999 110.498,47.999 145.406,152.328 145.406,220.781 174.717,220.781 
		174.717,149.096 208.843,47.999 179.049,47.999 	"/>
	<path d="M276.251,99.357c-6.905-6.172-15.733-9.262-26.514-9.262c-11.832,0-21.27,2.934-28.266,8.778
		c-7.019,5.844-10.516,13.703-10.516,23.595v66.063c0,10.828,3.418,19.451,10.25,25.857c6.825,6.392,15.95,9.61,27.343,9.61
		c11.825,0,21.109-3.108,27.888-9.313c6.721-6.218,10.097-14.747,10.097-25.653v-65.848
		C286.532,113.469,283.093,105.516,276.251,99.357z M260.003,190.939c0,3.404-1.035,6.093-3.126,8.063
		c-2.081,1.938-4.874,2.919-8.409,2.919c-3.435,0-6.095-0.95-7.937-2.874c-1.842-1.921-2.78-4.609-2.78-8.107V121.5
		c0-2.781,0.997-5.032,2.967-6.749c2.001-1.72,4.581-2.563,7.75-2.563c3.455,0,6.236,0.844,8.359,2.563
		c2.108,1.717,3.176,3.968,3.176,6.749V190.939L260.003,190.939z"/>
	<path d="M355.909,190.063c-2.41,2.799-5.096,5.08-8.005,6.874c-2.935,1.784-5.372,2.688-7.276,2.688
		c-2.438,0-4.221-0.688-5.281-2.046c-1.094-1.343-1.688-3.517-1.688-6.548V93.311h-25.999v106.534
		c0,7.591,1.529,13.282,4.561,17.077c3.063,3.798,7.563,5.704,13.626,5.704c4.873,0,9.903-1.358,15.096-4.063
		c5.219-2.701,10.219-6.688,14.97-11.857v14.077h26.063V93.313h-26.063v96.75H355.909z"/>
	<path d="M426.673,0H85.345C38.406,0,0.001,38.404,0.001,85.344v250.658v90.654C0.001,473.628,38.406,512,85.345,512h341.328
		c46.938,0,85.326-38.372,85.326-85.344v-90.654V85.344C511.999,38.404,473.613,0,426.673,0z M162.939,313.234h-26.965V447.3H109.91
		V313.234h-26.97v-22.779h79.998V313.234z M241.874,447.3h-23.121v-12.719c-4.301,4.72-8.722,8.265-13.36,10.718
		c-4.608,2.484-9.077,3.688-13.424,3.688c-5.372,0-9.359-1.704-12.093-5.16c-2.686-3.466-4.061-8.593-4.061-15.498v-96.766h23.122
		v88.765c0,2.734,0.499,4.721,1.438,5.924c0.997,1.247,2.58,1.858,4.75,1.858c1.674,0,3.844-0.813,6.439-2.452
		c2.622-1.609,5-3.688,7.188-6.188v-87.905h23.121V447.3L241.874,447.3z M331.216,423.375c0,8.188-1.81,14.486-5.437,18.86
		c-3.608,4.357-8.875,6.531-15.716,6.531c-4.55,0-8.578-0.813-12.098-2.516c-3.546-1.674-6.874-4.281-9.89-7.828v8.876H264.7
		V290.455h23.377v50.482c3.127-3.484,6.438-6.219,9.905-8.03c3.534-1.829,7.081-2.733,10.674-2.733
		c7.326,0,12.92,2.468,16.764,7.375c3.875,4.937,5.796,12.139,5.796,21.609V423.375L331.216,423.375z M414.14,392.19h-44.232v21.826
		c0,6.095,0.732,10.313,2.25,12.671c1.546,2.362,4.156,3.517,7.841,3.517c3.844,0,6.519-1,8.048-3.015
		c1.502-1.985,2.298-6.374,2.298-13.174v-5.28h23.797v5.938c0,11.861-2.876,20.813-8.715,26.829
		c-5.771,5.982-14.423,8.952-25.957,8.952c-10.356,0-18.531-3.171-24.472-9.53c-5.935-6.343-8.949-15.111-8.949-26.251v-51.984
		c0-10,3.297-18.2,9.842-24.53c6.552-6.313,14.953-9.468,25.313-9.468c10.597,0,18.732,2.936,24.423,8.796
		c5.687,5.844,8.515,14.25,8.515,25.203L414.14,392.19L414.14,392.19z M496.001,288.146c-14.623-19.481-37.904-32.146-64-32.146
		H79.999C53.906,256,30.628,268.662,16,288.146V85.344c0-38.234,31.11-69.345,69.345-69.345h341.329
		c38.232,0,69.327,31.11,69.327,69.345V288.146L496.001,288.146z"/>
	<path d="M380.216,348.956c-3.686,0-6.313,1.03-7.92,3.169c-1.625,2.049-2.39,5.547-2.39,10.377v11.688h20.437v-11.688
		c0-4.83-0.828-8.328-2.437-10.377C386.341,349.986,383.736,348.956,380.216,348.956z"/>
	<path d="M297.747,348.548c-1.654,0-3.296,0.344-4.903,1.124c-1.608,0.736-3.189,1.922-4.768,3.53v72.096
		c1.858,1.877,3.705,3.268,5.483,4.078c1.783,0.828,3.626,1.25,5.579,1.25c2.845,0,4.91-0.813,6.253-2.451
		c1.311-1.625,1.995-4.253,1.995-7.971v-59.751c0-3.922-0.797-6.89-2.438-8.906C303.264,349.532,300.86,348.548,297.747,348.548z"/>
</g>
</svg>
