<?xml version="1.0" encoding="utf-8"?>
<!-- Generator: Adobe Illustrator 15.0.0, SVG Export Plug-In . SVG Version: 6.00 Build 0)  -->
<!DOCTYPE svg PUBLIC "-//W3C//DTD SVG 1.1//EN" "http://www.w3.org/Graphics/SVG/1.1/DTD/svg11.dtd">
<svg version="1.1" id="Layer_1" xmlns="http://www.w3.org/2000/svg" xmlns:xlink="http://www.w3.org/1999/xlink" x="0px" y="0px"
	 width="512px" height="512px" viewBox="0 0 512 512" enable-background="new 0 0 512 512" xml:space="preserve">
<g>
	<g>
		<polygon points="101.74,0 133.082,0 153.298,73.316 155.254,73.316 174.476,0 206.122,0 169.906,107.316 169.906,183.414 
			138.782,183.414 138.782,110.745 		"/>
		<path d="M208.353,79.059c0-10.507,3.718-18.852,11.182-25.049c7.437-6.211,17.461-9.322,29.993-9.322
			c11.429,0,20.822,3.276,28.148,9.832c7.27,6.541,10.934,14.982,10.934,25.297v69.9c0,11.567-3.58,20.629-10.713,27.226
			c-7.217,6.582-17.049,9.888-29.635,9.888c-12.063,0-21.757-3.416-29.029-10.189c-7.216-6.804-10.878-15.961-10.878-27.459
			L208.353,79.059L208.353,79.059z M236.803,151.741c0,3.704,1.019,6.554,2.974,8.606c1.956,2.038,4.766,3.043,8.428,3.043
			c3.747,0,6.693-1.045,8.924-3.098c2.205-2.094,3.307-4.943,3.307-8.552V78.025c0-2.959-1.131-5.342-3.389-7.174
			c-2.258-1.817-5.205-2.713-8.842-2.713c-3.387,0-6.113,0.896-8.234,2.713c-2.093,1.832-3.167,4.213-3.167,7.174V151.741
			L236.803,151.741z"/>
		<path d="M389.908,48.102v135.313h-27.652v-14.941c-5.041,5.494-10.355,9.723-15.893,12.586
			c-5.508,2.878-10.852,4.312-16.031,4.312c-6.443,0-11.209-2.025-14.457-6.046c-3.223-4.035-4.848-10.066-4.848-18.137V48.102
			h27.596v103.735c0,3.209,0.635,5.522,1.791,6.954c1.129,1.434,3.029,2.162,5.619,2.162c2.01,0,4.6-0.963,7.711-2.85
			c3.084-1.9,5.949-4.326,8.51-7.299V48.102H389.908z"/>
	</g>
	<g>
		<path d="M305.354,350.205c-1.762,0-3.496,0.372-5.205,1.198c-1.707,0.8-3.387,2.053-5.066,3.747v76.537
			c1.982,1.982,3.939,3.483,5.838,4.338c1.875,0.866,3.83,1.336,5.922,1.336c3.002,0,5.207-0.868,6.611-2.631
			c1.402-1.722,2.146-4.504,2.146-8.455v-63.429c0-4.146-0.855-7.299-2.588-9.446C311.221,351.279,308.658,350.205,305.354,350.205z
			"/>
		<path d="M390.018,350.646c-3.91,0-6.719,1.087-8.428,3.388c-1.707,2.146-2.533,5.865-2.533,11.003v12.407h21.703v-12.407
			c0-5.137-0.881-8.854-2.59-11.003C396.518,351.733,393.737,350.646,390.018,350.646z"/>
		<path d="M446.01,255.008c-20.16-19.814-190.091-20.078-190.091-20.063c0-0.015-169.905,0.249-190.12,20.063
			c-20.216,19.844-20.271,117.811-20.271,118.375v0.18c0,0.563,0.056,98.364,20.271,118.209C86.012,511.573,255.919,512,255.919,512
			s169.931-0.427,190.091-20.229c20.299-19.913,20.463-118.388,20.463-118.388C466.473,372.817,466.254,274.852,446.01,255.008z
			 M170.896,312.722H142.28v142.32H114.6v-142.32H85.984V288.54h84.911L170.896,312.722L170.896,312.722z M251.813,455.043h-24.54
			v-13.509c-4.571,5.012-9.254,8.799-14.183,11.389c-4.903,2.645-9.641,3.91-14.268,3.91c-5.702,0-9.916-1.79-12.834-5.479
			c-2.837-3.679-4.297-9.116-4.297-16.457V332.193h24.541v94.221c0,2.919,0.523,5.012,1.516,6.306
			c1.074,1.322,2.754,1.956,5.04,1.956c1.791,0,4.104-0.868,6.858-2.589c2.782-1.736,5.288-3.912,7.628-6.569v-93.323h24.54
			L251.813,455.043L251.813,455.043z M340.883,429.663c0,8.688-1.93,15.354-5.783,19.996c-3.828,4.653-9.418,6.938-16.689,6.938
			c-4.82,0-9.09-0.865-12.836-2.656c-3.744-1.789-7.299-4.544-10.492-8.316v9.418h-24.814V288.54h24.814v53.609
			c3.332-3.719,6.83-6.597,10.521-8.523c3.744-1.955,7.52-2.92,11.318-2.92c7.795,0,13.717,2.617,17.793,7.823
			c4.131,5.246,6.17,12.916,6.17,22.969v68.165H340.883z M426.016,396.559h-46.961v23.148c0,6.473,0.801,10.948,2.396,13.468
			c1.652,2.492,4.406,3.72,8.318,3.72c4.074,0,6.912-1.062,8.537-3.182c1.598-2.121,2.451-6.775,2.451-14.006v-5.604h25.256v6.308
			c0,12.601-3.059,22.088-9.254,28.491c-6.113,6.335-15.314,9.487-27.541,9.487c-10.99,0-19.666-3.347-25.973-10.122
			c-6.309-6.732-9.504-16.016-9.504-27.857v-55.166c0-10.617,3.498-19.348,10.439-26.041c6.939-6.706,15.863-10.052,26.881-10.052
			c11.236,0,19.885,3.111,25.916,9.322c6.031,6.196,9.035,15.12,9.035,26.771v31.314H426.016z"/>
	</g>
</g>
</svg>
